<svg xmlns="http://www.w3.org/2000/svg" viewBox="0 0 278 91.86"><defs><style>.cls-1{fill:#04abed;}</style></defs><g id="Layer_2" data-name="Layer 2"><g id="second"><g id="logo"><path d="M34,91.3H29.76l-4-10.63L22.43,70.55,19.12,80.7l-4,10.59H10.94L0,61.11H5.39l7.66,23.2,7.8-23.2H24l7.94,23.2,7.5-23.2h5.38Z"/><path d="M71.61,91.26H49.37V61.12H71.5v4.69H54.19V74H70.81v4.48H54.19v8.09H71.62Z"/><path d="M91.62,61.12A12.05,12.05,0,0,1,99,63.27a7.53,7.53,0,0,1,2.84,6.46,6.07,6.07,0,0,1-4.18,6,6.48,6.48,0,0,1,3.82,2.82,7.7,7.7,0,0,1,1.31,4.11,7.94,7.94,0,0,1-1.61,5.14,8.15,8.15,0,0,1-4,2.75,19.35,19.35,0,0,1-5.56.73H77.81V61.12Zm-9,12.48h9.09a7,7,0,0,0,4-1,3.26,3.26,0,0,0,1.38-2.81,4,4,0,0,0-1.47-3,5.79,5.79,0,0,0-4-1.31h-9Zm0,13.18h9a9.72,9.72,0,0,0,4.44-1A3.33,3.33,0,0,0,98,82.6a3.85,3.85,0,0,0-2-3.46,8,8,0,0,0-4.37-1.23H82.57Z"/><path class="cls-1" d="M131.9,61.12V78.77a13,13,0,0,1-3.5,9.43A12.49,12.49,0,0,1,119,91.82a13,13,0,0,1-9.3-3.4Q106.1,85,106.12,79h4.74A8.42,8.42,0,0,0,113,85.15a8.06,8.06,0,0,0,6,2.15,7.61,7.61,0,0,0,6-2.35,8.91,8.91,0,0,0,2.13-6.17V65.6h-9.68V61.12Z"/><path class="cls-1" d="M158.76,84.93H142.45l-2.84,6.33h-5.14L148,61.12h5.24l13.53,30.14h-5.13ZM150.63,66.2l-6.36,14.35H157Z"/><path class="cls-1" d="M195.15,87.37a15.4,15.4,0,0,1-11.32,4.49,18.39,18.39,0,0,1-7.07-1.29,13.08,13.08,0,0,1-5-3.5,15.28,15.28,0,0,1-2.86-4.9,16.66,16.66,0,0,1-1-5.77,17,17,0,0,1,1-5.83,16.3,16.3,0,0,1,2.88-5,13.14,13.14,0,0,1,5-3.57,17.52,17.52,0,0,1,7-1.34,15.06,15.06,0,0,1,11,4.52l-3.23,3.1a10.69,10.69,0,0,0-7.79-3.1q-5.39,0-8.27,3.31a11.45,11.45,0,0,0-2.84,7.88,11.6,11.6,0,0,0,2.84,7.77c1.87,2.14,4.62,3.21,8.27,3.21a11.58,11.58,0,0,0,4.31-.86,10.91,10.91,0,0,0,3.7-2.41Z"/><path class="cls-1" d="M223.14,61.29,209.32,75.67l15,15.28v.3h-6L204.89,77.51V91.25h-4.83V61.11h4.83v13l12.27-13h6Z"/><path class="cls-1" d="M250.22,91.26H228V61.12h22.15v4.69H232.8V74h16.61v4.48H232.8v8.09h17.43Z"/><path class="cls-1" d="M263.27,65.47h-9.89V61.1H278v4.37h-9.86V91.26h-4.87Z"/><path class="cls-1" d="M163,36c3.12-3.21,2.92-7.28,3-11.2.1-7.62.07-15.24,0-22.86,0-1.45.36-2,1.89-1.93,4.4.1,8.79,0,13.21,0,.49,0,1,.07,1.56.11,0,.58.09,1.08.09,1.57,0,8.52,0,17.05,0,25.57a15,15,0,0,1-2.55,8.81A10.54,10.54,0,0,1,163,36Z"/><path d="M122.31,40.07,95.24,0H101c4,0,7.9-.06,11.86.05a3.12,3.12,0,0,1,2.18,1.09q8.12,11.79,16,23.7a2.16,2.16,0,0,1,.23,1.89C128.45,31.14,125.47,35.45,122.31,40.07Z"/><path d="M122.14,0c6.41,0,12.28,0,18.16,0a2.31,2.31,0,0,1,1.59,1q8.18,12,16.22,24a1.87,1.87,0,0,1,.19,1.62c-2.92,4.42-5.93,8.78-9.09,13.41Z"/></g></g></g></svg>