<svg xmlns="http://www.w3.org/2000/svg" viewBox="0 0 341.92 339.03"><defs><style>.cls-1{fill:#f1f3f3;}</style></defs><g id="Layer_2" data-name="Layer 2"><g id="topproduct"><g id="txt_shape" data-name="txt&amp;shape"><path class="cls-1" d="M48.87,290.64A171,171,0,1,1,293.05,51.29,170.72,170.72,0,0,1,202.58,338.8a13.36,13.36,0,0,1-4.94-26.25A143.71,143.71,0,0,0,271.94,274c56.8-55.68,57.71-147.19,2-204S126.78,12.27,70,68s-57.71,147.19-2,204A144,144,0,0,0,135,310.68a13.36,13.36,0,0,1-6.63,25.88A170.76,170.76,0,0,1,48.87,290.64Zm102.46-14.39a25.68,25.68,0,0,0,27.4-13.68l16.9-32.51,36.28,6.23a26.19,26.19,0,0,0,27.68-13.77A25.82,25.82,0,0,0,255.17,192l-26-26.5L246.1,133.1a26.21,26.21,0,0,0-34.88-35.54l-32.69,16.25-26-26.5a25.81,25.81,0,0,0-30.44-5,26.19,26.19,0,0,0-14.32,27.39l5.51,36.4L80.46,162.32a26.16,26.16,0,0,0,7.3,49.2l36.4,6.25,5.52,36.52a25.85,25.85,0,0,0,21.65,22Zm8.29-143.57a25.94,25.94,0,0,0,30,5.42l32-15.89-16.54,31.68A25.92,25.92,0,0,0,209.94,184l25.22,25.74-35.46-6.1a26,26,0,0,0-27.55,13.65l-16.3,31.37-5.33-35.23A26.27,26.27,0,0,0,129,191.5l-35.13-6,31.69-15.67a26,26,0,0,0,14.2-27.28L134.4,107Zm76.5,78h0Z"/></g></g></g></svg>