<svg xmlns="http://www.w3.org/2000/svg" viewBox="0 0 410.11 350.64"><defs><style>.cls-1{fill:#06bbf3;opacity:0.5;}</style></defs><g id="Layer_2" data-name="Layer 2"><g id="flash"><path class="cls-1" d="M404.49,210.59H381.62L410,60.58A5.6,5.6,0,0,0,405.54,54a6.12,6.12,0,0,0-1.05-.09H276.1L297.3,14.4A5.61,5.61,0,0,0,295,6.81a5.54,5.54,0,0,0-2.64-.67H238.7a5.6,5.6,0,0,0-5,3.07L211,53.94H93.35L87.81,35.78A50.17,50.17,0,0,0,39.54,0H5.6A5.62,5.62,0,0,0,0,5.61V31.24a5.61,5.61,0,0,0,5.61,5.61h34a13.54,13.54,0,0,1,13,9.65L99.44,200.32a66.47,66.47,0,0,0,4.07,10.25H99.8a48.5,48.5,0,1,0-.78,97h18.73v3.07a39.65,39.65,0,1,0,79.29,0v-3.07h62.67v3.07a39.65,39.65,0,0,0,79.29.71v-3.78h39.92a5.61,5.61,0,0,0,5.61-5.61V276.33a5.61,5.61,0,0,0-5.61-5.61H99.8a11.65,11.65,0,1,1-.38-23.3H404.5a5.61,5.61,0,0,0,5.61-5.59V216.19a5.61,5.61,0,0,0-5.61-5.6ZM242.14,17.36H283l-21.2,39.53a5.6,5.6,0,0,0,2.3,7.59,5.54,5.54,0,0,0,2.64.67H309l-79.27,80L258.2,90a5.67,5.67,0,0,0-5-8.18H209.39ZM96.76,65.15H205.28l-10,19.75a5.6,5.6,0,0,0,2.46,7.53,5.47,5.47,0,0,0,2.54.61H244l-41.13,79.55c-2.93,5.66,4.92,10.6,9,6.52l112.89-114h73L370.21,210.59H163a29.49,29.49,0,0,1-28.35-21Zm89.07,245.51a28.43,28.43,0,0,1-56.86,0v-3.08h56.86Zm142,0a28.43,28.43,0,1,1-56.86.6v-3.68h56.86Zm71.1-74.44H99.8A22.87,22.87,0,0,0,99.26,282h274v14.42H99.8a37.29,37.29,0,0,1-.69-74.57h14.21a5.61,5.61,0,0,0,4.59-8.84A55.91,55.91,0,0,1,110.14,197L63.3,43.23a24.71,24.71,0,0,0-23.76-17.6H11.21V11.21H39.55A39.06,39.06,0,0,1,77.09,39l46.84,153.82a40.63,40.63,0,0,0,39.09,29H398.89Z"/></g></g></svg>