<svg xmlns="http://www.w3.org/2000/svg" viewBox="0 0 247.19 247.18"><defs><style>.cls-1{opacity:0.5;}.cls-2{fill:#06bbf3;}</style></defs><g id="Layer_2" data-name="Layer 2"><g id="subscribe"><g class="cls-1"><path class="cls-2" d="M247.19,98v0a6.08,6.08,0,0,0,0-.61c0-.06,0-.11,0-.17s0-.32-.07-.47l0-.18c0-.19-.08-.38-.13-.56,0,0,0,0,0-.06-.06-.19-.12-.38-.19-.56l-.09-.21c-.05-.13-.11-.25-.17-.37l-.1-.21c-.09-.17-.19-.34-.29-.5l-.12-.18-.26-.34-.14-.18a5.82,5.82,0,0,0-.4-.45l0,0c-.15-.16-.31-.3-.47-.44l-.06,0L232.22,82.19V50.7a16.92,16.92,0,0,0-16.9-16.9H173.91L140.55,6.11a26.57,26.57,0,0,0-33.91,0L73.28,33.8H31.86A16.92,16.92,0,0,0,15,50.7V82.19L2.62,92.44l-.06,0c-.16.14-.32.28-.47.44l0,0a5.82,5.82,0,0,0-.4.45l-.14.18-.25.34-.12.18c-.1.16-.2.33-.29.5l-.11.21-.16.37-.09.21A5.27,5.27,0,0,0,.3,96s0,0,0,.06c-.05.18-.1.37-.14.56l0,.18c0,.15,0,.31-.06.47a1,1,0,0,0,0,.17A6.08,6.08,0,0,0,0,98v0H0V220.63a26.43,26.43,0,0,0,8.33,19.28,5.77,5.77,0,0,0,.44.42,26.43,26.43,0,0,0,17.78,6.85H220.63a26.45,26.45,0,0,0,17.79-6.85c.15-.13.29-.27.44-.42a26.47,26.47,0,0,0,8.33-19.28V98ZM31.86,48.28H215.32a2.43,2.43,0,0,1,2.42,2.42V107l-4.1,3.4L131.3,178.76a12.06,12.06,0,0,1-15.41,0L33.55,110.43l-4.1-3.4V50.7A2.42,2.42,0,0,1,31.86,48.28ZM14.48,220.63V113.43L17.6,116h0L88.32,174.7,15.23,224.79A11.94,11.94,0,0,1,14.48,220.63Zm85.43-36.31,6.73,5.59a26.57,26.57,0,0,0,33.91,0l6.73-5.59,70.59,48.38H29.31Zm59-9.62L229.58,116h0l3.11-2.59v107.2a11.94,11.94,0,0,1-.74,4.16Zm-43-157.44a12.06,12.06,0,0,1,15.41,0L151.23,33.8H96Z"/><path class="cls-2" d="M63.49,79.66a7.24,7.24,0,0,0,7.24,7.24h68.55a7.25,7.25,0,1,0,0-14.49H70.73A7.25,7.25,0,0,0,63.49,79.66Z"/><path class="cls-2" d="M70.73,115.86H176.46a7.24,7.24,0,0,0,0-14.48H70.73a7.24,7.24,0,0,0,0,14.48Z"/></g></g></g></svg>