<svg xmlns="http://www.w3.org/2000/svg" viewBox="0 0 12.89 14.86"><defs><style>.cls-1{fill:#1a1a1a;}</style></defs><g id="Layer_2" data-name="Layer 2"><g id="best"><path class="cls-1" d="M12.88,12.83l-.94-8.69a.53.53,0,0,0-.55-.43H9.74V2.79a2.59,2.59,0,0,0-1-2A3.63,3.63,0,0,0,6.44,0a3.08,3.08,0,0,0-3.3,2.79v.92H1.49A.52.52,0,0,0,1,4.14L0,12.83a1.66,1.66,0,0,0,.57,1.42,2.36,2.36,0,0,0,1.62.61h8.49a2.39,2.39,0,0,0,1.62-.61A1.69,1.69,0,0,0,12.88,12.83Zm-8.64-10A2.05,2.05,0,0,1,6.44.93,2.4,2.4,0,0,1,8,1.47a1.7,1.7,0,0,1,.64,1.32v.92H4.24ZM11.5,13.63a1.21,1.21,0,0,1-.82.3H2.2a1.21,1.21,0,0,1-.81-.3.84.84,0,0,1-.28-.71L2,4.64H3.14V6a.52.52,0,0,0,.55.46A.51.51,0,0,0,4.24,6V4.64h4.4V6a.52.52,0,0,0,.55.46A.51.51,0,0,0,9.74,6V4.64h1.15l.89,8.28A.84.84,0,0,1,11.5,13.63Z"/></g></g></svg>