<svg xmlns="http://www.w3.org/2000/svg" viewBox="0 0 28.29 28.43"><defs><style>.cls-1{stroke:#000;stroke-miterlimit:10;stroke-width:0.25px;}</style></defs><g id="Layer_2" data-name="Layer 2"><g id="second"><g id="cart"><path class="cls-1" d="M21,24.89a3.51,3.51,0,0,0,3.57-3.44V19.29a1.34,1.34,0,1,0-.86,0v2.16a2.72,2.72,0,0,1-5.43,0V19.29a1.34,1.34,0,1,0-.86,0v2.16A3.52,3.52,0,0,0,21,24.89Zm3.14-7.3a.47.47,0,1,1-.48.47A.48.48,0,0,1,24.12,17.59Zm-6.29,0a.47.47,0,1,1,0,.94.47.47,0,1,1,0-.94Z"/><path class="cls-1" d="M1.62,28.3H27.06a1.07,1.07,0,0,0,1.09-1.17l-.5-4.4a.42.42,0,0,0-.47-.37.43.43,0,0,0-.38.46l.5,4.4a.24.24,0,0,1-.24.26H14.9a.24.24,0,0,1-.25-.26l1.24-10.87a.24.24,0,0,1,.24-.21h9.69a.23.23,0,0,1,.24.21l.52,4.54a.43.43,0,0,0,.47.37.42.42,0,0,0,.38-.46l-.51-4.54a1.1,1.1,0,0,0-1.1-.94H21.08L20.41,9.5a1.47,1.47,0,0,0-1.49-1.28h-1.7V5.86a5.87,5.87,0,0,0-6-5.74,5.86,5.86,0,0,0-6,5.74V8.22H3.58A1.48,1.48,0,0,0,2.09,9.5l-2,17.21A1.46,1.46,0,0,0,1.62,28.3ZM1,26.8,3,9.59A.63.63,0,0,1,3.58,9H5.29v1.54a1.34,1.34,0,0,0,.43,2.62,1.36,1.36,0,0,0,1.39-1.34,1.35,1.35,0,0,0-1-1.28V9h4.1a.41.41,0,1,0,0-.82H6.15V5.86A5,5,0,0,1,11.25,1a5,5,0,0,1,5.11,4.91V8.22H12.25a.41.41,0,1,0,0,.82h4.11v1.54a1.4,1.4,0,1,0,.86,0V9h1.7a.64.64,0,0,1,.64.55l.65,5.73H16.13a1.08,1.08,0,0,0-1.09.94L13.8,27.13a1.32,1.32,0,0,0,0,.35H1.62A.62.62,0,0,1,1,26.8ZM5.72,11.34a.53.53,0,0,1,.54.52.54.54,0,0,1-.54.52.53.53,0,0,1-.54-.52A.53.53,0,0,1,5.72,11.34Zm11.07,0a.53.53,0,0,1,.54.52.54.54,0,0,1-1.08,0A.53.53,0,0,1,16.79,11.34Z"/></g></g></g></svg>