<svg xmlns="http://www.w3.org/2000/svg" viewBox="0 0 17.97 29.06"><defs><style>.cls-1{fill:#04abed;}</style></defs><g id="Layer_2" data-name="Layer 2"><g id="second"><g id="flame"><path class="cls-1" d="M17.92,18.91a12.83,12.83,0,0,0-1.12-4.06,15.22,15.22,0,0,0-2.13-3.4c-.24-.3-.49-.58-.62-.72l-.29-.32a1.88,1.88,0,0,0-.19-.2l-.09-.09-.28-.3,0,0-.13-.14a2,2,0,0,1-.19-.21l0,0c-.45-.5-.82-.94-1.15-1.37a9.92,9.92,0,0,1-.88-1.36,6.36,6.36,0,0,1-.58-1.64A10.79,10.79,0,0,1,10,3.21a14.45,14.45,0,0,1,.06-1.67c0-.33.06-.61.09-.87A.62.62,0,0,0,10,.15.59.59,0,0,0,9.42,0a5.92,5.92,0,0,0-.87.29,8.34,8.34,0,0,0-1.79,1A8.7,8.7,0,0,0,4.85,3.39,8.92,8.92,0,0,0,3.51,6.7a10.62,10.62,0,0,0,.08,4.16A12.76,12.76,0,0,0,5.2,14.79a16.8,16.8,0,0,0,1.18,1.64c.12.14.43.51.44.51l.12.15.22.25.16.19h0c.6.72,1,1.24,1.37,1.71a17.13,17.13,0,0,1,1,1.52,9.1,9.1,0,0,1,.75,1.5A7,7,0,0,1,10.88,24a9.59,9.59,0,0,1,0,1.86,15.64,15.64,0,0,1-.23,1.65c-.06.3-.12.57-.17.8a.59.59,0,0,0,.59.73h.11a5.84,5.84,0,0,0,.82-.22A7.75,7.75,0,0,0,13.84,28a8.34,8.34,0,0,0,2.06-1.84A9.33,9.33,0,0,0,17.54,23,10.47,10.47,0,0,0,17.92,18.91Z"/><path class="cls-1" d="M6.14,22.59a6.81,6.81,0,0,0-1-1.55l-.27-.32-.14-.16-.09-.09,0,0-.12-.13,0,0-.05-.05-.08-.09,0,0c-.2-.22-.37-.42-.52-.61a4.3,4.3,0,0,1-.41-.63,3.15,3.15,0,0,1-.26-.75,4.9,4.9,0,0,1-.09-.83,6.44,6.44,0,0,1,0-.67.63.63,0,0,0-.26-.54.59.59,0,0,0-.6,0,4,4,0,0,0-.65.39,3.91,3.91,0,0,0-.87.94,4,4,0,0,0-.61,1.51,4.87,4.87,0,0,0,0,1.9,5.86,5.86,0,0,0,.74,1.79,6.55,6.55,0,0,0,.53.74c.05.07.16.19.21.25h0l0,.06a.48.48,0,0,1,.1.12l.07.08h0c.19.22.42.51.63.78a7,7,0,0,1,.47.69,4,4,0,0,1,.34.69,3.23,3.23,0,0,1,.18.8,3.91,3.91,0,0,1,0,.84,4.88,4.88,0,0,1-.08.61.61.61,0,0,0,.22.57.58.58,0,0,0,.37.13.59.59,0,0,0,.23,0,3,3,0,0,0,.61-.32,3.74,3.74,0,0,0,.94-.84,4.3,4.3,0,0,0,.75-1.42,4.87,4.87,0,0,0,.18-1.87A5.78,5.78,0,0,0,6.14,22.59Z"/></g></g></g></svg>