<svg xmlns="http://www.w3.org/2000/svg" viewBox="0 0 28.48 28.48"><defs><style>.cls-1{fill:#fff;}</style></defs><g id="Layer_2" data-name="Layer 2"><g id="top"><path class="cls-1" d="M25.85,6V6s-.08-.09-.11-.14c-.27-.36-.55-.71-.85-1l-.24-.27c-.31-.33-.63-.64-1-.94l-.18-.16a14.57,14.57,0,0,0-2.7-1.83l-.12-.05A13,13,0,0,0,19.35,1l-.29-.1A10.74,10.74,0,0,0,17.84.48l-.37-.1c-.41-.09-.81-.17-1.23-.22-.13,0-.25,0-.38-.06a13.42,13.42,0,0,0-3.23,0l-.37.06A12.14,12.14,0,0,0,11,.38l-.37.1A10.15,10.15,0,0,0,9.44.86L9.15,1a13.12,13.12,0,0,0-1.33.59L7.7,1.6A14.57,14.57,0,0,0,5,3.43l-.19.16a12.18,12.18,0,0,0-1,.94L3.6,4.8q-.44.51-.84,1L2.64,6a0,0,0,0,1,0,0,14.15,14.15,0,0,0,0,16.44,0,0,0,0,1,0,0l.12.14q.41.54.84,1.05l.25.27c.31.33.63.64,1,.94l.19.16a14.25,14.25,0,0,0,2.7,1.83l.11.05a14.19,14.19,0,0,0,1.33.59l.29.1a10.74,10.74,0,0,0,1.22.38l.37.1a12.14,12.14,0,0,0,1.23.22c.12,0,.25.05.38.06a13.34,13.34,0,0,0,3.22,0c.13,0,.25,0,.38-.06a12.14,12.14,0,0,0,1.23-.22l.37-.1a10.74,10.74,0,0,0,1.22-.38l.29-.1a13,13,0,0,0,1.32-.59l.12-.05a14.57,14.57,0,0,0,2.7-1.83l.18-.16c.34-.3.66-.61,1-.94l.24-.27c.3-.34.58-.69.85-1.05,0-.05.08-.09.11-.14l0,0A14.15,14.15,0,0,0,25.85,6ZM24.68,8a11.9,11.9,0,0,1,1.72,5.27H20.31a19.88,19.88,0,0,0-.57-3.59A18.25,18.25,0,0,0,24.68,8ZM16.83,2.31l.17,0a9.55,9.55,0,0,1,1.08.3l.16.06c.35.12.69.26,1,.41l.18.08c.32.16.64.32.95.5l.2.13a9.69,9.69,0,0,1,.85.57l.22.16a9.59,9.59,0,0,1,.78.65l.19.18q.39.38.75.78l.1.1a17.07,17.07,0,0,1-4.34,1.4,26.18,26.18,0,0,0-2.74-5.44ZM10.21,13.22A17,17,0,0,1,10.77,10a30.92,30.92,0,0,0,3.47.2A28.77,28.77,0,0,0,17.72,10a17.24,17.24,0,0,1,.56,3.26Zm8.07,2a17,17,0,0,1-.56,3.25,31.23,31.23,0,0,0-3.48-.2,30.92,30.92,0,0,0-3.47.2,17,17,0,0,1-.56-3.25Zm-4-12.57A25,25,0,0,1,17.08,8a26.88,26.88,0,0,1-2.84.16c-.94,0-1.89-.06-2.83-.16A25.39,25.39,0,0,1,14.24,2.69ZM5.1,6.18q.36-.4.75-.78L6,5.22c.25-.23.51-.44.78-.65L7,4.41c.28-.2.57-.4.86-.58l.2-.12c.31-.18.63-.35.95-.5l.18-.08a9.2,9.2,0,0,1,1-.41l.16-.06a9.55,9.55,0,0,1,1.08-.3l.17,0,.42-.07A26.18,26.18,0,0,0,9.34,7.68,17.07,17.07,0,0,1,5,6.28.94.94,0,0,0,5.1,6.18ZM3.8,8a18.44,18.44,0,0,0,5,1.68,19.88,19.88,0,0,0-.57,3.59H2.09A12,12,0,0,1,3.8,8Zm0,12.58a12,12,0,0,1-1.71-5.27H8.18a19.88,19.88,0,0,0,.57,3.59A18.44,18.44,0,0,0,3.8,20.53Zm7.86,5.64-.17-.05a9.55,9.55,0,0,1-1.08-.3l-.16-.06c-.35-.12-.7-.26-1-.41L9,25.27c-.32-.16-.64-.32-.95-.5l-.2-.13c-.29-.17-.58-.37-.86-.57l-.21-.16A9.59,9.59,0,0,1,6,23.26l-.19-.18c-.27-.25-.51-.51-.75-.78L5,22.2a17.07,17.07,0,0,1,4.34-1.4,26.18,26.18,0,0,0,2.74,5.44Zm2.58-.38a24.93,24.93,0,0,1-2.83-5.29,25.59,25.59,0,0,1,5.67,0h0A25,25,0,0,1,14.24,25.79Zm9.15-3.49q-.36.4-.75.78l-.19.18c-.26.23-.52.44-.78.65l-.22.16c-.27.2-.56.4-.85.58l-.2.12c-.31.18-.63.34-.95.5l-.18.08a10,10,0,0,1-1,.41l-.16.06a9.55,9.55,0,0,1-1.08.3l-.17.05-.42.07a25.66,25.66,0,0,0,2.73-5.44,16.82,16.82,0,0,1,4.34,1.4Zm1.29-1.77a18.25,18.25,0,0,0-4.94-1.68,19.88,19.88,0,0,0,.57-3.59H26.4A11.9,11.9,0,0,1,24.68,20.53Z"/></g></g></svg>