<svg xmlns="http://www.w3.org/2000/svg" viewBox="0 0 44.53 52.59"><g id="Layer_2" data-name="Layer 2"><g id="footer"><g id="left"><path d="M22.26,0C10,0,0,9,0,20.11V38.67a4.92,4.92,0,0,0,5.14,4.64,4.92,4.92,0,0,0,5.14-4.64V23.2a4.92,4.92,0,0,0-5.14-4.64,5.86,5.86,0,0,0-1.64.26C4.23,10,12.36,3.09,22.26,3.09s18,7,18.77,15.72a5.52,5.52,0,0,0-1.64-.25,4.92,4.92,0,0,0-5.14,4.64V38.67a4.92,4.92,0,0,0,5.14,4.64A5.68,5.68,0,0,0,41.1,43v1.83a1.64,1.64,0,0,1-1.71,1.55H27.09a5.12,5.12,0,0,0-4.83-3.09A4.91,4.91,0,0,0,17.13,48a4.91,4.91,0,0,0,5.13,4.64,5.13,5.13,0,0,0,4.83-3.1h12.3a4.92,4.92,0,0,0,5.14-4.64V20.11C44.53,9,34.54,0,22.26,0Z"/></g></g></g></svg>