<svg id="Layer_1" data-name="Layer 1" xmlns="http://www.w3.org/2000/svg" viewBox="0 0 138.71 125.06"><defs><style>.cls-1{fill:#fff;}</style></defs><path class="cls-1" d="M1026.71,618H888V492.94h138.71Zm-32.92-62.28c5.08,17.45,5.3,35.38,5.75,53.25.1,4.32,2,6.44,5.38,6.91a33.08,33.08,0,0,0,10.46-.74c2.4-.46,3.37-2.34,3.24-5.09-.39-8-.07-16-.7-23.89-1.32-16.77-2.93-33.51-4.72-50.24-.55-5.06-3.23-9.39-8.1-11.49a148.37,148.37,0,0,0-18.79-7c-3.44-1-4.61-2.3-4.18-5.61.39-3-.23-5.63-3.41-6.85-12.33-4.73-24.91-4.84-37.45-1.25-6.84,2-7,2.56-7,9.47,0,2.49-.77,3.32-3.25,3.85-7.49,1.61-15.32,2.89-21.09,8.48-2.72,2.63-5.63,5.94-6.49,9.42a128.32,128.32,0,0,0-3.35,22.76c-1,17.09-1.39,34.22-2.36,51.31-.23,4.07,1.46,6.39,4.86,6.74a33.26,33.26,0,0,0,11.13-1c1.26-.31,2.7-2.79,2.81-4.37.55-7.94.37-15.94,1-23.87.88-10.37,2.32-20.69,3.52-31l1.83-.1c.43,2.56.92,5.11,1.29,7.67,1.71,12,3,23.95,1.63,36.07a4.77,4.77,0,0,0,1.69,3.87c8.52,5,18,5.24,27.45,5.36V514c-4.72-1.21-9.81-.3-13.58-4,5.43-5.64,28.79-5.5,34.07.94l-14.36,3.41v94c8.65.18,16.88-.66,24.78-3.69a10.72,10.72,0,0,0,3.4-2,3.73,3.73,0,0,0,1.22-2.64,114.08,114.08,0,0,1,2.55-38.14A50.49,50.49,0,0,0,993.79,555.72Z" transform="translate(-888 -492.94)"/><path d="M993.79,555.72a50.49,50.49,0,0,1-.71,6.16A114.08,114.08,0,0,0,990.53,600a3.73,3.73,0,0,1-1.22,2.64,10.72,10.72,0,0,1-3.4,2c-7.9,3-16.13,3.87-24.78,3.69v-94l14.36-3.41c-5.28-6.44-28.64-6.58-34.07-.94,3.77,3.71,8.86,2.8,13.58,4v94.38c-9.48-.12-18.93-.32-27.45-5.36a4.77,4.77,0,0,1-1.69-3.87c1.35-12.12.08-24.1-1.63-36.07-.37-2.56-.86-5.11-1.29-7.67l-1.83.1c-1.2,10.34-2.64,20.66-3.52,31-.67,7.93-.49,15.93-1,23.87-.11,1.58-1.55,4.06-2.81,4.37a33.26,33.26,0,0,1-11.13,1c-3.4-.35-5.09-2.67-4.86-6.74,1-17.09,1.32-34.22,2.36-51.31A128.32,128.32,0,0,1,903.46,535c.86-3.48,3.77-6.79,6.49-9.42,5.77-5.59,13.6-6.87,21.09-8.48,2.48-.53,3.25-1.36,3.25-3.85,0-6.91.14-7.51,7-9.47,12.54-3.59,25.12-3.48,37.45,1.25,3.18,1.22,3.8,3.87,3.41,6.85-.43,3.31.74,4.65,4.18,5.61a148.37,148.37,0,0,1,18.79,7c4.87,2.1,7.55,6.43,8.1,11.49,1.79,16.73,3.4,33.47,4.72,50.24.63,7.93.31,15.93.7,23.89.13,2.75-.84,4.63-3.24,5.09a33.08,33.08,0,0,1-10.46.74c-3.41-.47-5.28-2.59-5.38-6.91C999.09,591.1,998.87,573.17,993.79,555.72ZM944,575.86l.94-1.1c-.94-.44-1.91-1.27-2.82-1.21a3.91,3.91,0,0,0-2.8,1.55A134.12,134.12,0,0,0,932.75,588c-.61,1.43.16,3.45.3,5.2,1.6-1.07,3.83-1.79,4.67-3.28,2.17-3.89,3.73-8.13,5.53-12.23C943.51,577.07,943.74,576.46,944,575.86Zm41.45,14.76c-3.11-5.66-6.06-11.15-9.2-16.52-.27-.48-2.3-.62-2.66-.2a3.58,3.58,0,0,0-.76,3.07c2.37,5.07,4.94,10.06,7.62,15a3.05,3.05,0,0,0,2.6,1.14C983.77,593,984.34,591.81,985.43,590.62Z" transform="translate(-888 -492.94)"/><path class="cls-1" d="M944,575.86c-.24.6-.47,1.21-.73,1.8-1.8,4.1-3.36,8.34-5.53,12.23-.84,1.49-3.07,2.21-4.67,3.28-.14-1.75-.91-3.77-.3-5.2a134.12,134.12,0,0,1,6.55-12.87,3.91,3.91,0,0,1,2.8-1.55c.91-.06,1.88.77,2.82,1.21Z" transform="translate(-888 -492.94)"/><path class="cls-1" d="M985.43,590.62c-1.09,1.19-1.66,2.35-2.4,2.47a3.05,3.05,0,0,1-2.6-1.14c-2.68-4.92-5.25-9.91-7.62-15a3.58,3.58,0,0,1,.76-3.07c.36-.42,2.39-.28,2.66.2C979.37,579.47,982.32,585,985.43,590.62Z" transform="translate(-888 -492.94)"/></svg>