<svg id="Layer_1" data-name="Layer 1" xmlns="http://www.w3.org/2000/svg" viewBox="0 0 143.12 144.22"><path d="M917.53,539.61c-1.51,12.93-3.31,25.83-4.41,38.79-.85,10-.93,20-1.08,30,0,2.91-.85,5-3.62,5.69-3.8.87-7.78,2-11.55,1.66-6-.58-7.71-3.29-7.46-9.36.87-21.3,1.49-42.61,2.8-63.88a216.17,216.17,0,0,1,4-28.61c1.63-8.26,7.48-13.69,15-16.84a121.08,121.08,0,0,1,18-5.71c2.83-.69,3.81-1.61,3.85-4.52.13-9.25,1-10.5,10.23-12.91a69.43,69.43,0,0,1,36.47.23c8,2.18,9.22,4,9.22,12.25,0,3,.63,4.3,3.91,5a96.57,96.57,0,0,1,16.63,5c10.19,4.16,15.75,11.84,17.51,22.94,4.72,29.72,4.77,59.7,5.49,89.64,0,1.58-1.31,4.28-2.52,4.61-4.19,1.17-8.7,2.39-12.9,1.93s-7.16-2.94-7.29-8.76c-.5-22.41-.85-44.91-6.94-67a95.12,95.12,0,0,0-1.58,10.27c-.72,14.93-1.47,29.86-1.67,44.81-.05,3.94-2.44,4.94-4.81,6-9.42,4.24-19.45,5.31-30,5.15V487.85l16.59-4.2c-5.56-7.94-32.82-8.37-40.41-1.32,4.34,4.57,10.33,3.66,16,5.15V605.87c-10.74.19-21.23-.76-30.88-5.77-1.73-.9-3.72-3.78-3.53-5.53,1.62-15.22,0-30.25-2-45.27-.44-3.22-.82-6.44-1.22-9.66Zm26.83,25.3c-.69-.84-1.33-2.33-2.3-2.59s-2.9.41-3.29,1.21c-3.11,6.4-6,12.87-8.75,19.45-.38.93.89,2.52,1.39,3.81,1.38-.62,3.42-.87,4-1.92,2.12-3.92,3.78-8.09,5.58-12.18C942.06,570.28,943.09,567.84,944.36,564.91Zm48.39,19c-3.41-7.13-6.7-14.14-10.21-21-.27-.55-2.42-.84-3-.38-.86.68-1.79,2.44-1.46,3.23q4.2,10.08,9,19.89c.38.78,2.29,1.28,3.36,1.1C991.22,586.55,991.79,585.11,992.75,583.88Z" transform="translate(-889.38 -471.57)"/></svg>