<svg xmlns="http://www.w3.org/2000/svg" viewBox="0 0 24.17 17.22"><defs><style>.cls-1{fill:#fff;}</style></defs><g id="Layer_2" data-name="Layer 2"><g id="top"><path class="cls-1" d="M24.15,1.73s0-.05,0-.08L16.8,8.76l7.36,6.88a.76.76,0,0,0,0-.15V1.73Z"/><path class="cls-1" d="M15.67,9.85l-3,2.9a.77.77,0,0,1-.55.22.82.82,0,0,1-.54-.21l-3-2.8L1.16,17.11a1.8,1.8,0,0,0,.57.11H22.49a1.7,1.7,0,0,0,.83-.23Z"/><path class="cls-1" d="M12.1,11.1,23.36.25A1.7,1.7,0,0,0,22.49,0H1.73A1.71,1.71,0,0,0,.64.41Z"/><path class="cls-1" d="M0,2V15.49a2.34,2.34,0,0,0,.07.45L7.4,8.88Z"/></g></g></svg>