<svg xmlns="http://www.w3.org/2000/svg" viewBox="0 0 349.15 49.36"><defs><style>.cls-1{isolation:isolate;}.cls-2{fill:#fff;}.cls-3{fill:#1a80ac;}.cls-4{fill:#00579e;}.cls-5{fill:#eec65e;}.cls-6{fill:#003058;}.cls-7{fill:#f69d1b;}.cls-8{fill:#ea001b;mix-blend-mode:hard-light;}.cls-9{fill:#0071bb;}</style></defs><g class="cls-1"><g id="Layer_2" data-name="Layer 2"><g id="footer"><rect class="cls-2" y="0.8" width="79.93" height="48.18" rx="3.8"/><path class="cls-3" d="M59.92,19.06a18,18,0,0,0-3.93.63l-.32,2.44A14.28,14.28,0,0,1,59,21.39c1.28,0,2,.21,1.81,1.38-3.82,0-6.37.74-6.9,3.29-.74,4.25,3.93,4.35,5.73,2.44l-.21,1.17h3.39l1.49-6.9c.53-2.87-2-3.82-4.35-3.71Zm.21,7.11c-.21.85-1,1.16-1.8,1.27s-1.38-.42-1-1.27c.43-.64,1.38-.64,2.12-.64h.85c-.1-.11-.21.32-.21.64Z"/><path class="cls-3" d="M55.67,22.13A14.28,14.28,0,0,1,59,21.39c1.28,0,2,.21,1.81,1.38-3.82,0-6.37.74-6.9,3.29-.74,4.25,3.93,4.35,5.73,2.44l-.21,1.17h3.39l1.49-6.9c.64-2.87-2-3.61-4.35-3.61m.21,7c-.21.85-1,1.16-1.8,1.27s-1.38-.42-1-1.27c.43-.64,1.38-.64,2.12-.64h.85c-.1-.11-.21.32-.21.64Z"/><path class="cls-3" d="M67.14,15.87l-2.76,13.8h3.39l2.87-13.8Z"/><path class="cls-3" d="M69.58,15.87l-5.2,13.8h3.39l2.87-13.8H69.58Z"/><path class="cls-3" d="M51.32,15.87H45.06L42.3,29.67H46l1-4.25h2.65a5,5,0,0,0,5.2-4.14c.53-3.07-1.69-5.41-3.5-5.41Zm-.11,4.78a2.16,2.16,0,0,1-2.12,1.59h-1.7l.75-3.18h1.8a1.19,1.19,0,0,1,1.27,1.59Z"/><path class="cls-3" d="M51.32,15.87H47.08l-4.89,13.8h3.72l1-4.25h2.66a5,5,0,0,0,5.2-4.14c.63-3.07-1.59-5.41-3.4-5.41Zm-.11,4.78a2.16,2.16,0,0,1-2.12,1.59h-1.7l.75-3.18h1.8a1.19,1.19,0,0,1,1.27,1.59Z"/><path class="cls-3" d="M26.8,19.06a16,16,0,0,0-3.82.63l-.32,2.44A13.08,13.08,0,0,1,26,21.39c1.28,0,2,.21,1.81,1.38-3.72,0-6.26.74-6.79,3.29-.75,4.25,3.82,4.35,5.62,2.44l-.21,1.17h3.39l1.49-6.9c.53-2.87-2.12-3.82-4.46-3.71Zm.32,7.11c-.21.85-.95,1.16-1.8,1.27s-1.38-.42-.85-1.27c.42-.64,1.38-.64,2-.64h.85c-.1-.11-.21.32-.21.64Z"/><path class="cls-3" d="M22.77,22.13a13,13,0,0,1,3.29-.74c1.27,0,2,.21,1.8,1.38-3.71,0-6.26.74-6.79,3.29-.74,4.25,3.82,4.35,5.63,2.44l-.32,1.17h3.39l1.49-6.9c.64-2.87-2-3.61-4.35-3.61m.21,7c-.21.85-.95,1.16-1.8,1.27s-1.38-.42-.85-1.27c.42-.64,1.38-.64,2-.64h.85c-.1-.11-.21.32-.21.64Z"/><path class="cls-3" d="M32.64,19.06H36L36.57,25,40,19.06h3.51L35.4,33.91H31.58L34,29.46Z"/><polyline class="cls-3" points="36.04 19.27 36.57 25.11 39.96 19.05 43.47 19.05 35.4 33.91 31.58 33.91 34.02 29.56"/><path class="cls-3" d="M18.42,15.87H12.05L9.29,29.67H13l1-4.25h2.65a5,5,0,0,0,5.2-4.14c.64-3.07-1.59-5.41-3.39-5.41Zm-.11,4.78a2.17,2.17,0,0,1-2.12,1.59h-1.7l.74-3.18H17a1.2,1.2,0,0,1,1.27,1.59Z"/><path class="cls-3" d="M18.42,15.87H15.55L9.29,29.67H13l1-4.25h2.65a5,5,0,0,0,5.2-4.14c.64-3.07-1.59-5.41-3.39-5.41Zm-.11,4.78a2.17,2.17,0,0,1-2.12,1.59h-1.7l.74-3.18H17a1.2,1.2,0,0,1,1.27,1.59Z"/><path class="cls-3" d="M26.17,22.77C23.3,23,21.39,23.83,21,26c-.75,4.25,3.82,4.36,5.62,2.45l-.21,1.27h3.39l.54-2.55Zm.95,3.4c-.21.85-.95,1.16-1.8,1.27s-1.38-.42-.85-1.27c.42-.64,1.38-.64,2-.64h.85c-.1-.11-.21.32-.21.64Z"/><path class="cls-3" d="M36.78,24.89l-.21.32,2.23,2.12,4.67-8.27H40Z"/><path class="cls-3" d="M13,29.67l1-4.25L9.61,29.67Z"/><path class="cls-3" d="M45.91,29.67l1-4.46v.11l-4.35,4.35Z"/><path class="cls-3" d="M59.17,22.77C56.31,23,54.4,23.83,54,26c-.74,4.25,3.93,4.36,5.74,2.45l-.32,1.27h3.39l.53-2.55Zm1,3.4c-.21.85-1,1.16-1.8,1.27s-1.38-.42-1-1.27c.43-.64,1.38-.64,2.12-.64h.85c-.1-.11-.21.32-.21.64Z"/><path class="cls-3" d="M66.82,23.41l-2.44,6.26h3.39l1-4.25Z"/><rect class="cls-2" x="88.81" y="0.02" width="83.66" height="48.96" rx="3.8"/><path class="cls-4" d="M125.19,16.37l-2.68,16.22h4.29l2.68-16.22ZM138.13,23c-1.5-.72-2.42-1.2-2.42-1.94s.78-1.35,2.48-1.35a7.5,7.5,0,0,1,3.19.6l.39.17.58-3.4a11.3,11.3,0,0,0-3.85-.66c-4.23,0-7.22,2.13-7.23,5.19,0,2.26,2.13,3.51,3.76,4.26s2.22,1.27,2.22,2c0,1.05-1.34,1.53-2.58,1.53a9,9,0,0,1-4-.83l-.57-.25-.6,3.53a13.92,13.92,0,0,0,4.79.83c4.5,0,7.43-2.1,7.47-5.36,0-1.79-1.13-3.16-3.61-4.28Zm15.22-6.56H150a2.13,2.13,0,0,0-2.24,1.31l-6.37,14.86h4.5l1.24-3.22h5l.65,3.23h4Zm-4.94,9.71c.08,0,1.72-5.26,1.72-5.26l1.31,5.26Zm-29.48-9.76-4.2,11-.46-2.17a12.23,12.23,0,0,0-5.93-6.58l3.84,13.93h4.54l6.75-16.19h-4.54Z"/><path class="cls-5" d="M112.85,18.47a2.78,2.78,0,0,0-2.79-2.09h-6.65l-.07.3c5.19,1.24,9.55,5.06,11,8.66Z"/><rect class="cls-6" x="180.23" width="81.89" height="49.36" rx="3.8"/><circle class="cls-7" cx="229.59" cy="24.68" r="12.34"/><circle class="cls-8" cx="212.76" cy="24.68" r="12.34"/><rect class="cls-9" x="270.03" y="0.29" width="79.13" height="47.69" rx="3.8"/><path class="cls-2" d="M283.08,15.47l-7.67,17h9.18l1.14-2.71h2.61l1.13,2.71h10.11V30.38l.9,2.06h5.23l.9-2.11v2.11h21l2.56-2.64,2.39,2.64,10.8,0L335.68,24l7.7-8.53H332.75l-2.49,2.58-2.32-2.58H305.07l-2,4.38-2-4.38h-9.16v2l-1-2Zm1.78,2.41h4.48l5.08,11.51V17.88h4.91l3.93,8.25,3.62-8.25h4.88V30.06h-3l0-9.55-4.32,9.55h-2.66l-4.35-9.55v9.55h-6.11l-1.16-2.73h-6.25l-1.16,2.72h-3.27l5.38-12.17Zm29.61,0h12.07l3.7,4,3.81-4h3.69L332.13,24l5.61,6.05h-3.86l-3.69-4-3.83,4H314.47ZM287,19.94,285,24.8h4.12Zm30.41.46v2.22H324V25.1h-6.59v2.43h7.39L328.27,24,325,20.4Z"/></g></g></g></svg>