<svg xmlns="http://www.w3.org/2000/svg" viewBox="0 0 29.4 21.38"><defs><style>.cls-1{fill:#fff;}</style></defs><g id="Layer_2" data-name="Layer 2"><g id="top"><path class="cls-1" d="M24.63,5.35H21.38V1.21A1.21,1.21,0,0,0,20.17,0H2.67A2.68,2.68,0,0,0,0,2.67V16a1.35,1.35,0,0,0,1.35,1.35H2.67a4,4,0,0,0,8,0h8a4,4,0,0,0,8,0h1.52a1.15,1.15,0,0,0,1.15-1.15v-5a1.55,1.55,0,0,0-.32-1L25.85,6A1.51,1.51,0,0,0,24.63,5.35Zm-17.82,14A2,2,0,1,1,8.68,17.5,2,2,0,0,1,6.81,19.37Zm16,0a2,2,0,1,1,1.87-1.87A2,2,0,0,1,22.85,19.37Zm-1.47-8.68V8.22a.87.87,0,0,1,.87-.87h1.82a1.37,1.37,0,0,1,1.06.51l1.5,1.92a.56.56,0,0,1-.44.91Z"/></g></g></svg>