<svg xmlns="http://www.w3.org/2000/svg" viewBox="0 0 71.48 63.03"><defs><style>.cls-1{fill:#04abed;}</style></defs><g id="Layer_2" data-name="Layer 2"><g id="testimonial"><g id="txt_img2" data-name="txt&amp;img2"><path class="cls-1" d="M28.72,12.51A3.44,3.44,0,0,0,30.45,7.9L27.62,2A3.45,3.45,0,0,0,23.12.29,39.85,39.85,0,0,0,10.67,8.36,30.14,30.14,0,0,0,2.31,21.57C.81,26.53,0,33.27,0,41.86V59.57A3.47,3.47,0,0,0,3.46,63H26.12a3.47,3.47,0,0,0,3.46-3.46V36.91a3.47,3.47,0,0,0-3.46-3.46H15.28c.12-5.83,1.5-10.5,4-14A21.93,21.93,0,0,1,28.72,12.51Z"/><path class="cls-1" d="M69.42,12.51A3.43,3.43,0,0,0,71.15,7.9L68.33,2A3.45,3.45,0,0,0,63.83.35a41.79,41.79,0,0,0-12.4,8A30.76,30.76,0,0,0,43,21.63q-2.25,7.26-2.25,20.24v17.7A3.47,3.47,0,0,0,44.23,63H66.89a3.47,3.47,0,0,0,3.46-3.46V36.91a3.47,3.47,0,0,0-3.46-3.46H56c.12-5.83,1.5-10.5,4-14A22,22,0,0,1,69.42,12.51Z"/></g></g></g></svg>