<svg xmlns="http://www.w3.org/2000/svg" viewBox="0 0 136.28 88.97"><defs><style>.cls-1{fill:#fff;}</style></defs><g id="Layer_2" data-name="Layer 2"><g id="cards"><path class="cls-1" d="M104.05,56.65C93.69,56,85.12,64.1,85.79,73.85c.54,8.06,7.46,14.57,16,15.08,10.36.62,18.92-7.45,18.26-17.2C119.52,63.67,112.61,57.16,104.05,56.65Zm-.56,24.21c-5.18.31-9.46-3.72-9.13-8.6a8.38,8.38,0,0,1,8-7.54c5.17-.31,9.46,3.72,9.13,8.6A8.38,8.38,0,0,1,103.49,80.86Z"/><path class="cls-1" d="M45.36,56.65C35,56,26.43,64.1,27.09,73.85c.55,8.06,7.46,14.57,16,15.08,10.36.63,18.93-7.44,18.27-17.2C60.83,63.67,53.92,57.16,45.36,56.65Zm-.57,24.21c-5.17.31-9.46-3.72-9.13-8.59a8.39,8.39,0,0,1,8-7.55c5.18-.31,9.47,3.72,9.14,8.6A8.39,8.39,0,0,1,44.79,80.86Z"/><path class="cls-1" d="M114.5,10.31a4.34,4.34,0,0,0-3.84-2.22H88v8.09h20l11.69,21.9,7.68-3.64Z"/><rect class="cls-1" x="57.55" y="68.88" width="32.5" height="8.09"/><path class="cls-1" d="M31.35,68.88H16.58a4.28,4.28,0,0,0-4.38,3.59A4.13,4.13,0,0,0,16.46,77H31.24a4.29,4.29,0,0,0,4.38-3.59A4.15,4.15,0,0,0,31.35,68.88Z"/><path class="cls-1" d="M135.38,44.16l-8.45-10.24a4.37,4.37,0,0,0-3.39-1.57H92.33V4A4.17,4.17,0,0,0,88,0H16.58A4.28,4.28,0,0,0,12.2,3.58a4.14,4.14,0,0,0,4.26,4.51H83.74V36.4a4.18,4.18,0,0,0,4.3,4h33.4L127.69,48V68.88H115.92a4.29,4.29,0,0,0-4.38,3.59,4.15,4.15,0,0,0,4.27,4.5H132a4.17,4.17,0,0,0,4.29-4V46.64A3.92,3.92,0,0,0,135.38,44.16Z"/><path class="cls-1" d="M31.06,48.39H11.42A4.29,4.29,0,0,0,7,52a4.15,4.15,0,0,0,4.27,4.5H31a4.28,4.28,0,0,0,4.38-3.58A4.14,4.14,0,0,0,31.06,48.39Z"/><path class="cls-1" d="M40.94,32.49H4.41A4.28,4.28,0,0,0,0,36.07a4.13,4.13,0,0,0,4.26,4.5H40.83A4.29,4.29,0,0,0,45.21,37,4.14,4.14,0,0,0,40.94,32.49Z"/><path class="cls-1" d="M48,16.58H11.42A4.29,4.29,0,0,0,7,20.17a4.15,4.15,0,0,0,4.27,4.5H47.84a4.28,4.28,0,0,0,4.38-3.59A4.13,4.13,0,0,0,48,16.58Z"/></g></g></svg>