<svg xmlns="http://www.w3.org/2000/svg" viewBox="0 0 104.54 95.81"><defs><style>.cls-1{fill:#fff;}</style></defs><g id="Layer_2" data-name="Layer 2"><g id="cards"><path class="cls-1" d="M100.24,17.44H18.51L17.29,3.91A4.29,4.29,0,0,0,13,0H4.29a4.3,4.3,0,0,0,0,8.59h4.8C11.71,37.8,4.94-37.7,14,63.6a16.51,16.51,0,0,0,6.18,11.19A13,13,0,1,0,42.7,78.37H66.2a13,13,0,1,0,12.24-8.59H30.49A8,8,0,0,1,23.16,65l68.61-4a4.31,4.31,0,0,0,3.92-3.25l8.72-34.89a4.3,4.3,0,0,0-4.17-5.34ZM30.46,87.23a4.43,4.43,0,1,1,4.43-4.43A4.44,4.44,0,0,1,30.46,87.23Zm48,0a4.43,4.43,0,1,1,4.43-4.43A4.43,4.43,0,0,1,78.44,87.23Zm9.68-34.7L22,56.41,19.28,26H94.75Z"/></g></g></svg>