<svg xmlns="http://www.w3.org/2000/svg" viewBox="0 0 98.78 90.86"><defs><style>.cls-1{fill:#fff;}</style></defs><g id="Layer_2" data-name="Layer 2"><g id="cards"><path class="cls-1" d="M95.7,58.41a3.17,3.17,0,0,0-3.09,3.24V84.37H6.17V45.43h34a3.25,3.25,0,0,0,0-6.49h-34V26h34a3.25,3.25,0,0,0,0-6.49h-34A6.34,6.34,0,0,0,0,26V84.37a6.34,6.34,0,0,0,6.17,6.49H92.61a6.34,6.34,0,0,0,6.17-6.49V61.65A3.16,3.16,0,0,0,95.7,58.41Z"/><path class="cls-1" d="M27.78,58.41H15.44a3.25,3.25,0,0,0,0,6.49H27.78a3.25,3.25,0,0,0,0-6.49Z"/><path class="cls-1" d="M96.91,10,75.3.26a2.94,2.94,0,0,0-2.43,0L51.26,10a3.28,3.28,0,0,0-1.87,3V26c0,17.85,6.28,28.29,23.16,38.51a3,3,0,0,0,3.08,0C92.51,54.27,98.78,43.84,98.78,26V13A3.26,3.26,0,0,0,96.91,10Zm-4.3,16c0,15-4.72,23.23-18.52,31.93C60.28,49.17,55.57,40.92,55.57,26V15.12L74.09,6.77l18.52,8.35Z"/><path class="cls-1" d="M85.28,20.18a3,3,0,0,0-4.34.5l-9.7,12.76-3.84-6a3,3,0,0,0-4.28-.91,3.35,3.35,0,0,0-.86,4.5l6.17,9.74a3.08,3.08,0,0,0,2.44,1.44H71A3.05,3.05,0,0,0,73.42,41L85.76,24.74A3.34,3.34,0,0,0,85.28,20.18Z"/></g></g></svg>