<svg xmlns="http://www.w3.org/2000/svg" viewBox="0 0 103.6 105.44"><defs><style>.cls-1{fill:#fff;}</style></defs><g id="Layer_2" data-name="Layer 2"><g id="cards"><path class="cls-1" d="M101.2,46.92l-3.48-3.48a47,47,0,0,0-1.66-5.61L97.89,31a6,6,0,0,0-4.24-7.35l-6.87-1.84a46.21,46.21,0,0,0-4.08-4.08l-1.84-6.87a6,6,0,0,0-7.35-4.24L66.69,8.46A47,47,0,0,0,61.08,6.8l-5-5a6,6,0,0,0-8.48,0l-5,5a47,47,0,0,0-5.61,1.66L30.09,6.63h0a6,6,0,0,0-7.33,4.24L20.9,17.74a46.21,46.21,0,0,0-4.08,4.08L10,23.66A6,6,0,0,0,5.71,31l1.83,6.82a47,47,0,0,0-1.66,5.61L2.4,46.92a8.22,8.22,0,0,0,0,11.61L5.88,62a47,47,0,0,0,1.66,5.61L5.71,74.43A6,6,0,0,0,10,81.78l6.87,1.84A46.21,46.21,0,0,0,20.9,87.7l1.84,6.87a6,6,0,0,0,7.36,4.24L36.91,97a47,47,0,0,0,5.61,1.66l5,5a6,6,0,0,0,8.48,0l5.06-5.22A45.19,45.19,0,0,0,66.67,97l6.83,1.84A5.92,5.92,0,0,0,78,98.24a6,6,0,0,0,2.83-3.67l1.84-6.86a47.72,47.72,0,0,0,4.08-4.09l6.87-1.84a6,6,0,0,0,4.24-7.35l-1.83-6.82A47,47,0,0,0,97.72,62l3.48-3.47A8.22,8.22,0,0,0,101.2,46.92Zm-4.37,7.24-3.66,3.66a5.2,5.2,0,0,0-1.44,2.66,39.61,39.61,0,0,1-1.59,5.32A5.29,5.29,0,0,0,90,69l1.85,6.91-6.94,1.86a5.29,5.29,0,0,0-2.63,1.64,41.36,41.36,0,0,1-3.86,3.86,5.29,5.29,0,0,0-1.64,2.63l-1.87,6.94L68,90.94a5.29,5.29,0,0,0-3.1.1,40.29,40.29,0,0,1-5.26,1.4A5.33,5.33,0,0,0,56.85,94L51.8,99.18l-5.1-5.09A5.27,5.27,0,0,0,44,92.65a39.61,39.61,0,0,1-5.32-1.59,5.35,5.35,0,0,0-1.77-.3,5.45,5.45,0,0,0-1.38.18l-6.91,1.85L26.8,85.85a5.29,5.29,0,0,0-1.64-2.63,41.36,41.36,0,0,1-3.86-3.86,5.29,5.29,0,0,0-2.63-1.64l-6.94-1.87L13.58,69a5.21,5.21,0,0,0-.13-3.15,41,41,0,0,1-1.58-5.32,5.27,5.27,0,0,0-1.44-2.67L6.77,54.16a2,2,0,0,1,0-2.88l3.66-3.66A5.2,5.2,0,0,0,11.87,45a39.61,39.61,0,0,1,1.59-5.32,5.29,5.29,0,0,0,.12-3.15l-1.85-6.91,6.94-1.86a5.29,5.29,0,0,0,2.63-1.64,41.36,41.36,0,0,1,3.86-3.86,5.29,5.29,0,0,0,1.64-2.63l1.86-6.94,6.91,1.85a5.21,5.21,0,0,0,3.15-.13A41,41,0,0,1,44,12.79a5.27,5.27,0,0,0,2.66-1.44l5.1-5.09,5.09,5.09a5.35,5.35,0,0,0,2.67,1.44,39.08,39.08,0,0,1,5.31,1.59A5.29,5.29,0,0,0,68,14.5l6.91-1.85,1.87,6.94a5.29,5.29,0,0,0,1.64,2.63,41.36,41.36,0,0,1,3.86,3.86,5.29,5.29,0,0,0,2.63,1.64l6.94,1.87L90,36.5a5.29,5.29,0,0,0,.12,3.15A39.08,39.08,0,0,1,91.73,45a5.27,5.27,0,0,0,1.44,2.67l3.66,3.65A2,2,0,0,1,96.83,54.16Z"/><path class="cls-1" d="M51.58,18.38A34.34,34.34,0,1,0,85.92,52.72,34.38,34.38,0,0,0,51.58,18.38Zm0,62.5A28.16,28.16,0,1,1,79.74,52.72,28.19,28.19,0,0,1,51.58,80.88Z"/><path class="cls-1" d="M65.68,44H58.23l-2.3-7.09a4.57,4.57,0,0,0-8.69,0L44.94,44H37.49a4.57,4.57,0,0,0-2.69,8.26l6,4.38-2.3,7.09a4.56,4.56,0,0,0,7,5.1l6-4.37,6,4.37a4.51,4.51,0,0,0,2.69.88,4.57,4.57,0,0,0,4.34-6l-2.3-7.09,6-4.38A4.57,4.57,0,0,0,65.68,44Zm-7.92,8.33a4.56,4.56,0,0,0-1.66,5.11l1.13,3.48-3-2.15a4.55,4.55,0,0,0-5.37,0l-3,2.15,1.13-3.48a4.58,4.58,0,0,0-1.66-5.11l-3-2.15h3.66A4.55,4.55,0,0,0,50.45,47l1.13-3.48L52.71,47a4.57,4.57,0,0,0,4.35,3.16h3.66Z"/></g></g></svg>