<svg xmlns="http://www.w3.org/2000/svg" viewBox="0 0 884.43 136.79"><defs><style>.cls-1{fill:#f1f1f1;}</style></defs><g id="Layer_2" data-name="Layer 2"><g id="testimonial"><g id="watermark"><path class="cls-1" d="M21.41,22H0V1.7H62.86V22H41.55V135.19H21.41Z"/><path class="cls-1" d="M86.55,135.19V1.6h57.31V21.84H106.68V58.27h27.17V78.52H106.68V115h37.18v20.24Z"/><path class="cls-1" d="M231.79,102q.22,14-7.24,23.87a26.13,26.13,0,0,1-13.85,9.48,37.91,37.91,0,0,1-11.19,1.49q-11.82,0-19.6-5.86a32.84,32.84,0,0,1-10.28-13.05A52.75,52.75,0,0,1,165.21,99l19.18-1.39q1.28,11.69,6.18,16.92a10.25,10.25,0,0,0,8.31,3.75q6.6-.21,10.54-6.5,2-3.09,2-8.85,0-8.33-7.57-16.53l-17.9-17Q176,59.72,171.82,52a40.14,40.14,0,0,1-4.48-18.77q0-18.24,12.25-27.62Q187.15,0,198.34,0q10.77,0,18.43,4.79a27.73,27.73,0,0,1,9.64,10.44,38.75,38.75,0,0,1,4.43,15.45L211.55,34.2q-.86-8.21-4.68-12.79c-1.85-2.2-4.52-3.3-8-3.3a9.22,9.22,0,0,0-8.42,4.9,18.94,18.94,0,0,0-2.34,9.8q0,9.16,7.88,18.65A67,67,0,0,0,205,60c4.69,3.9,7.77,6.64,9.27,8.2a68.31,68.31,0,0,1,11.5,14.7,56.31,56.31,0,0,1,3.09,6.29A36.52,36.52,0,0,1,231.79,102Z"/><path class="cls-1" d="M274.56,22H253.14V1.7H316V22H294.69V135.19H274.56Z"/><path class="cls-1" d="M359.82,135.19H339.69V1.7h20.13Z"/><path class="cls-1" d="M405.46,135.19H385.33V1.6h28.89l18.77,96,18-96h27.76V135.19H458.62V51.24l-17.47,83.95H425l-19.5-83.73Z"/><path class="cls-1" d="M535.79,0a30.73,30.73,0,0,1,22.64,9.38A30.82,30.82,0,0,1,567.75,32v72.87a31.91,31.91,0,1,1-63.81,0V32a30.71,30.71,0,0,1,9.38-22.64A30.74,30.74,0,0,1,535.79,0Zm11,31.53A11.46,11.46,0,0,0,535.26,20a11.29,11.29,0,0,0-8.2,3.35,11,11,0,0,0-3.41,8.15v73.09a11,11,0,0,0,3.41,8.15,11.29,11.29,0,0,0,8.2,3.35,11.46,11.46,0,0,0,11.51-11.5Z"/><path class="cls-1" d="M615.54,1.6l26.72,89.78V1.6H662.4V135.19H640.77l-27.7-85.55v85.55H592.94V1.6Z"/><path class="cls-1" d="M708,135.19H687.9V1.7H708Z"/><path class="cls-1" d="M758.22,104.51l-4.89,30.68h-21L755.06,1.7h27.7l22.37,133.49H784l-4.71-30.68ZM768.8,32.28l-7.46,52.63h14.92Z"/><path class="cls-1" d="M884.43,135.19H829.56V1.7H849.7V115.16h34.73Z"/></g></g></g></svg>