<svg xmlns="http://www.w3.org/2000/svg" viewBox="0 0 36.16 36.16"><defs><style>.cls-1{fill:#fff;}</style></defs><g id="Layer_2" data-name="Layer 2"><g id="second"><g id="account-circle"><path class="cls-1" d="M18.08,0A18.08,18.08,0,1,0,36.16,18.08,18.14,18.14,0,0,0,18.08,0Zm0,5.42a5.33,5.33,0,0,1,5.42,5.43,5.32,5.32,0,0,1-5.42,5.42,5.32,5.32,0,0,1-5.42-5.42A5.33,5.33,0,0,1,18.08,5.42Zm0,25.68A13.19,13.19,0,0,1,7.23,25.31c0-3.61,7.23-5.6,10.85-5.6s10.85,2,10.85,5.6A13.19,13.19,0,0,1,18.08,31.1Z"/></g></g></g></svg>