<svg xmlns="http://www.w3.org/2000/svg" viewBox="0 0 26.94 26.94"><defs><style>.cls-1{stroke:#000;stroke-miterlimit:10;stroke-width:0.25px;}</style></defs><g id="Layer_2" data-name="Layer 2"><g id="second"><g id="wish"><path class="cls-1" d="M19.59,26.81a.53.53,0,0,1-.34-.11c-.28-.21-6.89-5.19-6.89-9.19A4,4,0,0,1,19.59,15a4,4,0,0,1,7.22,2.48c0,4-6.61,9-6.89,9.19A.52.52,0,0,1,19.59,26.81ZM16.4,14.58a2.93,2.93,0,0,0-2.93,2.93c0,2.7,4.14,6.5,6.12,8,2-1.55,6.11-5.35,6.11-8a2.92,2.92,0,0,0-5.6-1.17.56.56,0,0,1-.51.33.54.54,0,0,1-.51-.33,2.93,2.93,0,0,0-2.68-1.76Z"/><path class="cls-1" d="M9.58,20.14H1.79A1.67,1.67,0,0,1,.12,18.47a2.48,2.48,0,0,1,0-.27L3.49,1.46A1.68,1.68,0,0,1,5.13.12H17.36A1.68,1.68,0,0,1,19,1.46l1.93,9.68a.55.55,0,0,1-.44.65.56.56,0,0,1-.65-.44L17.91,1.68a.55.55,0,0,0-.55-.44H5.13a.56.56,0,0,0-.55.44L1.25,18.36a.41.41,0,0,0,0,.11.56.56,0,0,0,.55.56H9.58a.56.56,0,0,1,0,1.11Z"/><path class="cls-1" d="M24.83,11.8a.55.55,0,0,1-.54-.45L22.36,1.68a.57.57,0,0,0-.55-.44H17.36a.55.55,0,0,1-.55-.56.54.54,0,0,1,.55-.55h4.45a1.67,1.67,0,0,1,1.64,1.33l1.93,9.68a.55.55,0,0,1-.44.65Z"/><path class="cls-1" d="M11.25,10.13A4.44,4.44,0,0,1,6.8,5.69V2.91a.56.56,0,1,1,1.11,0V5.69a3.34,3.34,0,0,0,6.67,0V2.91a.56.56,0,1,1,1.11,0V5.69A4.44,4.44,0,0,1,11.25,10.13Z"/></g></g></g></svg>