<?xml version="1.0" encoding="UTF-8" standalone="no"?>
<!-- Created with Inkscape (http://www.inkscape.org/) -->

<svg
   xmlns:dc="http://purl.org/dc/elements/1.1/"
   xmlns:cc="http://creativecommons.org/ns#"
   xmlns:rdf="http://www.w3.org/1999/02/22-rdf-syntax-ns#"
   xmlns:svg="http://www.w3.org/2000/svg"
   xmlns="http://www.w3.org/2000/svg"
   xmlns:sodipodi="http://sodipodi.sourceforge.net/DTD/sodipodi-0.dtd"
   xmlns:inkscape="http://www.inkscape.org/namespaces/inkscape"
   id="svg3406"
   version="1.1"
   inkscape:version="0.91 r13725"
   width="455.12164"
   height="606.29272"
   viewBox="0 0 455.12164 606.29272"
   sodipodi:docname="silhouette-basket-04.svg">
  <title
     id="title3340">Silhouette Basket 04</title>
  <metadata
     id="metadata3412">
    <rdf:RDF>
      <cc:Work
         rdf:about="">
        <dc:format>image/svg+xml</dc:format>
        <dc:type
           rdf:resource="http://purl.org/dc/dcmitype/StillImage" />
        <dc:title>Silhouette Basket 04</dc:title>
        <cc:license
           rdf:resource="http://creativecommons.org/publicdomain/zero/1.0/" />
        <dc:date>2017-03-19</dc:date>
        <dc:creator>
          <cc:Agent>
            <dc:title>JLouis</dc:title>
          </cc:Agent>
        </dc:creator>
        <dc:rights>
          <cc:Agent>
            <dc:title>Domaine pubic</dc:title>
          </cc:Agent>
        </dc:rights>
        <dc:publisher>
          <cc:Agent>
            <dc:title>inkscape</dc:title>
          </cc:Agent>
        </dc:publisher>
        <dc:subject>
          <rdf:Bag>
            <rdf:li>silhouette</rdf:li>
            <rdf:li>Basketball</rdf:li>
            <rdf:li>player</rdf:li>
            <rdf:li>sport</rdf:li>
            <rdf:li>basket</rdf:li>
            <rdf:li>joueurs</rdf:li>
          </rdf:Bag>
        </dc:subject>
        <dc:description>Basketball player in silhouette - Joueur de basket en silhouette</dc:description>
      </cc:Work>
      <cc:License
         rdf:about="http://creativecommons.org/publicdomain/zero/1.0/">
        <cc:permits
           rdf:resource="http://creativecommons.org/ns#Reproduction" />
        <cc:permits
           rdf:resource="http://creativecommons.org/ns#Distribution" />
        <cc:permits
           rdf:resource="http://creativecommons.org/ns#DerivativeWorks" />
      </cc:License>
    </rdf:RDF>
  </metadata>
  <defs
     id="defs3410" />
  <sodipodi:namedview
     pagecolor="#ffffff"
     bordercolor="#666666"
     borderopacity="1"
     objecttolerance="10"
     gridtolerance="10"
     guidetolerance="10"
     inkscape:pageopacity="0"
     inkscape:pageshadow="2"
     inkscape:window-width="1235"
     inkscape:window-height="756"
     id="namedview3408"
     showgrid="false"
     fit-margin-top="0"
     fit-margin-left="0"
     fit-margin-right="0"
     fit-margin-bottom="0"
     inkscape:zoom="0.93004115"
     inkscape:cx="219.35194"
     inkscape:cy="312.17699"
     inkscape:window-x="0"
     inkscape:window-y="0"
     inkscape:window-maximized="1"
     inkscape:current-layer="svg3406" />
  <g
     id="g3416"
     transform="translate(-1.2465139,0.04269822)">
    <path
       style="fill:#d1e9f9"
       d="m 412.01701,601.39542 c -2.98856,-3.06055 -6.29315,-5.10655 -8.94217,-5.53642 -5.04619,-0.81889 -10.93312,-6.70143 -14.59477,-14.58391 -3.53873,-7.61787 -15.49382,-20.02509 -19.29534,-20.02509 -2.25674,0 -2.93473,-0.68659 -2.93473,-2.97195 0,-1.63456 -0.88674,-3.70786 -1.97052,-4.60733 -1.39453,-1.15735 -1.75018,-2.81001 -1.21669,-5.65375 0.65271,-3.47923 -0.0853,-5.0832 -5.50053,-11.95516 -7.86802,-9.98455 -7.17445,-9.22879 -15.52445,-16.91595 C 338.16701,515.58234 335,512.06671 335,511.33336 335,510.60001 334.24852,510 333.33005,510 c -0.91846,0 -3.61655,-2.10938 -5.99574,-4.6875 -2.37918,-2.57813 -10.76833,-10.48381 -18.64255,-17.5682 -23.61456,-21.24586 -32.72312,-31.07029 -39.39087,-42.48671 -1.32263,-2.26456 -6.34703,-6.73383 -11.16533,-9.93168 -14.33292,-9.51258 -24.80053,-18.34596 -28.67567,-24.19872 -2.00365,-3.0262 -5.02148,-7.6017 -6.70626,-10.16778 -1.6848,-2.56607 -3.5225,-4.38176 -4.08379,-4.03487 -1.00558,0.62149 0.811,7.51442 2.62235,9.95046 0.5112,0.6875 1.25549,5.1875 1.65399,10 1.37142,16.56223 2.85683,22.67535 9.35956,38.51888 0.79434,1.93537 1.44426,4.33992 1.44426,5.34343 0,1.00352 1.427,2.36712 3.17113,3.03023 4.39765,1.67199 15.06008,12.59686 17.23957,17.6639 0.99209,2.30646 4.34854,6.65151 7.4588,9.65567 l 5.65501,5.4621 4.29323,-3.2746 c 4.97901,-3.79767 10.94576,-4.24927 18.13535,-1.37256 5.42832,2.17198 9.76507,9.20041 10.78132,17.47295 1.9451,15.83363 4.92162,28.78913 8.36255,36.3987 7.19064,15.90194 9.885,25.47064 9.89433,35.1385 0.01,10.20165 -2.32603,17.40641 -6.94561,21.42309 -4.50323,3.91551 -14.56003,3.71322 -19.95453,-0.40136 -7.90542,-6.02977 -16.10325,-21.07208 -19.99486,-36.68889 -0.90869,-3.64648 -2.23366,-7.33064 -2.94439,-8.18701 -0.71074,-0.85639 -1.68249,-3.99748 -2.15945,-6.98022 -0.47695,-2.98272 -1.90787,-6.3142 -3.17982,-7.40327 -1.27194,-1.08908 -2.31263,-2.71654 -2.31263,-3.61658 0,-0.90002 -0.78062,-1.93597 -1.73474,-2.3021 -0.9541,-0.36612 -2.08577,-2.42094 -2.51484,-4.56625 -1.19067,-5.95336 -4.12903,-8.43691 -10.00666,-8.4578 -8.37025,-0.0298 -23.38331,-6.36943 -30.58082,-12.91362 -3.37815,-3.07152 -8.91294,-11.36047 -8.91294,-13.3481 0,-0.73129 -2.68423,-4.53934 -5.96495,-8.46235 -3.28073,-3.923 -7.0776,-8.48427 -8.4375,-10.13613 -13.09764,-15.90962 -21.04459,-23.8982 -23.11878,-23.23987 -2.64998,0.84107 -8.67446,-5.04928 -12.12151,-11.85163 -1.22775,-2.42281 -3.77914,-6.75646 -5.66976,-9.63034 -1.89063,-2.87386 -3.4375,-6.06421 -3.4375,-7.08967 0,-1.02545 -2.53125,-5.63921 -5.625,-10.2528 -3.09375,-4.61359 -5.625,-8.63045 -5.625,-8.92635 0,-1.44915 -21.73917,-33.08286 -23.66838,-34.44101 -1.22264,-0.86072 -2.66677,-2.96903 -3.20919,-4.68514 -0.54242,-1.71611 -1.68117,-3.68486 -2.53055,-4.375 -0.84938,-0.69014 -2.72932,-5.12425 -4.17765,-9.85359 -2.07104,-6.76272 -3.83771,-9.76934 -8.273779,-14.08079 -3.356699,-3.26241 -5.643569,-6.61335 -5.648152,-8.27621 -0.0042,-1.53682 -0.847985,-4.40539 -1.875,-6.3746 -2.399415,-4.60066 -2.35689,-6.93177 0.177543,-9.73229 1.765485,-1.95083 1.836413,-3.00396 0.519173,-7.70868 -1.486334,-5.30867 -1.225566,-17.53727 0.628129,-29.45594 1.177972,-7.57399 -2.553938,-18.53148 -7.296709,-21.4243 -2.74535,-1.6745 -4.591666,-1.89244 -8.75,-1.03284 -13.756736,2.84375 -21.989408,3.51103 -43.605986,3.5343 L 6.4538988,260 3.8519494,255.78996 C 1.6445646,252.21834 1.25,249.57122 1.25,238.33364 c 0,-8.3473 0.6774166,-15.24155 1.8316603,-18.6413 1.0074132,-2.96727 2.6642832,-10.1588 3.6819334,-15.98119 3.1964556,-18.2882 5.2010343,-25.47908 9.2402573,-33.1469 4.215938,-8.00329 6.416795,-15.93551 6.465591,-23.30298 0.01681,-2.53755 0.529292,-4.92196 1.138854,-5.2987 0.609563,-0.37672 1.50162,-2.78156 1.982349,-5.34406 0.480729,-2.5625 1.950746,-6.17117 3.266704,-8.01927 1.315958,-1.84809 2.392651,-3.83973 2.392651,-4.42586 0,-1.68967 8.365205,-8.91606 13.469907,-11.63614 C 52.562164,108.35842 55,105.62754 55,101.02139 c 0,-3.490138 0.688936,-4.54865 4.0625,-6.241803 9.521293,-4.778626 15.644496,-7.280968 19.717493,-8.057858 2.389753,-0.455827 5.863948,-1.59219 7.720432,-2.525252 C 88.356909,83.263415 91.34794,82.5 93.14716,82.5 c 2.814609,0 3.150936,-0.392647 2.409089,-2.8125 -0.474221,-1.546875 -1.290175,-3.375 -1.81323,-4.0625 C 92.011127,73.348615 90,61.249755 90,53.107157 90,48.696274 89.102871,42.444939 88.006381,39.215302 86.578981,35.010991 86.256456,31.392787 86.87079,26.475822 87.615631,20.514315 88.53113,18.760081 93.81091,13.177491 102.8719,3.5968272 109.59165,0.60851223 121.875,0.69720873 c 10.45854,0.0755198 17.76219,2.72987667 23.88207,8.67942187 3.47689,3.3801204 7.69167,14.4900054 9.24654,24.3733694 0.70305,4.46875 1.61513,9.945925 2.02685,12.1715 1.02478,5.539414 -0.0623,9.081056 -4.50221,14.667959 -2.1488,2.703901 -3.77825,6.246151 -3.77825,8.213476 0,3.28482 0.23981,3.427008 4.75801,2.820991 3.39061,-0.454777 6.16935,0.118263 9.66899,1.993945 2.70104,1.447671 6.76149,2.632129 9.02321,2.632129 2.26174,0 7.22299,1.09334 11.02503,2.429645 3.85651,1.355456 12.27056,2.782833 19.03126,3.228501 18.3013,1.20643 30.42921,5.775199 40.1642,15.130466 3.1033,2.982248 5.87911,4.337878 10,4.883718 8.45756,1.12025 20.93099,5.12381 25.00759,8.0266 1.97045,1.40309 3.88947,2.55107 4.26451,2.55107 0.37502,0 3.187,1.69069 6.24882,3.75709 3.06183,2.0664 6.40813,3.4343 7.43623,3.03978 1.0281,-0.39451 2.24061,-0.11646 2.69449,0.61791 0.45386,0.73437 2.36906,1.33522 4.256,1.33522 5.39038,0 15.63432,5.69535 17.36956,9.65701 0.83545,1.90739 3.16974,5.99924 5.1873,9.09299 5.36141,8.22125 5.16561,14.34176 -0.70673,22.09175 -2.51433,3.31829 -5.18621,6.4279 -5.9375,6.91024 -3.97925,2.55479 -8.35665,6.35196 -18.08228,15.68551 C 294.24854,190.35937 288.52164,195 287.43224,195 c -1.0894,0 -4.9964,2.25 -8.68224,5 -3.68584,2.75 -7.11191,5 -7.61351,5 -2.09607,0 -13.63649,10.22214 -13.63649,12.07876 0,2.33183 -3.4932,5.32336 -6.28393,5.38149 -1.04991,0.0219 -3.64773,1.62791 -5.77296,3.569 l -3.86404,3.52926 3.56499,4.28324 c 6.31581,7.5883 9.85594,15.58846 9.85594,22.273 0,5.33125 -0.69437,7.0392 -5.15709,12.68495 -6.13181,7.75732 -7.39242,15.39273 -4.15207,25.14851 1.09527,3.29759 1.67165,6.51303 1.28081,7.14541 -0.39085,0.63239 0.17367,5.84815 1.25449,11.59059 1.08081,5.74244 1.90886,12.20365 1.8401,14.35828 -0.078,2.4447 0.59093,4.19222 1.77937,4.64826 1.04741,0.40194 1.90439,1.67661 1.90439,2.83262 0,3.86758 6.82881,15.78424 10.93746,19.0865 2.23435,1.79582 4.06248,3.88905 4.0625,4.65164 3e-5,0.76259 -2.30294,4.00284 -5.11769,7.20057 -4.60302,5.2293 -4.99283,6.17232 -3.87587,9.37642 3.81927,10.956 14.13856,21.56676 28.96116,29.77919 18.20143,10.08446 31.64071,23.22083 50.33963,49.20502 6.65026,9.24127 12.53607,17.36479 13.0796,18.05229 0.54351,0.6875 2.39446,4.30125 4.11321,8.03056 1.71875,3.72931 4.53125,8.5876 6.25,10.79619 1.71875,2.20859 3.96875,5.27149 5,6.80645 4.21591,6.27519 14.49957,19.46481 16.25,20.84194 1.0564,0.83111 2.05805,0.96415 2.29426,0.30471 0.66968,-1.8695 2.70574,0.0213 2.70574,2.51267 0,1.47547 1.20315,2.51187 3.4375,2.96107 1.91552,0.3851 7.58834,4.6206 12.8125,9.56622 9.08986,8.60521 19.50735,16.25345 31.38795,23.04416 3.16961,1.81169 8.93524,6.61982 12.8125,10.68472 6.61059,6.93051 7.04955,7.7739 7.04955,13.54447 l 0,6.15375 -10.6579,7.23924 c -14.64389,9.94669 -18.57824,11.88885 -24.08389,11.88885 -3.87186,0 -5.62787,-0.89816 -9.4912,-4.85458 z M 65,225.68599 c 0,-7.27627 -3.734103,-17.293 -7.985964,-21.42235 -3.174355,-3.0829 -4.596005,-3.77227 -5.469447,-2.65215 -1.851534,2.37442 -10.546175,21.05358 -10.036915,21.56285 0.834414,0.83441 17.821099,5.30345 20.679826,5.44066 C 64.375954,228.72 65,228.07015 65,225.68599 Z M 241.25,195 c 0,-0.6875 0.84412,-1.25 1.87583,-1.25 2.60606,0 20.58137,-18.8648 20.60494,-21.62458 0.0224,-2.6142 3.10844,-8.94896 6.44598,-13.23149 2.32185,-2.97928 3.15581,-6.6522 1.38575,-6.10309 -0.92894,0.28817 -10.72063,-2.42033 -21.5625,-5.96444 -3.09375,-1.01133 -6.41427,-1.83599 -7.37895,-1.83259 -2.49891,0.009 -17.26458,-7.10425 -23.62121,-11.37905 C 216.0435,131.62664 213.44267,130 213.22024,130 c -0.86665,0 -8.14412,16.32514 -9.46621,21.23507 -1.24059,4.60717 -1.08416,5.70687 1.39263,9.79005 1.60163,2.64039 3.36459,8.57411 4.13855,13.92934 1.51002,10.4482 -0.0229,8.99303 17.58979,16.69743 10.39831,4.54857 14.375,5.47478 14.375,3.34811 z"
       id="path3430"
       inkscape:connector-curvature="0" />
    <path
       style="fill:#aed9f7"
       d="m 411.875,601.25 c -2.6853,-2.75 -6.08086,-5 -7.5457,-5 -3.8075,0 -12.37256,-8.38751 -16.05807,-15.72521 -3.57202,-7.1117 -14.33723,-18.31323 -18.57153,-19.32423 -1.89834,-0.45325 -2.95152,-1.75555 -3.2114,-3.97102 -0.21269,-1.81313 -1.19706,-3.96913 -2.1875,-4.79113 -2.05841,-1.70832 -2.41868,-4.93841 -0.5508,-4.93841 0.6875,0 1.25,-0.58664 1.25,-1.30364 0,-1.78907 -10.03559,-14.94636 -11.40019,-14.94636 -0.6049,0 -1.09981,-0.7577 -1.09981,-1.68379 0,-0.92609 -2.9176,-4.16046 -6.48355,-7.1875 -3.56595,-3.02704 -7.36283,-6.48942 -8.4375,-7.6942 -1.07468,-1.20476 -3.31399,-3.45476 -4.97626,-5 -1.66228,-1.54522 -6.79792,-6.46576 -11.41254,-10.93451 -4.61461,-4.46875 -11.65271,-10.9375 -15.64023,-14.375 C 291.69,472.42682 276.25,456.38357 276.25,453.9303 c 0,-0.73829 -1.125,-1.94442 -2.5,-2.6803 -1.375,-0.73588 -2.5,-2.08606 -2.5,-3.00041 0,-3.24633 -5.39731,-8.43485 -16.45764,-15.821 -12.96706,-8.65948 -13.45601,-9.03805 -19.56946,-15.15149 -5.61003,-5.61004 -6.58475,-6.8758 -8.9729,-11.6521 -1.03125,-2.0625 -2.57813,-4.4933 -3.4375,-5.40179 -0.85938,-0.90847 -1.5625,-2.1741 -1.5625,-2.8125 0,-0.63838 -0.84375,-1.16071 -1.875,-1.16071 -2.2904,0 -2.2904,-0.2417 0,6.25 1.03125,2.92287 1.875,8.78735 1.875,13.03216 0,4.24481 0.59336,8.3112 1.31859,9.03643 0.72521,0.72521 1.85087,5.07726 2.50145,9.6712 0.65058,4.59393 1.97076,9.59746 2.93372,11.11891 0.96296,1.52146 2.15355,4.69255 2.64575,7.04685 1.32895,6.35665 4.57961,11.45551 8.76054,13.74144 5.62014,3.0728 10.04576,7.69725 13.39558,13.99738 3.21953,6.05512 12.49838,16.10563 14.86907,16.10563 0.78358,0 2.10554,-0.9311 2.93768,-2.06913 1.98321,-2.71221 14.2872,-3.79353 19.34182,-1.69985 5.99359,2.48263 9.68019,10.23988 10.71854,22.55362 0.49117,5.8247 1.30028,11.15286 1.79803,11.84036 0.49776,0.6875 1.62857,4.76562 2.51292,9.0625 0.88436,4.29687 2.00452,7.8125 2.48926,7.8125 0.48473,0 1.5854,2.34996 2.44593,5.22212 0.86051,2.87218 2.32737,6.3878 3.25967,7.8125 0.9323,1.42472 2.07866,4.99347 2.54746,7.93058 0.4688,2.93711 1.34099,5.64219 1.93818,6.01127 1.44564,0.89345 1.39654,17.4688 -0.0599,20.22799 -0.63015,1.1938 -1.80703,3.9592 -2.61531,6.14534 -1.52121,4.1144 -7.43461,7.9002 -12.34006,7.9002 -5.24183,0 -12.07371,-3.94118 -15.94724,-9.19963 C 282.05914,589.498 275,576.55298 275,574.34193 c 0,-0.85589 -0.84029,-3.16733 -1.8673,-5.13654 -1.02701,-1.96922 -1.87076,-5.0021 -1.875,-6.73975 -0.004,-1.73766 -0.77164,-4.26891 -1.70535,-5.625 -0.9337,-1.3561 -2.10003,-4.65941 -2.59183,-7.3407 -0.4918,-2.68129 -2.51496,-6.90004 -4.49592,-9.375 -1.98095,-2.47496 -4.52905,-6.73047 -5.66243,-9.45665 -2.71056,-6.51988 -5.0009,-8.08065 -11.92815,-8.12854 -5.39138,-0.0372 -13.47126,-2.0374 -14.87402,-3.682 -0.34375,-0.40301 -2.6098,-1.64863 -5.03568,-2.76803 -7.26731,-3.35343 -12.14668,-8.29622 -15.56883,-15.7712 -1.78043,-3.88895 -4.04339,-7.94217 -5.02883,-9.00717 -7.74524,-8.37064 -13.07769,-14.55695 -13.09549,-15.19245 -0.0113,-0.41586 -2.4118,-3.33269 -5.33367,-6.48184 -2.92188,-3.14916 -7.12378,-7.73079 -9.33756,-10.1814 C 174.16599,456.76132 171.41721,455 169.6463,455 c -3.83026,0 -8.5197,-5.18279 -12.54119,-13.86054 -1.7805,-3.84205 -4.10754,-7.7078 -5.17119,-8.59056 C 150.87026,431.66614 150,429.83586 150,428.4816 c 0,-1.35425 -1.125,-3.89249 -2.5,-5.64051 -1.375,-1.74803 -2.5,-3.94613 -2.5,-4.88467 0,-0.93853 -0.42188,-1.71705 -0.9375,-1.73003 -0.51563,-0.013 -2.625,-2.87254 -4.6875,-6.35456 -2.0625,-3.48203 -4.45313,-7.08747 -5.3125,-8.0121 -0.85938,-0.92464 -1.5625,-2.09012 -1.5625,-2.58995 0,-0.49984 -1.40625,-2.75249 -3.125,-5.00589 -1.71875,-2.2534 -3.125,-4.43989 -3.125,-4.85886 0,-1.2201 -9.41042,-13.55132 -12.33327,-16.16127 -1.4667,-1.30967 -2.66673,-3.06194 -2.66673,-3.89392 0,-0.83198 -1.05712,-2.8566 -2.34916,-4.49916 -1.29203,-1.64257 -3.35112,-6.55744 -4.57574,-10.92197 -1.78507,-6.36194 -3.42612,-9.11625 -8.275844,-13.89009 C 91.536575,335.59658 90,333.14976 90,330.40594 c 0,-2.02297 -0.82586,-4.77 -1.835246,-6.10453 -2.428129,-3.21027 -2.387202,-6.41279 0.09974,-7.80455 1.728495,-0.96732 1.861593,-2.43501 0.9375,-10.33796 -0.623477,-5.33206 -0.590862,-14.91233 0.07745,-22.75089 1.074294,-12.60017 0.968889,-13.92224 -1.51813,-19.04126 -4.30944,-8.87013 -6.333741,-9.61973 -19.6443,-7.27423 -6.657602,1.17315 -21.454572,2.19808 -36.285495,2.51335 L 6.7880392,260.13824 3.9386081,255.06836 C 1.3561184,250.47342 1.1419027,248.79828 1.6519355,237.18674 1.9614486,230.14029 3.4199134,219.3125 4.8929682,213.125 c 1.4730549,-6.1875 3.4950008,-15.75 4.4932129,-21.25 1.8420439,-10.14939 4.4304729,-17.47322 8.1729539,-23.125 1.890471,-2.85493 4.127434,-11.44039 7.346324,-28.19519 1.89351,-9.856 9.390465,-21.64853 15.545726,-24.45306 1.814348,-0.82667 3.298815,-1.93734 3.298815,-2.46816 0,-0.53082 1.056216,-1.30035 2.347148,-1.71008 4.553054,-1.44508 8.724088,-6.2214 9.129664,-10.45453 0.336057,-3.507539 1.275883,-4.604854 6.023188,-7.032506 9.819407,-5.021399 14.240551,-6.847509 19.375,-8.002649 8.859496,-1.993196 15.62572,-4.509531 15.597547,-5.800674 C 96.207449,79.941169 95.025824,76.84375 93.596714,73.75 91.66416,69.566389 90.82832,64.601604 90.33486,54.375 89.956805,46.540072 88.93547,39.172935 87.960694,37.249575 85.76225,32.911755 85.824369,29.464539 88.22648,22.5 90.856316,14.875209 97.744764,8.069231 107.45485,3.5018351 c 6.95801,-3.27288313 9.07399,-3.71042652 15.23991,-3.15132021 13.65679,1.23835351 26.00158,9.48421811 27.96869,18.68204111 0.48137,2.250844 1.33468,4.666669 1.89622,5.368499 1.59868,1.998074 4.04513,22.907849 3.31613,28.34294 -0.40984,3.055574 -1.86975,6.015485 -3.89088,7.88861 -2.45332,2.273664 -3.23492,4.220505 -3.23492,8.057709 0,2.782827 0.5625,5.059686 1.25,5.059686 0.6875,0 1.25,-0.5625 1.25,-1.25 0,-2.082595 7.0905,-1.401771 11.49105,1.10336 2.27367,1.294347 6.94645,2.664662 10.38395,3.045145 3.4375,0.380481 7.9375,1.515659 10,2.522616 2.0625,1.006959 9.375,2.1888 16.25,2.626316 19.04809,1.212193 32.88819,6.132754 42.15159,14.986113 3.94792,3.77318 8.4708,5.71645 13.30478,5.71645 1.88024,0 3.953,0.47349 4.60613,1.05219 0.65313,0.57871 4.42187,1.74405 8.375,2.58965 3.95312,0.8456 7.1875,1.95543 7.1875,2.46629 0,0.51086 1.82812,1.89984 4.0625,3.08662 5.99434,3.18388 9.2143,5.11052 11.11669,6.65159 0.9327,0.75555 4.78956,1.78546 8.57081,2.28869 9.41302,1.25272 18.2197,5.90175 20.9376,11.05291 1.20307,2.28014 3.27596,6.20814 4.60641,8.72889 1.33046,2.52075 2.87734,4.58317 3.4375,4.58317 0.56018,0 1.01849,2.30379 1.01849,5.11954 0,7.07692 -5.09523,14.12769 -16.4645,22.78352 -2.52421,1.92179 -8.80235,7.67978 -13.95141,12.79555 -5.67657,5.63987 -10.3946,9.30139 -11.98524,9.30139 -1.44283,0 -3.58658,1.125 -4.76389,2.5 -1.17731,1.375 -2.55307,2.5 -3.05725,2.5 -0.50417,0 -3.05105,1.41656 -5.6597,3.14793 -2.60866,1.73134 -5.81001,3.84072 -7.11411,4.6875 -4.407,2.8615 -9.25549,8.07641 -9.70626,10.4398 -0.25885,1.35713 -1.71703,2.5298 -3.45183,2.77593 -1.652,0.23439 -5.02126,2.36133 -7.48722,4.72654 -4.03283,3.86803 -4.26367,4.42836 -2.29609,5.57345 1.20312,0.70019 2.1875,2.10653 2.1875,3.12519 0,1.01867 0.79225,2.15614 1.76055,2.52771 0.96831,0.37158 2.48325,2.4633 3.36654,4.64828 0.88328,2.18496 2.20041,4.37403 2.92695,4.86458 0.72652,0.49054 1.32096,4.60824 1.32096,9.15043 0,6.56556 -0.44843,8.50946 -2.1875,9.4827 -1.20313,0.6733 -2.1875,1.83486 -2.1875,2.58123 0,0.74638 -1.33724,2.59637 -2.97164,4.11108 -2.66261,2.46762 -2.93371,3.65247 -2.60689,11.39334 0.48312,11.44225 2.82018,29.90723 4.57404,36.13931 0.77393,2.75 1.28419,6.45115 1.13391,8.22477 -0.15026,1.77363 0.60289,3.95188 1.67368,4.84057 1.0708,0.88867 1.9469,2.40935 1.9469,3.37927 0,3.48659 6.1779,13.8581 10.5318,17.68088 l 4.44235,3.90043 -2.61055,4.42454 c -1.4358,2.4335 -3.09769,4.42454 -3.69309,4.42454 -2.7143,0 -3.95507,5.35021 -2.36097,10.18041 0.87484,2.65078 1.99484,4.81959 2.48888,4.81959 0.49406,0 1.54216,1.54687 2.32912,3.4375 0.78696,1.89062 2.83456,4.5625 4.55023,5.9375 1.71568,1.375 5.08729,4.32765 7.49248,6.56146 2.4052,2.2338 7.43494,5.69535 11.17721,7.69234 8.27789,4.41734 14.68426,8.81265 16.02715,10.99597 0.54979,0.89388 1.57039,1.62523 2.26799,1.62523 0.6976,0 5.31027,4.18765 10.25039,9.30587 10.1858,10.55308 10.02262,10.35987 15.89401,18.81913 2.3859,3.4375 5.04112,6.69982 5.9005,7.24961 0.85937,0.54979 1.5625,1.59359 1.5625,2.31955 0,1.1604 2.11991,4.20681 7.76685,11.16136 2.18381,2.6895 4.42932,6.54087 9.41291,16.14448 2.31896,4.46875 5.02718,8.74951 6.01827,9.5128 0.99108,0.7633 1.80197,1.83852 1.80197,2.3894 0,1.01631 13.31979,18.87249 17.93907,24.04867 1.88786,2.11545 2.77336,2.4297 3.52225,1.25 0.67247,-1.0593 1.00667,-0.65392 1.01954,1.23663 0.0113,1.67461 0.78778,2.8125 1.91898,2.8125 1.04491,0 3.99803,1.34574 6.5625,2.99052 4.18577,2.68467 5.80882,4.09807 11.20987,9.76197 4.35445,4.56637 19.44609,15.99751 21.12027,15.99751 2.24507,0 18.38583,12.06115 22.91941,17.12649 4.43217,4.95205 5.03811,6.36537 5.03811,11.75127 0,3.36724 -0.43393,6.12224 -0.96426,6.12224 -0.53035,0 -4.85324,2.8352 -9.60642,6.30045 -11.07416,8.07349 -19.82778,12.44955 -24.90333,12.44955 -3.04133,0 -5.20598,-1.21596 -8.90099,-5 z M 64.156677,221.74467 C 63.908077,213.35295 60.87542,205 58.077286,205 57.038246,205 55.653467,203.59375 55,201.875 c -1.671219,-4.39564 -3.31067,-3.8895 -5.061094,1.5625 -0.827736,2.57812 -2.211076,5.53125 -3.07409,6.5625 -0.863012,1.03125 -1.98343,3.28125 -2.489816,5 -0.506386,1.71875 -1.753021,4.07392 -2.770303,5.23374 -2.761546,3.14844 -1.329906,4.1916 8.054147,5.86862 4.686635,0.83755 9.35253,2.048 10.368656,2.68991 3.351716,2.11733 4.350197,0.41313 4.129177,-7.0476 z M 242.94712,195.06763 c 1.71043,-0.65031 4.98143,-3.26073 7.26888,-5.80094 2.28745,-2.54022 6.54962,-7.11505 9.4715,-10.16631 2.92187,-3.05127 5.3125,-6.66814 5.3125,-8.03752 0,-1.36939 1.82812,-5.83186 4.0625,-9.91664 4.72321,-8.63473 4.6196,-8.7995 -7.04238,-11.19805 -4.20482,-0.86482 -8.20762,-2.00036 -8.89512,-2.52342 -0.6875,-0.52308 -3.5,-1.35263 -6.25,-1.84346 -2.75,-0.49083 -7.9698,-2.22866 -11.59955,-3.86185 -3.62974,-1.63319 -7.14536,-2.96944 -7.8125,-2.96944 -0.66713,0 -1.21295,-0.5625 -1.21295,-1.25 0,-0.6875 -0.73446,-1.25 -1.63215,-1.25 -0.89769,0 -3.53821,-1.40625 -5.86785,-3.125 -5.63441,-4.15694 -6.69701,-3.96555 -8.67505,1.5625 -0.9225,2.57812 -2.05125,4.96875 -2.50833,5.3125 -0.45708,0.34375 -2.08762,4.11896 -3.62343,8.38936 l -2.79238,7.76435 3.48709,5.2438 c 2.51069,3.7755 3.83711,7.89014 4.7371,14.69479 1.24064,9.38024 1.28275,9.46007 5.625,10.665 2.40625,0.66771 4.65625,1.60831 5,2.09021 0.34375,0.48191 3.01562,1.5899 5.9375,2.4622 2.92187,0.8723 5.3125,2.01823 5.3125,2.54649 0,2.10849 7.33865,2.86852 11.69712,1.21143 z"
       id="path3428"
       inkscape:connector-curvature="0" />
    <path
       style="fill:#8eccf8"
       d="m 413.125,601.8078 c -2.0625,-2.38008 -5.11876,-4.69111 -6.79169,-5.13564 -7.69835,-2.04559 -13.02571,-6.91147 -17.58364,-16.06051 -3.69178,-7.41042 -15.2457,-19.36165 -18.71798,-19.36165 -1.78349,0 -2.79569,-1.3383 -3.78169,-5 -0.7405,-2.75 -1.88718,-5 -2.54818,-5 -0.661,0 -1.20182,-0.84375 -1.20182,-1.875 0,-1.03125 0.5625,-1.875 1.25,-1.875 1.99295,0 1.44855,-3.53745 -0.9375,-6.09176 -1.20313,-1.28797 -3.5852,-4.24109 -5.29349,-6.5625 C 353.2223,529.00691 327.41012,504.01901 301.50974,480.625 290.27775,470.47994 283.73749,463.85254 280,458.82868 c -1.71875,-2.31032 -4.31245,-5.38252 -5.76378,-6.82712 -1.45132,-1.44461 -3.04185,-3.91026 -3.53448,-5.47922 -0.94627,-3.0137 -6.34433,-9.02234 -8.1055,-9.02234 -0.57208,0 -1.69738,-0.79194 -2.50068,-1.75986 -0.8033,-0.96792 -3.40342,-2.6818 -5.77806,-3.80864 C 251.94288,430.80466 250,429.3466 250,428.69135 250,428.03611 249.40451,427.5 248.6767,427.5 c -1.29559,0 -8.91801,-5.66259 -14.30234,-10.625 -1.49191,-1.375 -5.08002,-6.57813 -7.9736,-11.5625 -3.6967,-6.36781 -5.988,-9.0625 -7.7059,-9.0625 -2.98016,0 -2.98345,-0.335 0.0551,5.625 1.7235,3.38055 2.51376,7.44219 2.5443,13.0768 0.0255,4.71455 0.80023,9.4956 1.8307,11.2982 0.98252,1.71875 1.80635,5.39669 1.8307,8.1732 0.0244,2.77651 1.16427,7.24496 2.53314,9.9299 1.36884,2.68494 2.82526,6.67502 3.23644,8.86686 1.08168,5.76584 4.85498,11.3695 9.1521,13.59163 5.57313,2.88197 9.55484,6.98828 12.92824,13.33278 3.21954,6.05512 12.49839,16.10563 14.86908,16.10563 0.78357,0 2.10553,-0.9311 2.93767,-2.06913 2.0052,-2.74227 14.29099,-3.79197 19.43644,-1.66065 5.32147,2.20423 8.75026,9.65073 10.63875,23.10478 1.99362,14.2032 4.72785,24.8624 8.00365,31.2018 1.40734,2.72349 2.57667,5.81724 2.59854,6.875 0.0219,1.05776 0.84253,2.98352 1.82372,4.27949 0.98118,1.29595 2.1532,4.81848 2.60448,7.82786 0.45128,3.00937 1.31811,5.77912 1.92628,6.15499 1.9984,1.23508 1.16174,14.79301 -1.33429,21.62187 -3.14044,8.59188 -5.24122,10.07539 -14.33672,10.12424 -7.11736,0.0383 -7.60094,-0.16813 -12.58546,-5.37026 -6.56661,-6.85329 -10.89184,-14.59309 -14.98429,-26.81372 -1.77761,-5.3082 -3.82435,-11.33877 -4.5483,-13.40127 -0.72393,-2.0625 -2.03648,-6.32664 -2.91675,-9.47588 -0.88027,-3.14922 -2.6609,-6.96256 -3.95696,-8.47407 -1.29605,-1.51151 -4.05511,-5.96611 -6.13125,-9.89913 l -3.77479,-7.15092 -8.10021,-0.7262 c -7.27484,-0.6522 -19.75651,-5.12263 -24.10555,-8.63361 -6.19717,-5.003 -9.46867,-8.58669 -10.28384,-11.26519 -1.86038,-6.11294 -11.16617,-18.2586 -24.9999,-32.6292 -2.38475,-2.47731 -4.33591,-4.89581 -4.33591,-5.37445 0,-2.44514 -8.67331,-9.49635 -11.68094,-9.49635 -3.655,0 -9.14814,-6.49685 -13.17876,-15.5868 -1.2287,-2.77101 -3.16918,-5.8102 -4.31215,-6.75375 C 150.93516,431.71589 150,429.83586 150,428.4816 c 0,-1.35425 -1.125,-3.89249 -2.5,-5.64051 -1.375,-1.74803 -2.5,-3.89925 -2.5,-4.7805 0,-0.88124 -0.42188,-1.78975 -0.9375,-2.01893 -1.06481,-0.47325 -7.8125,-10.59869 -7.8125,-11.72326 0,-0.40436 -1.40625,-2.57889 -3.125,-4.83229 -1.71875,-2.2534 -3.125,-4.74712 -3.125,-5.5416 0,-0.79449 -0.58063,-1.44451 -1.29028,-1.44451 -0.70966,0 -1.69403,-1.00667 -2.18749,-2.23706 C 125.08052,386.6683 114.74044,372.5 113.55877,372.5 c -0.59346,0 -1.97928,-2.25 -3.07962,-5 -1.10033,-2.75 -2.44097,-5 -2.97921,-5 -0.53823,0 -1.70793,-3.66925 -2.59933,-8.15389 -0.89141,-4.48463 -2.49934,-8.93372 -3.57317,-9.88687 C 91.943137,336.1297 90,333.55353 90,329.44155 c 0,-2.34464 -0.84375,-5.10672 -1.875,-6.13797 -2.280346,-2.28035 -2.44004,-5.40643 -0.3125,-6.11737 1.467909,-0.49052 1.824258,-8.10576 2.003315,-42.81121 0.03455,-6.69604 -3.840261,-16.26494 -7.346044,-18.14117 C 80.137655,254.98571 55,257.51683 55,258.99976 55,259.54989 44.170909,260 30.935354,260 L 6.8707072,260 4.0568816,254.6875 C 1.6931097,250.2247 1.2436114,247.42569 1.246528,237.1875 1.248438,230.48437 1.7353256,225 2.3285015,225 c 0.5931759,0 1.744758,-4.35938 2.5590716,-9.6875 0.8143135,-5.32813 1.9511853,-10.8125 2.5263816,-12.1875 0.5751964,-1.375 1.7283063,-7 2.5624664,-12.5 0.8341599,-5.5 2.0244629,-10.1875 2.6451159,-10.41666 0.620656,-0.22918 1.128463,-1.12977 1.128463,-2.00133 0,-0.87156 1.40355,-4.22437 3.119,-7.4507 1.715451,-3.22631 3.474842,-8.09135 3.909761,-10.81117 C 21.213679,157.22531 22.060129,155 22.65976,155 c 0.599632,0 1.09024,-2.28216 1.09024,-5.07148 0,-6.45053 2.457594,-16.30888 4.60074,-18.45531 C 29.257832,130.56474 30,129.26157 30,128.57731 30,124.95161 44.703855,111.25 48.594773,111.25 51.037203,111.25 55,105.16605 55,101.41626 c 0,-3.790805 0.535322,-4.28716 8.4375,-7.823314 4.640625,-2.076638 9.392924,-4.283772 10.560665,-4.904741 1.16774,-0.620969 5.94899,-2.002404 10.625,-3.069856 11.99933,-2.739239 12.161844,-2.890276 10.227879,-9.505584 -0.882383,-3.018271 -2.095841,-5.828324 -2.696577,-6.244562 -0.600733,-0.416239 -1.395762,-7.447489 -1.766728,-15.625 -0.427536,-9.424524 -1.308483,-15.881838 -2.406111,-17.636724 -1.935813,-3.09497 -2.307744,-8.602876 -0.650107,-9.627353 0.594837,-0.36763 1.406267,-2.669588 1.803178,-5.115463 0.501162,-3.088304 2.476912,-6.152959 6.466457,-10.030355 C 98.760798,8.7624888 101.58895,6.25 101.88593,6.25 c 0.29699,0 3.76137,-1.4734928 7.69861,-3.2744285 8.3938,-3.8394068 15.98462,-3.62316101 25.72206,0.7327648 6.50306,2.909065 14.68895,10.5213247 14.7011,13.6709147 0.004,1.097661 0.7928,3.500545 1.75236,5.33974 2.30019,4.408795 5.03019,24.717569 4.09626,30.472662 -0.41117,2.533778 -2.14156,5.837787 -3.92113,7.487041 -2.4028,2.226837 -3.18519,4.194766 -3.18519,8.01162 0,4.796886 1.43425,6.545378 3.125,3.809686 1.18907,-1.923969 4.61422,-1.495826 10,1.25 2.69699,1.375 6.89404,2.503465 9.3268,2.507701 2.43276,0.0042 6.1107,0.903367 8.1732,1.998068 2.12184,1.126199 10.534,2.699822 19.375,3.624393 16.08732,1.682374 31.25,5.0903 31.25,7.023673 0,0.60289 0.82497,1.096165 1.83328,1.096165 1.00829,0 4.65197,2.503401 8.09704,5.563114 4.11383,3.653659 7.88228,5.831336 10.97923,6.344566 2.5935,0.42979 6.1217,1.26622 7.84045,1.85872 1.71875,0.59251 5.09375,1.44892 7.5,1.90315 2.40625,0.45422 5.78125,1.74819 7.5,2.87549 12.40775,8.13802 18.87077,11.23653 25.24296,12.102 11.63323,1.58003 16.34289,4.91923 23.44712,16.62431 4.33556,7.14336 6.30992,11.73905 6.30992,14.6875 0,2.36014 -0.5625,4.29115 -1.25,4.29115 -0.6875,0 -1.27286,0.70312 -1.3008,1.5625 -0.0735,2.26032 -5.94935,8.73097 -12.4492,13.70936 -3.09375,2.36958 -9.95943,8.62153 -15.25705,13.89323 C 293.01311,190.86811 287.79779,195 286.39474,195 c -1.35639,0 -3.20948,0.73099 -4.11795,1.62441 -0.90849,0.89344 -5.18504,3.79676 -9.50347,6.45186 -9.34482,5.74547 -16.08517,11.85048 -16.71933,15.1434 -0.26524,1.37727 -1.81855,2.65438 -3.674,3.02069 -3.17537,0.62691 -11.12999,6.51441 -11.12999,8.2377 0,0.4892 1.86135,3.19739 4.13634,6.0182 6.04993,7.50145 9.61366,15.1674 9.61366,20.67999 0,3.7999 -1.1237,6.27085 -5.1928,11.41864 -5.87999,7.43873 -7.24022,14.41763 -4.97604,25.53011 1.23382,6.05547 3.70745,23.33009 4.51258,31.51361 0.58395,5.9354 9.69174,24.14274 14.34884,28.68468 4.72422,4.60741 4.44937,7.15507 -1.41962,13.15896 -3.0742,3.14486 -3.629,4.55008 -3.01282,7.63092 1.03862,5.19314 8.45529,16.05099 13.69253,20.04564 2.38202,1.81685 5.14799,4.12042 6.14661,5.11904 0.99862,0.99863 5.26607,3.62433 9.48319,5.83489 4.21714,2.21056 7.66753,4.49577 7.66753,5.07824 0,0.58246 0.62592,1.05902 1.39094,1.05902 3.7994,0 33.60906,29.22269 33.60906,32.94726 0,0.44152 0.98437,1.83495 2.1875,3.09655 1.20312,1.2616 3.03125,3.58448 4.0625,5.16194 1.03125,1.57748 4.82812,6.9611 8.4375,11.9636 3.60937,5.00251 6.5625,9.71089 6.5625,10.46306 0,0.75218 0.47246,1.36759 1.04993,1.36759 0.57746,0 1.79248,2.25 2.70007,5 0.90759,2.75 2.12261,5 2.70007,5 0.57747,0 1.04993,0.53679 1.04993,1.19286 0,1.56433 12.43825,18.54977 21.13975,28.86804 3.12614,3.707 4.53936,4.62424 5.29335,3.43563 0.6779,-1.06865 1.03515,-0.40388 1.04776,1.94971 0.0147,2.74757 0.47775,3.39525 2.00761,2.80819 2.34408,-0.89952 7.89161,2.744 14.93332,9.80788 6.77279,6.79414 21.62151,18.18769 23.70321,18.18769 0.28269,0 2.64834,1.41656 5.25699,3.14792 2.60866,1.73135 5.81001,3.84073 7.11411,4.6875 3.52527,2.28899 9.75129,8.36859 12.9414,12.63707 2.9275,3.91707 4.0543,14.52751 1.5428,14.52751 -1.01521,0 -10.59076,6.40386 -18.15328,12.14042 -3.87991,2.9431 -12.93907,6.60862 -16.20202,6.55564 -2.67799,-0.0435 -4.82201,-1.29794 -7.5,-4.38826 z M 64.572455,220.60244 C 63.786196,211.301 61.205381,205 58.181881,205 c -0.841826,0 -2.171324,-1.40625 -2.954439,-3.125 -0.783115,-1.71875 -1.85778,-3.10873 -2.388143,-3.08882 -1.309917,0.0491 -12.910748,23.83695 -12.191968,24.99996 0.314403,0.50871 4.241854,1.61745 8.727669,2.46386 4.485815,0.84641 8.463494,2.03642 8.839285,2.64446 0.375791,0.60805 2.13885,1.10554 3.917906,1.10554 l 3.234649,0 -0.794385,-9.39756 z M 250.39929,189.2508 c 2.87413,-3.13055 7.33508,-7.94346 9.91321,-10.69536 2.57812,-2.7519 4.6875,-6.23999 4.6875,-7.75132 0,-1.51132 0.77567,-3.85739 1.72372,-5.21348 4.05227,-5.79642 7.10444,-12.25033 6.16502,-13.03617 -0.55755,-0.4664 -4.66999,-1.56306 -9.13874,-2.43702 -4.46875,-0.87395 -8.6875,-2.03806 -9.375,-2.5869 -0.6875,-0.54884 -3.78125,-1.40529 -6.875,-1.90321 -6.19656,-0.99731 -27.52927,-10.7753 -29.99779,-13.74968 -3.08159,-3.71307 -5.5511,-1.95315 -9.68971,6.90553 -2.23438,4.78266 -4.0625,9.51103 -4.0625,10.50751 0,0.99646 -0.5625,2.1594 -1.25,2.5843 -2.0011,1.23675 -1.48125,3.6501 2.1875,10.15506 2.09208,3.7094 3.92675,9.51967 4.6875,14.84494 1.24952,8.74665 1.2518,8.75044 5.9375,9.90796 2.57812,0.63688 4.6875,1.62125 4.6875,2.1875 0,0.56624 0.70312,1.03468 1.5625,1.04096 0.85937,0.006 4.375,1.42167 7.8125,3.14529 8.95746,4.49143 14.21076,3.51546 21.02429,-3.90591 z"
       id="path3426"
       inkscape:connector-curvature="0" />
    <path
       style="fill:#76c4fb"
       d="m 413.125,601.8353 c -2.0625,-2.36495 -4.875,-4.63384 -6.25,-5.04199 -5.75191,-1.70737 -10.625,-4.5247 -10.625,-6.14272 0,-0.95267 -0.98438,-2.0707 -2.1875,-2.48453 -1.20313,-0.41382 -3.56304,-3.68275 -5.24426,-7.26427 -3.57693,-7.62003 -15.93122,-20.5247 -19.06148,-19.91067 -1.55425,0.30488 -2.48231,-0.93658 -3.48567,-4.66281 -0.7521,-2.79307 -1.90827,-5.07831 -2.56927,-5.07831 -0.661,0 -1.20182,-0.84375 -1.20182,-1.875 0,-1.03125 0.5625,-1.875 1.25,-1.875 1.98352,0 1.4498,-4.65586 -0.625,-5.45204 -1.03125,-0.39572 -1.875,-1.3481 -1.875,-2.1164 0,-3.13154 -34.67553,-37.76552 -60.00343,-59.93156 -4.32062,-3.78125 -9.60301,-8.5285 -11.73862,-10.54944 C 284.93036,465.11879 270,446.29711 270,444.85824 270,442.63021 255.9194,431.25 253.16267,431.25 c -0.59287,0 -1.96888,-0.8234 -3.05781,-1.82976 -1.08892,-1.00638 -5.63233,-4.83818 -10.09647,-8.51512 -5.49923,-4.52948 -9.76068,-9.48197 -13.21485,-15.35773 -3.47123,-5.90475 -5.96711,-8.79987 -7.82089,-9.07183 -3.26719,-0.47932 -3.42646,0.71334 -0.6287,4.70771 1.38206,1.97317 2.28359,6.42368 2.65171,13.09063 0.30678,5.55561 1.08935,10.76625 1.73907,11.5792 0.64971,0.81296 1.68003,5.00652 2.28961,9.31905 0.60956,4.31252 1.9341,9.55362 2.94339,11.6469 1.0093,2.09327 2.77447,6.49023 3.9226,9.77101 1.14812,3.2808 3.49807,6.93705 5.22211,8.125 7.18592,4.95154 12.8606,10.72189 15.39725,15.65684 3.09585,6.02287 12.20507,15.8781 14.67619,15.8781 0.91595,0 3.28613,-1.1983 5.2671,-2.66289 2.95981,-2.18827 4.84102,-2.56011 10.55501,-2.08626 11.22351,0.93074 16.05166,7.57584 17.53951,24.14006 0.91715,10.2106 6.13773,29.95799 8.26799,31.27456 0.65149,0.40264 1.18451,1.57349 1.18451,2.60188 0,1.0284 1.06888,4.22957 2.37526,7.11372 3.63035,8.01479 6.69442,21.74075 6.00142,26.88433 -2.10948,15.65696 -5.89231,20.2346 -16.72133,20.2346 -6.57165,0 -7.24141,-0.29869 -12.14426,-5.41574 C 282.22899,590.734 271.25,568.32216 271.25,561.0572 c 0,-1.31734 -0.7897,-3.64099 -1.75487,-5.16368 -0.96519,-1.52268 -2.13117,-5.10905 -2.59107,-7.9697 -0.45991,-2.86065 -1.92765,-6.18893 -3.26166,-7.3962 -1.33401,-1.20726 -3.6601,-4.77298 -5.16907,-7.92382 -4.36503,-9.11443 -5.59622,-10.1038 -12.57326,-10.1038 -4.05903,0 -8.86636,-1.18143 -13.86876,-3.40833 -13.72314,-6.10906 -19.66406,-11.03423 -21.98642,-18.22728 -0.84537,-2.61833 -5.19396,-9.08708 -9.66355,-14.375 -4.46958,-5.28791 -10.46198,-12.40244 -13.31643,-15.81007 -11.82534,-14.117 -14.99296,-17.10896 -17.43681,-16.46988 -3.22798,0.84414 -7.64593,-4.09884 -12.3136,-13.77697 -2.04974,-4.25 -4.53403,-8.03705 -5.52065,-8.41565 C 150.80724,431.63823 150,430.01747 150,428.41516 c 0,-1.60231 -3.09375,-7.58868 -6.875,-13.30305 -3.78125,-5.71437 -6.875,-10.69607 -6.875,-11.07045 0,-0.37437 -1.40625,-2.52437 -3.125,-4.77777 -1.71875,-2.2534 -3.125,-4.4396 -3.125,-4.85824 0,-0.41864 -0.57729,-1.44055 -1.28288,-2.27091 -0.70557,-0.83035 -3.09157,-4.32224 -5.3022,-7.75974 -2.21064,-3.4375 -5.8521,-8.09688 -8.09213,-10.35416 -2.24004,-2.2573 -4.0853,-4.78855 -4.10059,-5.625 -0.0153,-0.83646 -1.13166,-2.92709 -2.48082,-4.64584 -1.34917,-1.71875 -3.14202,-6.38509 -3.98411,-10.36965 -0.84209,-3.98456 -2.39759,-8.04674 -3.45667,-9.02705 -1.05908,-0.98033 -3.770178,-3.48298 -6.024661,-5.56146 -2.858987,-2.63579 -4.416604,-5.47879 -5.148699,-9.3975 -0.577303,-3.09015 -1.763481,-6.47858 -2.635955,-7.52984 -1.297955,-1.56394 -1.217029,-2.31945 0.445192,-4.15619 1.722753,-1.90361 1.914701,-4.3223 1.262951,-15.91405 -0.46735,-8.3121 -0.247872,-15.53441 0.560018,-18.42836 2.597407,-9.30419 -2.157702,-25.37037 -8.194492,-27.68691 -2.28281,-0.87599 -23.850039,1.69135 -27.189954,3.23666 -1.375,0.63619 -12.620721,0.9998 -24.990491,0.80803 L 6.8940176,259.375 l -2.7212421,-5 c -2.2046781,-4.05086 -2.7403703,-7.18086 -2.8220088,-16.48873 -0.055421,-6.3188 0.3671313,-11.77791 0.9390067,-12.13135 0.5718753,-0.35343 1.730357,-4.74601 2.5744036,-9.76127 C 5.7082236,210.9784 6.868278,205.75 7.4420754,204.375 8.0158729,203 9.114069,197.42459 9.8825111,191.9852 c 0.7684419,-5.43939 1.8796839,-10.50189 2.4694249,-11.25 0.589741,-0.74811 1.751687,-3.46958 2.5821,-6.0477 C 15.76445,172.10937 16.906652,170 17.472264,170 c 0.565611,0 1.720652,-2.95313 2.566757,-6.5625 0.846106,-3.60938 1.949979,-7.125 2.45305,-7.8125 0.503073,-0.6875 1.272696,-4.84371 1.710275,-9.23602 1.277618,-12.82444 8.101661,-24.79874 17.901865,-31.41282 3.036615,-2.04939 5.949354,-3.72616 6.472753,-3.72616 2.714627,0 6.423036,-5.42403 6.423036,-9.39452 0,-3.815634 0.595271,-4.587494 5.3125,-6.888458 10.25156,-5.000493 20.890606,-8.855971 25.198131,-9.131537 2.391815,-0.153012 4.755393,-0.684842 5.252395,-1.181845 0.497003,-0.497001 1.93489,-0.90364 3.195308,-0.90364 1.356375,0 2.283985,-0.892778 2.272846,-2.1875 C 96.210418,79.149285 93.689716,71.538832 92.076406,69.018485 91.510811,68.134902 90.64202,60.45132 90.145758,51.943858 89.56643,42.012404 88.640896,35.749696 87.560035,34.447338 86.233181,32.848576 86.171651,31.434636 87.269545,27.771965 88.035661,25.216134 89.037959,21.71875 89.496872,20 90.760319,15.26807 99.657854,7.6325197 108.75,3.4776446 c 6.66783,-3.04702531 9.2459,-3.5989606 14.375,-3.07752283 3.4375,0.34946529 7.9375,1.52393563 10,2.60993383 2.0625,1.0859984 4.39582,1.978008 5.18516,1.9822435 0.78935,0.00424 3.50701,2.1170759 6.03926,4.6952009 5.49258,5.59207 8.67378,14.261414 10.73562,29.256551 1.74813,12.71361 0.89902,19.325149 -2.62557,20.443809 -2.35681,0.748025 -2.9186,2.080681 -4.09098,9.704474 -0.59178,3.848172 1.0944,5.694782 3.24042,3.548751 2.0139,-2.013895 4.71266,-1.722381 10.26609,1.108915 2.69699,1.375 6.35104,2.5 8.12013,2.5 1.76908,0 6.29077,1.06271 10.04819,2.361579 3.75743,1.298869 11.89418,2.751192 18.08168,3.227386 20.71156,1.593975 33.8282,6.310211 43.75,15.73081 2.94547,2.796685 6.43176,4.145645 16.25,6.287675 6.875,1.49991 13.99309,3.77683 15.81796,5.05983 1.82488,1.283 3.65878,2.33272 4.07533,2.33272 0.41653,0 3.55831,1.96875 6.98171,4.375 3.70711,2.60567 7.71627,4.375 9.91341,4.375 2.02898,0 4.0215,0.53793 4.42785,1.19541 0.40634,0.65747 1.50982,0.89954 2.45215,0.53793 0.94234,-0.36161 4.51308,0.54694 7.93497,2.01899 4.86623,2.09341 6.95447,3.95047 9.58566,8.52457 1.85022,3.21645 4.72097,8.0981 6.37945,10.8481 1.65846,2.75 3.02464,6.1792 3.03595,7.62045 0.0366,4.66859 -3.74268,10.34379 -11.35899,17.0572 -4.10095,3.6148 -12.23732,11.21297 -18.08085,16.88485 C 293.44608,190.35937 287.7478,195 286.62676,195 c -2.2329,0 -25.10996,14.97529 -28.19763,18.45811 -1.05657,1.19179 -2.1266,3.28755 -2.37784,4.65725 -0.27375,1.4924 -1.74496,2.74469 -3.6713,3.125 -3.12658,0.61729 -11.12999,6.50412 -11.12999,8.18656 0,0.46108 1.74378,3.04 3.87504,5.73095 5.37844,6.79083 9.87747,16.55299 9.86182,21.3985 -0.009,2.85503 -1.66176,6.26459 -5.5402,11.43065 -5.40115,7.19433 -5.51806,7.55025 -5.13252,15.625 0.59274,12.41439 2.9682,31.3159 4.53061,36.05007 0.76074,2.30506 1.08528,4.96727 0.72121,5.91602 -0.99587,2.5952 10.03803,24.20111 14.38847,28.17463 4.50507,4.11475 4.1832,6.19791 -2.0008,12.94927 -4.2194,4.60651 -4.25128,4.72698 -2.41385,9.12454 4.78215,11.4453 16.20042,22.99097 29.51975,29.84912 3.9515,2.03463 7.18587,4.1212 7.1875,4.63683 0.001,0.51562 0.8743,0.9375 1.93925,0.9375 2.52656,0 33.06372,30.53716 33.06372,33.06372 0,1.06495 0.58015,1.93628 1.28923,1.93628 0.70908,0 1.66275,0.97335 2.11926,2.163 0.45651,1.18966 4.0926,6.50145 8.0802,11.80399 3.9876,5.30252 7.90549,11.07917 8.7064,12.83698 0.80091,1.75782 1.83937,3.19603 2.3077,3.19603 0.46832,0 1.52561,2.25 2.34952,5 0.82393,2.75 2.03797,5 2.69787,5 0.6599,0 1.22268,0.70312 1.25062,1.5625 0.028,0.85937 1.71544,3.51 3.75,5.89029 2.03456,2.38027 3.6992,4.7709 3.6992,5.3125 0,0.54158 0.98438,2.01692 2.1875,3.27852 1.20313,1.2616 3.03125,3.60038 4.0625,5.1973 2.30986,3.57689 8.94488,11.57853 10.56319,12.73891 0.65585,0.47027 1.64117,0.57769 2.18962,0.23873 0.54845,-0.33896 0.99719,0.57981 0.99719,2.04171 0,2.08916 0.53503,2.4882 2.5,1.86454 1.43414,-0.45518 2.5,-0.22463 2.5,0.54076 0,0.73384 0.70524,1.33424 1.5672,1.33424 0.86196,0 4.70355,2.95312 8.53686,6.5625 11.41144,10.74481 18.64812,16.24024 29.27094,22.22794 8.19303,4.61811 8.8828,5.10901 14.75606,10.5017 7.17255,6.58565 9.61894,10.80135 9.61894,16.57571 0,3.8312 -0.51459,5.38215 -1.78571,5.38215 -0.98215,0 -2.57474,0.78902 -3.53909,1.75337 -3.16037,3.16038 -18.98599,13.33884 -21.8627,14.0613 -1.54687,0.38849 -2.8125,1.20787 -2.8125,1.82084 0,0.61296 -2.10937,1.08865 -4.6875,1.05709 -3.74356,-0.0459 -5.44265,-0.9233 -8.4375,-4.3573 z M 64.986243,224.6875 c -0.02759,-10.65304 -1.340659,-14.40129 -7.214403,-20.59398 -3.131705,-3.30176 -5.887285,-5.30838 -6.167299,-4.49107 -0.278395,0.8126 -3.003306,6.37127 -6.055357,12.35263 C 42.497132,217.93641 40,223.22835 40,223.71492 c 0,0.48659 3.935674,1.58804 8.74594,2.44768 4.810267,0.85965 9.062215,2.07474 9.448771,2.7002 0.386558,0.62546 2.075884,1.1372 3.75406,1.1372 2.758505,0 3.049909,-0.50966 3.037472,-5.3125 z M 250.70529,189.03619 c 3.05846,-3.25115 7.52597,-7.93808 9.92779,-10.41539 2.6347,-2.71751 4.36692,-5.74964 4.36692,-7.64393 0,-1.72685 1.04546,-4.48121 2.32325,-6.1208 3.61516,-4.63876 6.60662,-11.05376 5.77906,-12.39278 -0.41242,-0.66732 -2.14065,-1.21329 -3.84051,-1.21329 -1.69986,0 -6.37379,-1.106 -10.38649,-2.45779 -4.01271,-1.35177 -10.00415,-3.06474 -13.31432,-3.80656 -6.12448,-1.37251 -24.57195,-10.03998 -28.15942,-13.23055 -3.58933,-3.19224 -5.48515,-1.84485 -9.40263,6.68261 -6.4984,14.14555 -7.50209,17.62448 -5.78599,20.0552 4.07015,5.76508 5.85245,10.36589 7.07544,18.2644 l 1.33661,8.63231 12.5,5.4432 c 15.96285,6.95113 19.57212,6.71601 27.58029,-1.79663 z"
       id="path3424"
       inkscape:connector-curvature="0" />
    <path
       style="fill:#56b4f6"
       d="m 412.79411,601.25 c -2.75,-2.75 -5.43966,-5 -5.97702,-5 -2.51714,0 -10.56709,-4.40419 -10.56709,-5.78133 0,-0.85261 -1.125,-1.90726 -2.5,-2.34367 -1.375,-0.43641 -2.5,-1.46701 -2.5,-2.29025 0,-5.69434 -17.90675,-26.55954 -21.583,-25.14884 -1.19029,0.45676 -2.21851,-0.92866 -3.25379,-4.38406 -0.83246,-2.77851 -2.05349,-5.05185 -2.71339,-5.05185 -1.9666,0 -1.36243,-2.72951 0.98768,-4.46211 2.05427,-1.5145 2.01621,-1.77328 -0.625,-4.249 -1.54688,-1.44995 -2.8125,-3.1606 -2.8125,-3.80144 0,-0.89744 -22.41895,-24.75545 -27.18805,-28.93322 -1.95059,-1.70875 -26.23638,-24.24092 -33.01539,-30.63144 C 297.15342,475.50275 293.59452,472.5 293.13791,472.5 291.80404,472.5 285,465.31653 285,463.90826 c 0,-0.70621 -0.72826,-1.73386 -1.61836,-2.28365 C 280.86386,460.06945 270,446.19834 270,444.53877 c 0,-0.81513 -1.62011,-2.87295 -3.60024,-4.57292 -3.76314,-3.23069 -4.37785,-3.66498 -14.52476,-10.26149 C 241.11676,422.71042 230,413.03069 230,410.65706 c 0,-0.8385 -0.98438,-2.69392 -2.1875,-4.12317 -1.20313,-1.42925 -3.14571,-4.32783 -4.31686,-6.44127 -1.29933,-2.34475 -3.12654,-3.84262 -4.6875,-3.84262 -3.19806,0 -3.20856,1.29551 -0.0581,7.17352 1.74552,3.25675 2.5,7.05261 2.5,12.57764 0,4.35227 0.62598,9.08285 1.39108,10.51243 0.76509,1.42958 1.6302,5.18947 1.92249,8.35532 0.29227,3.16585 1.59486,8.00609 2.89462,10.75609 1.29978,2.75 3.01824,7.53125 3.8188,10.625 1.50641,5.82145 4.32984,10 6.75694,10 2.81986,0 10.56527,7.65349 14.21748,14.04875 2.06557,3.61694 6.30469,9.04786 9.42027,12.06871 l 5.66468,5.49246 4.08455,-3.43692 c 3.64744,-3.06911 4.8551,-3.38118 11.28498,-2.91609 11.87227,0.85876 15.89458,6.97385 18.33069,27.86809 1.41628,12.14732 2.99783,18.14055 7.564,28.66347 7.29281,16.80665 8.82057,22.48618 8.86886,32.9705 0.0745,16.16983 -4.40513,22.74103 -15.5026,22.74103 -5.60135,0 -7.01246,-0.54441 -10.76893,-4.1547 -5.40588,-5.19551 -8.7407,-9.8936 -12.13465,-17.0953 -2.53321,-5.37529 -3.67512,-8.6897 -10.3359,-30 -1.61163,-5.15625 -3.89252,-10.5 -5.06863,-11.875 -1.1761,-1.375 -3.71743,-5.59375 -5.64739,-9.375 -1.92996,-3.78125 -4.10017,-7.28826 -4.82269,-7.79336 -0.72251,-0.5051 -4.06252,-0.92698 -7.42226,-0.9375 -4.5726,-0.0144 -8.74385,-1.30053 -16.58889,-5.11517 -11.16387,-5.42842 -17.39915,-10.90274 -18.58909,-16.32048 -0.82677,-3.76432 -10.23507,-16.16004 -21.21342,-27.94935 -1.375,-1.47658 -5.29995,-6.02018 -8.72211,-10.09692 -7.41109,-8.8286 -7.93488,-9.24342 -11.70253,-9.26808 -3.6295,-0.0238 -6.5664,-3.43724 -11.47859,-13.34129 -2.09968,-4.23344 -4.6398,-8.01266 -5.6447,-8.39828 -1.00491,-0.38561 -1.8271,-2.05913 -1.8271,-3.71893 0,-1.6598 -2.39063,-6.74083 -5.3125,-11.29118 -2.92188,-4.55033 -8.82824,-13.75685 -13.12526,-20.45891 -4.29701,-6.70205 -8.51577,-13.25301 -9.375,-14.55767 -0.85923,-1.30468 -3.6646,-4.67968 -6.23416,-7.5 -2.56955,-2.82034 -4.67893,-5.60354 -4.6875,-6.18492 -0.009,-0.58137 -1.15177,-2.65267 -2.54046,-4.6029 -1.38868,-1.95022 -3.17287,-6.81831 -3.96486,-10.81796 C 103.4795,346.42914 100.24162,341.25 97.478739,341.25 95.694789,341.25 90,331.65438 90,328.64845 c 0,-1.7007 -0.832516,-4.28076 -1.850036,-5.73347 -1.663342,-2.37477 -1.608554,-2.9483 0.542911,-5.68344 1.983466,-2.52158 2.198197,-3.88186 1.254857,-7.94934 -1.523332,-6.56827 -1.499489,-22.07576 0.04016,-26.12537 2.95552,-7.7736 -2.65843,-25.6171 -8.651174,-27.49709 -1.078949,-0.33848 -7.867975,0.30822 -15.086725,1.43711 -8.360675,1.30748 -21.514889,2.09348 -36.237887,2.16534 l -23.1128828,0.11281 -2.7238463,-5 C 1.967399,250.32194 1.4324494,247.19916 1.3507667,237.88627 1.295345,231.56747 1.7620137,226.0811 2.3878084,225.69434 3.013603,225.30757 4.171235,220.915 4.9603239,215.93306 5.7494126,210.95112 6.8781278,205.75 7.4685796,204.375 c 0.5904518,-1.375 1.7404414,-7 2.5555324,-12.5 0.815091,-5.5 1.913556,-10.5625 2.441032,-11.25 0.527477,-0.6875 1.638479,-3.35938 2.468892,-5.9375 C 15.76445,172.10937 16.859667,170 17.367851,170 c 1.34702,0 6.09484,-16.98459 6.988425,-25 0.739791,-6.6359 5.275319,-17.31016 8.891789,-20.92664 C 34.21163,123.1098 35,121.83756 35,121.24617 c 0,-0.59139 4.5,-3.99904 10,-7.57255 8.957502,-5.81994 10.001995,-6.90393 10.019141,-10.39795 0.0105,-2.14537 0.432403,-4.509983 0.9375,-5.254698 1.104129,-1.627928 14.457736,-8.017775 16.778453,-8.028673 0.901948,-0.0042 3.277732,-0.861814 5.279521,-1.905729 2.001787,-1.043916 5.095537,-1.950861 6.875,-2.015434 C 86.669076,86.006562 89.25,85.508897 90.625,84.965213 92,84.421527 94.104346,83.664021 95.301326,83.281866 97.306325,82.641736 97.216851,81.870185 94.164774,73.481019 91.719445,66.759608 90.62972,60.774265 90.003479,50.625 89.536848,43.0625 88.404179,35.312866 87.486436,33.403593 86.210059,30.748212 86.16245,29.58755 87.283908,28.466093 88.090259,27.659741 88.75,25.66927 88.75,24.042824 c 0,-1.626448 0.648995,-4.169837 1.442211,-5.651975 2.228548,-4.164076 10.962489,-11.8192231 15.290439,-13.4017944 2.14079,-0.7828093 5.70491,-2.3057815 7.92026,-3.3843825 4.19354,-2.0417343 16.26509,-1.5862693 17.7529,0.6698247 0.39555,0.599815 2.22673,1.4592767 4.06928,1.9099148 1.84255,0.450638 4.09255,1.5530965 5,2.4499075 0.90745,0.8968112 2.63428,2.0033127 3.83741,2.4588923 1.20312,0.4555796 2.1875,1.6617796 2.1875,2.6804446 0,1.018665 0.75294,2.301944 1.67319,2.851732 2.95451,1.765108 7.60258,22.631666 7.6643,34.407212 0.0341,6.503239 -0.33389,7.496722 -4.02499,10.867036 -3.13918,2.866355 -4.0625,4.728719 -4.0625,8.194131 0,4.948088 2.56139,6.948803 5.63277,4.399784 1.48183,-1.22981 2.76032,-1.104605 6.41122,0.62786 2.50816,1.1902 6.8712,2.456999 9.69565,2.815109 2.82445,0.358111 5.69786,1.060081 6.38536,1.559936 2.48616,1.80759 14.51034,4.050062 33.125,6.17771 15.40616,1.760918 22.2229,4.508933 31.28057,12.610053 5.5925,5.001901 9.90679,6.835031 20.19029,8.578831 8.3539,1.41659 18.2748,5.63746 20.15375,8.57445 0.54979,0.85938 1.58795,1.5625 2.30704,1.5625 0.71909,0 2.80051,1.04967 4.62539,2.3326 2.99133,2.10296 8.91434,3.81997 13.94296,4.04189 1.03125,0.0455 4.69136,1.17094 8.13357,2.50096 5.28309,2.04129 6.82633,3.43768 9.90103,8.95887 2.00335,3.59738 3.96914,6.82193 4.36841,7.16568 2.57798,2.21943 4.1204,7.95881 3.5349,13.15336 -0.57239,5.07824 -1.52316,6.61082 -7.6075,12.2626 -3.82434,3.55248 -12.00594,11.24029 -18.18131,17.08404 -6.17538,5.84375 -12.8348,11.1875 -14.79871,11.875 -1.96392,0.6875 -5.14255,2.49244 -7.06365,4.01097 -1.92109,1.51855 -4.57152,3.10333 -5.88982,3.52174 -1.31831,0.41841 -2.39692,1.21711 -2.39692,1.77488 0,0.55776 -1.61365,1.68251 -3.58589,2.49943 -4.45476,1.84523 -11.02717,8.60132 -11.61827,11.94298 -0.29985,1.69519 -1.60924,2.63349 -4.06735,2.91466 -3.25859,0.37274 -10.72849,6.21039 -10.72849,8.38421 0,0.4764 1.89914,3.47281 4.2203,6.65865 5.70017,7.82364 9.5297,16.10225 9.5297,20.60118 0,2.4164 -1.8305,6.15596 -5.23893,10.70271 -2.8814,3.84373 -5.55327,7.12915 -5.9375,7.30096 -1.256,0.56163 2.9693,39.90632 4.90355,45.66036 0.64207,1.90998 0.87904,4.22413 0.52662,5.14254 -1.1378,2.96506 9.73701,24.01837 14.66165,28.38452 3.10246,2.75062 3.48057,3.71061 2.4617,6.25 -0.66208,1.65011 -2.93028,4.79782 -5.04044,6.99492 -2.11015,2.19709 -3.83665,4.58031 -3.83665,5.29605 0,0.71574 2.31637,5.10563 5.1475,9.75529 4.77451,7.84137 17.70725,20.32895 21.05364,20.32895 0.71437,0 1.29886,0.5246 1.29886,1.16576 0,0.64118 1.26562,1.5412 2.8125,2.00005 2.60886,0.77389 9.85979,5.22401 14.85972,9.1199 4.71154,3.67117 23.20417,22.32125 25.50007,25.71718 1.34898,1.99533 3.43708,4.66721 4.64021,5.9375 1.20312,1.27029 2.1875,2.5954 2.1875,2.9447 0,0.34931 3.72399,5.78212 8.27551,12.07295 4.55154,6.29081 10.11705,14.97086 12.36781,19.28898 4.6107,8.8457 11.6923,19.37298 14.04418,20.87759 0.85937,0.54979 1.5625,1.6904 1.5625,2.5347 0,0.8443 0.98437,2.45938 2.1875,3.58905 1.20312,1.12969 4.15625,4.635 6.5625,7.78959 2.40625,3.15459 5.07812,5.46673 5.9375,5.13806 0.90364,-0.34557 1.5625,0.38142 1.5625,1.7241 0,1.62549 1.21817,2.55626 4.0625,3.10403 2.60811,0.50227 7.02145,3.57273 12.32762,8.57661 9.47954,8.93948 13.36117,12.27514 16.34245,14.04388 1.15918,0.68769 5.37793,3.21875 9.375,5.62453 3.99709,2.40579 7.80424,4.60035 8.46034,4.8768 2.64109,1.11285 12.25338,10.26556 15.99459,15.22988 3.20625,4.25443 2.90199,11.92382 -0.54625,13.76926 -1.50356,0.80469 -3.85964,2.51197 -5.2357,3.79398 -1.37608,1.28201 -3.23964,2.33092 -4.14125,2.33092 -0.90161,0 -1.6393,0.53181 -1.6393,1.18179 0,1.14552 -2.08261,2.47705 -11.25,7.19272 -2.40625,1.23776 -4.5625,2.67236 -4.79166,3.18799 -0.22918,0.51562 -2.27238,0.9375 -4.54045,0.9375 -3.1444,0 -5.31124,-1.18747 -9.12378,-5 z M 64.57871,219.73171 c -0.764464,-9.91337 -0.958379,-10.42105 -5.610148,-14.6875 -2.650072,-2.43057 -5.112611,-5.26296 -5.472307,-6.29421 -0.359696,-1.03125 -0.879968,-1.59375 -1.156159,-1.25 C 51.077321,199.07166 40,222.26244 40,223.33445 c 0,0.6638 3.545636,1.91166 7.879191,2.77304 4.333555,0.86137 8.69293,2.08095 9.6875,2.71018 0.99457,0.62923 3.157306,1.15267 4.80608,1.16319 2.985726,0.0191 2.99459,-0.0221 2.205939,-10.24915 z m 186.45818,-30.65912 c 2.97653,-3.27118 7.25091,-7.91634 9.49861,-10.32259 2.2477,-2.40625 4.44113,-6.21418 4.87428,-8.46206 0.43314,-2.24789 1.36982,-4.77914 2.08148,-5.625 3.48569,-4.14295 7.01006,-10.53397 6.5576,-11.89135 -0.27896,-0.83688 -2.16589,-1.52159 -4.19317,-1.52159 -2.02729,0 -5.49604,-0.75504 -7.70834,-1.67786 -2.21229,-0.92283 -7.1161,-2.37852 -10.89735,-3.23488 -3.78125,-0.85635 -8.5625,-2.30794 -10.625,-3.22574 -2.0625,-0.91781 -5.29688,-2.05435 -7.1875,-2.52563 -1.89063,-0.4713 -3.4375,-1.35843 -3.4375,-1.9714 0,-0.61297 -0.7591,-1.11449 -1.6869,-1.11449 -0.92779,0 -4.16216,-1.67726 -7.1875,-3.72725 -3.02533,-2.04999 -6.355,-3.73749 -7.39926,-3.75 -2.16529,-0.0259 -12.47634,20.5136 -12.47634,24.85276 0,1.49915 1.22481,4.38236 2.7218,6.40715 1.49699,2.02478 3.14977,6.36138 3.67285,9.63688 0.52309,3.2755 1.3351,7.64296 1.80449,9.70546 0.90157,3.9616 4.9077,8.01614 8.05086,8.14816 1.03125,0.0434 5.25,1.75133 9.375,3.79558 10.90186,5.4027 16.84737,4.5424 24.16189,-3.49615 z"
       id="path3422"
       inkscape:connector-curvature="0" />
    <path
       style="fill:#31a7fa"
       d="m 420,605.35305 c -1.71875,-0.30608 -5.09375,-2.41571 -7.5,-4.68809 -2.40625,-2.27237 -6.56315,-4.89847 -9.23756,-5.83577 -2.67441,-0.9373 -5.69224,-2.96982 -6.70626,-4.51669 -1.01404,-1.54688 -2.57807,-2.8125 -3.47562,-2.8125 -0.89756,0 -2.02311,-1.78109 -2.50123,-3.95798 -0.99554,-4.53261 -1.05262,-4.6125 -11.49078,-16.08188 -4.61722,-5.07338 -8.1291,-8.00129 -8.6283,-7.19356 -1.04806,1.6958 -4.21025,-2.32425 -4.21025,-5.35243 0,-1.15943 -0.85794,-2.82006 -1.90654,-3.69032 -1.7034,-1.41371 -1.68752,-1.82429 0.14905,-3.85368 1.93629,-2.13957 1.55728,-2.87031 -6.53096,-12.5917 -8.81006,-10.58896 -19.10751,-21.00905 -20.77405,-21.02146 -0.51562,-0.004 -0.9375,-0.83095 -0.9375,-1.83801 0,-1.00707 -1.2436,-2.49658 -2.76356,-3.31003 -1.51996,-0.81346 -5.61204,-4.34887 -9.09353,-7.85649 -3.48147,-3.5076 -9.93806,-9.47121 -14.34797,-13.25246 -10.9858,-9.41971 -27.2667,-25.70127 -32.49866,-32.5 -2.38079,-3.09375 -4.77142,-5.8125 -5.3125,-6.04166 -0.54108,-0.22918 -0.98378,-1.17883 -0.98378,-2.11036 0,-2.75223 -6.23276,-8.68599 -16.25,-15.47045 -5.15625,-3.49222 -10.78125,-7.31858 -12.5,-8.50302 -4.85314,-3.34442 -12.21001,-11.24162 -13.10789,-14.07061 -0.44582,-1.40465 -1.22217,-2.5539 -1.72524,-2.5539 -0.50306,0 -1.62593,-1.96701 -2.49527,-4.37114 -1.05738,-2.92411 -2.60809,-4.62902 -4.68433,-5.15012 -4.59588,-1.1535 -5.01082,0.20445 -1.97303,6.45712 1.9808,4.07709 2.73789,7.95019 2.74346,14.03508 0.005,4.996 0.76225,9.85081 1.86836,11.97166 1.02338,1.96218 1.5414,4.08419 1.15118,4.71559 -0.72796,1.17786 2.78925,13.22409 4.51594,15.46681 0.52931,0.6875 1.63221,3.78125 2.45088,6.875 1.54863,5.85219 4.3742,10 6.8122,10 2.48037,0 11.55208,9.18684 14.19486,14.375 1.40082,2.75 5.35289,7.74015 8.78239,11.08922 l 6.23545,6.08923 4.52114,-3.44844 c 4.03635,-3.07867 5.24968,-3.37326 11.31528,-2.74724 4.06171,0.41922 7.76592,1.61939 9.21047,2.98423 4.34564,4.10584 7.3882,13.22196 8.89727,26.658 0.81078,7.21875 1.9945,13.65937 2.63052,14.3125 0.636,0.65312 1.1615,2.05937 1.16779,3.125 0.006,1.06562 1.39495,4.75 3.08591,8.1875 1.69096,3.4375 3.09207,7.10921 3.11357,8.15936 0.0215,1.05016 0.81027,3.01891 1.7528,4.375 4.00393,5.76069 5.62488,22.4775 3.19978,32.99916 -1.81506,7.87494 -5.99773,11.34148 -13.6844,11.34148 -5.08681,0 -6.90076,-0.66611 -10.55773,-3.87698 -5.17085,-4.54006 -11.56612,-13.64742 -12.669,-18.04161 -0.42536,-1.69477 -1.2123,-3.08141 -1.74876,-3.08141 -0.53645,0 -1.36581,-2.10938 -1.84301,-4.6875 -0.47722,-2.57813 -1.61651,-6.375 -2.53178,-8.4375 -0.91527,-2.0625 -2.39325,-6.84375 -3.28437,-10.625 -1.52138,-6.45541 -4.53654,-13.24706 -7.38624,-16.63748 -0.68766,-0.81813 -2.85828,-4.58127 -4.82358,-8.36252 l -3.57328,-6.875 -9.07424,-0.82399 c -4.99084,-0.45319 -9.42026,-1.34542 -9.84318,-1.98275 -0.42291,-0.63731 -2.62192,-1.79281 -4.88671,-2.56776 -2.26477,-0.77495 -5.72661,-2.55459 -7.69296,-3.95475 -1.96635,-1.40016 -3.9372,-2.54575 -4.37968,-2.54575 -1.6806,0 -6.84842,-7.02196 -7.60313,-10.33106 -0.71292,-3.12584 -7.93244,-13.45569 -12.96915,-18.55653 -1.09302,-1.10692 -7.04979,-7.98629 -13.23729,-15.28747 -8.84115,-10.43247 -11.93596,-13.28025 -14.45364,-13.29992 -3.80477,-0.0297 -9.3863,-5.45635 -10.57985,-10.28625 -0.46023,-1.86242 -1.62536,-4.04067 -2.58915,-4.84056 C 155.78856,437.84834 155,436.54403 155,435.74975 c 0,-0.79429 -1.125,-2.4074 -2.5,-3.58471 -1.375,-1.17732 -2.5,-3.51913 -2.5,-5.20404 0,-1.6849 -0.57054,-3.41608 -1.26786,-3.84704 -0.69733,-0.43097 -2.40068,-2.8548 -3.78524,-5.38627 -1.38455,-2.53148 -3.6094,-6.29019 -4.94411,-8.35269 -1.33473,-2.0625 -3.3661,-5.4375 -4.51419,-7.5 -1.14809,-2.0625 -2.44928,-4.03125 -2.89154,-4.375 -0.44225,-0.34375 -2.73594,-3.71875 -5.09706,-7.5 -2.36113,-3.78125 -4.59769,-7.15625 -4.97014,-7.5 -0.37245,-0.34375 -2.0784,-2.73054 -3.79102,-5.30396 -1.71261,-2.57343 -3.52428,-4.6828 -4.02594,-4.6875 -0.50165,-0.005 -2.12409,-2.39916 -3.60541,-5.32104 -1.48133,-2.92187 -3.11252,-5.59375 -3.62488,-5.9375 -0.51235,-0.34375 -1.65903,-4 -2.54817,-8.125 -1.40759,-6.53025 -2.47762,-8.31432 -8.275531,-13.7979 C 91.877491,334.80489 90,332.09642 90,329.72096 c 0,-1.81951 -0.577445,-4.82701 -1.28321,-6.68331 -0.984339,-2.58901 -0.839431,-4.05239 0.622165,-6.28306 1.583567,-2.41684 1.669336,-4.00858 0.50783,-9.4245 -0.872131,-4.06662 -1.046111,-10.07654 -0.462769,-15.9858 2.01177,-20.37925 0.175176,-30.36839 -6.372267,-34.65844 -2.557255,-1.67558 -4.515122,-1.64663 -18.250652,0.26985 -8.462353,1.18072 -24.437532,2.33299 -35.500397,2.5606 C 10.521896,259.90182 8.9618862,259.75822 6.4482,257.41636 4.96419,256.0338 3.75,253.91202 3.75,252.7013 c 0,-1.21071 -0.6074537,-2.80875 -1.3498971,-3.5512 -2.56727875,-2.56728 1.1119724,-32.81438 5.370409,-44.1501 0.3874047,-1.03125 1.3354511,-6.32541 2.1067696,-11.7648 0.7713185,-5.43939 1.8408975,-10.50189 2.3768415,-11.25 0.535944,-0.74811 1.733538,-3.6102 2.661321,-6.3602 0.927782,-2.75 2.060852,-5.28125 2.517932,-5.625 1.603115,-1.20564 6.316624,-15.92119 6.316624,-19.72048 0,-4.9999 2.670914,-16.52952 3.829175,-16.52952 0.494893,0 1.226716,-1.30253 1.626276,-2.89449 0.992738,-3.95538 11.154706,-15.85027 13.544384,-15.85411 0.481159,-7.7e-4 3.401381,-1.70654 6.489381,-3.79061 4.7442,-3.20182 5.674323,-4.50977 6.000165,-8.4375 0.324331,-3.909529 1.080945,-4.985378 4.760619,-6.769245 2.40625,-1.166526 4.9564,-2.62187 5.667,-3.2341 0.710601,-0.612229 2.960601,-1.5293 5,-2.037936 2.0394,-0.508636 5.45679,-1.751613 7.5942,-2.762169 2.13741,-1.010555 4.38741,-1.670632 5,-1.466839 C 84.875706,87.040108 97.5,83.45335 97.5,82.457536 97.5,81.995241 96.059576,77.737549 94.299058,72.996 91.406384,65.205249 90.137439,56.365197 88.48606,32.5 87.836037,23.106077 88.76688,19.92583 93.748214,14.521721 98.256708,9.6305824 101.41472,7.6655699 114.63441,1.5256757 c 4.04311,-1.87782361 13.06442,-1.38721633 15.92858,0.8662463 0.7216,0.567749 3.42138,1.7117005 5.99951,2.5421145 2.57812,0.830414 4.6875,2.0287206 4.6875,2.6629036 0,0.6341829 0.85767,1.1530599 1.90594,1.1530599 1.04826,0 2.4406,1.40625 3.09406,3.125 0.65346,1.71875 1.79774,3.125 2.54284,3.125 0.74508,0 1.01425,0.550875 0.59812,1.224166 -0.41611,0.673293 -0.1894,2.283944 0.50381,3.579228 2.37623,4.440009 6.64603,28.879556 5.8173,33.297079 -0.51708,2.756305 -2.13322,5.241241 -4.50902,6.932955 -3.1504,2.243285 -3.70305,3.463591 -3.70305,8.176689 0,4.501369 0.42179,5.539883 2.25,5.539883 1.2375,0 2.93052,-0.680519 3.76226,-1.512265 1.18303,-1.183019 2.258,-1.071915 4.9375,0.510315 1.88389,1.112419 5.67524,2.400192 8.42524,2.86172 2.75,0.461527 7.2035,1.671244 9.89667,2.688259 5.1973,1.962643 15.01111,3.647936 31.35333,5.384205 5.5,0.584343 11.125,1.460417 12.5,1.946831 7.62791,2.698415 15.64441,7.082657 18.89605,10.334292 5.17656,5.176563 9.73837,7.193063 19.97305,8.828893 7.88892,1.2609 11.48204,2.77444 22.78515,9.59791 1.15266,0.69585 3.54294,2.2421 5.31174,3.43613 1.76879,1.19402 5.06978,2.38679 7.33553,2.6506 2.26577,0.26381 4.54735,1.17183 5.07022,2.01782 0.73259,1.18537 1.08506,1.14735 1.53671,-0.16577 0.84439,-2.45493 14.39076,4.29586 16.02404,7.98552 0.68426,1.54579 3.19894,5.90429 5.58815,9.68554 4.49573,7.11511 5.50856,13.00771 3.03135,17.63642 -1.71353,3.20175 -11.68542,13.61358 -13.03835,13.61358 -0.57195,0 -5.16199,4.1759 -10.20008,9.27977 C 293.19244,190.40316 287.46997,195 284.92502,195 c -0.86022,0 -3.30463,1.30704 -5.43203,2.90452 -2.12739,1.59749 -4.85237,3.26733 -6.05549,3.71077 -1.20313,0.44343 -2.1875,1.32542 -2.1875,1.95997 0,0.63454 -1.26563,1.48529 -2.8125,1.89055 -3.87423,1.01499 -12.1875,9.18617 -12.1875,11.97918 0,2.30756 -2.3205,3.80501 -5.8964,3.80501 -1.06805,0 -3.17033,1.32546 -4.6717,2.94547 -1.50137,1.62003 -3.53282,3.21317 -4.51432,3.54034 -1.33007,0.44335 -0.49197,2.31958 3.29078,7.36701 5.96788,7.96312 10.54164,17.0575 10.54164,20.96082 0,2.98381 -2.0789,6.73411 -7.9951,14.42297 -4.27444,5.55518 -5.08922,12.6276 -2.53609,22.01339 0.84156,3.09375 1.8943,10.0173 2.3394,15.38566 0.44512,5.36837 1.36626,11.22559 2.047,13.01605 0.79059,2.07943 0.80429,3.68879 0.0379,4.45518 -1.32276,1.32276 0.76116,7.14311 2.55753,7.14311 0.57714,0 1.04936,0.7539 1.04936,1.67535 0,3.36279 7.74565,17.05911 11.37398,20.11216 3.54843,2.9858 3.64141,3.30585 1.92123,6.61258 -0.99423,1.9112 -3.26738,4.83858 -5.05145,6.5053 -1.78406,1.66672 -3.24377,3.68967 -3.24377,4.49546 0,3.88357 7.99651,16.59455 13.33409,21.19541 1.9475,1.6787 4.94716,4.25301 6.66591,5.7207 1.71875,1.46768 7.06251,4.96405 11.875,7.76971 11.23347,6.54904 23.48988,16.40373 30.625,24.62383 9.42843,10.86212 10.43067,12.13849 16.25001,20.69466 3.09375,4.54874 7.64246,10.9028 10.10823,14.12014 4.72169,6.16082 7.79572,11.2866 9.88022,16.4747 1.59592,3.97209 3.6514,7.16162 7.19905,11.17095 1.54687,1.74817 2.8125,3.52006 2.8125,3.93751 0,0.41746 0.98437,1.95559 2.1875,3.41808 1.20312,1.46248 3.59375,4.65562 5.3125,7.09585 1.71875,2.44022 4.39062,5.85868 5.9375,7.59658 1.54687,1.73792 2.8125,3.69335 2.8125,4.34543 0,0.65207 1.125,1.1856 2.5,1.1856 1.375,0 2.43338,0.42187 2.35197,0.9375 -0.43484,2.75399 0.50318,3.64584 3.83461,3.64584 2.81137,0 5.5564,1.80012 11.5625,7.5824 9.54245,9.18682 14.65588,13.39593 17.56342,14.45728 1.20312,0.43919 2.1875,1.37867 2.1875,2.08775 0,0.70908 0.47825,1.28923 1.06278,1.28923 3.0917,0 18.06552,10.33999 24.87472,17.17694 6.9887,7.01717 7.8125,8.37458 7.8125,12.87292 0,3.65161 -0.599,5.24726 -2.1875,5.82712 -1.20313,0.43917 -3.875,2.11749 -5.9375,3.72961 -5.22554,4.08441 -5.80142,4.50001 -9.73893,7.02823 -3.81149,2.44732 -14.93172,8.46854 -15.13475,8.19496 -0.0695,-0.0936 -1.53257,-0.42065 -3.25132,-0.72673 z M 65.177657,223.125 c -0.191051,-3.4375 -0.731056,-8.01154 -1.200011,-10.16454 -0.925494,-4.24897 -11.655492,-16.80192 -12.414805,-14.52399 -0.25546,0.76639 -2.961606,6.28725 -6.013657,12.2686 C 42.497132,216.68641 40,222.286 40,223.14859 c 0,0.94 3.26142,2.18372 8.140514,3.10433 4.477282,0.8448 8.467572,2.0652 8.867311,2.71199 0.399737,0.64679 2.479637,1.00367 4.621997,0.79304 3.84354,-0.37788 3.890594,-0.46584 3.547835,-6.63295 z M 255.28368,184.71936 c 5.31227,-5.6894 9.677,-11.46936 9.69937,-12.84436 0.0224,-1.375 2.29508,-6.05361 5.05042,-10.39691 2.75536,-4.3433 4.73412,-8.34287 4.39725,-8.88792 -0.33686,-0.54506 -3.24295,-1.35156 -6.45798,-1.79222 -3.21504,-0.44068 -6.46477,-1.28933 -7.22163,-1.88589 -0.75686,-0.59656 -4.46986,-1.76331 -8.25111,-2.59276 -11.61293,-2.54739 -27.15628,-9.1557 -34.49299,-14.66484 -5.08125,-3.8155 -6.39124,-3.66545 -7.38201,0.84554 -0.453,2.0625 -1.22845,3.75 -1.72321,3.75 -0.49477,0 -1.65434,2.10937 -2.57684,4.6875 -0.9225,2.57812 -2.15616,4.99927 -2.74149,5.38032 -0.58531,0.38105 -1.41219,3.2316 -1.8375,6.33455 -0.58669,4.28038 -0.28856,6.12647 1.23553,7.65054 2.57446,2.57447 4.51333,7.68773 4.53733,11.96596 0.0444,7.91692 5.03935,16.48113 9.61238,16.48113 0.90936,0 5.16122,1.71115 9.44859,3.80256 6.31816,3.08204 8.86105,3.68021 13.42021,3.15686 5.12931,-0.5888 6.47614,-1.55727 15.28368,-10.99006 z"
       id="path3420"
       inkscape:connector-curvature="0" />
    <path
       style="fill:#0095fd"
       d="m 412.33121,599.92319 c -2.49908,-2.59948 -6.43658,-5.252 -8.75,-5.8945 -5.56442,-1.5454 -11.57687,-7.33049 -13.4187,-12.91125 -1.61072,-4.88058 -18.12375,-23.00247 -19.93836,-21.88096 -0.60355,0.37301 -1.81027,-0.84948 -2.6816,-2.71664 -0.87133,-1.86717 -2.15774,-4.49429 -2.85869,-5.83808 -0.90082,-1.72692 -0.85806,-2.58202 0.14584,-2.91666 0.78116,-0.26039 1.4203,-1.01308 1.4203,-1.67264 0,-2.5044 -10.79709,-15.84031 -20.20615,-24.95741 -5.38661,-5.21948 -9.79385,-10.13063 -9.79385,-10.91369 0,-0.78305 -1.40625,-1.77667 -3.125,-2.20806 -1.71875,-0.43138 -3.1276,-1.14521 -3.13079,-1.58631 -0.009,-1.25119 -6.3105,-7.64515 -14.95744,-15.17699 C 296.18499,474.82934 280,459.13015 280,457.26486 c 0,-0.48166 -1.96606,-3.01641 -4.36902,-5.6328 -2.40297,-2.61639 -4.37172,-5.41656 -4.375,-6.22262 C 271.24954,443.8293 258.84871,432.5 257.12556,432.5 c -1.04217,0 -8.78575,-5.48936 -11.90235,-8.4375 -0.90847,-0.85938 -2.07049,-1.5625 -2.58224,-1.5625 -2.22852,0 -12.35225,-11.71123 -15.50335,-17.93445 -3.93427,-7.76994 -6.29031,-10.15816 -8.99671,-9.11963 -2.51565,0.96536 -2.3843,3.67629 0.45019,9.29138 1.3799,2.73356 2.65424,8.74347 3.10376,14.6377 1.1176,14.654 1.50638,16.63508 5.15138,26.25 1.82441,4.8125 3.89597,10.79906 4.60346,13.30346 0.97897,3.4654 2.82544,5.55075 7.7274,8.72711 7.45579,4.83119 11.5997,9.22564 12.68896,13.45616 0.91221,3.54286 13.70006,16.38827 16.31484,16.38827 1.0005,0 1.8191,-0.5625 1.8191,-1.25 0,-0.6875 0.60267,-1.25 1.33929,-1.25 0.7366,0 2.18304,-0.84375 3.21428,-1.875 2.62163,-2.62164 10.31223,-2.32858 15.07324,0.5744 6.53316,3.9835 9.04131,10.7377 11.62339,31.3006 1.11906,8.91185 2.33367,12.90386 7.41634,24.375 7.2091,16.27029 8.1619,19.90795 8.18527,31.25 0.0197,9.59874 -0.41514,12.01504 -2.96309,16.46215 -1.64246,2.86669 -4.17371,5.53089 -5.625,5.92044 -4.42281,1.18715 -12.22737,0.84939 -11.39757,-0.49328 0.42004,-0.67962 -10e-4,-0.94197 -0.93716,-0.583 -2.97683,1.14233 -12.9554,-11.69965 -18.04662,-23.22516 -1.37727,-3.11788 -3.2274,-8.6838 -4.1114,-12.36874 -0.884,-3.68492 -2.3719,-8.1652 -3.30642,-9.95613 -0.93454,-1.79095 -1.70395,-4.66253 -1.70983,-6.38128 -0.006,-1.71875 -2.25933,-6.4353 -5.0077,-10.48121 -2.74836,-4.04591 -4.99702,-7.86558 -4.99702,-8.48812 0,-0.62254 -1.23079,-2.79662 -2.73508,-4.83128 -2.39868,-3.24442 -3.51326,-3.70214 -9.0625,-3.72172 -5.0171,-0.0177 -8.77848,-1.24727 -18.1633,-5.9375 -12.07675,-6.03556 -16.63017,-10.51262 -19.55345,-19.22558 -1.04238,-3.10687 -19.14888,-25.36806 -29.54817,-36.32825 C 177.10937,458.26915 175,455.60933 175,455.0756 c 0,-0.53371 -2.36211,-1.47219 -5.24914,-2.0855 -4.70669,-0.99986 -5.61905,-1.82557 -8.82867,-7.9901 -1.96874,-3.78125 -4.10663,-7.0625 -4.75087,-7.29166 C 155.5271,437.47916 155,436.49479 155,435.52084 c 0,-0.97397 -1.125,-2.89584 -2.5,-4.27084 -1.375,-1.375 -2.5,-3.66253 -2.5,-5.0834 0,-1.42088 -1.40625,-4.42709 -3.125,-6.68049 -1.71875,-2.2534 -3.125,-4.47163 -3.125,-4.92942 0,-0.45778 -1.96875,-3.63329 -4.375,-7.05669 -2.40625,-3.4234 -4.375,-6.54891 -4.375,-6.94559 0,-0.39666 -1.40625,-2.5649 -3.125,-4.8183 -1.71875,-2.2534 -3.125,-4.74712 -3.125,-5.5416 0,-0.79449 -0.58015,-1.44451 -1.28923,-1.44451 -0.70908,0 -1.66172,-0.98438 -2.117,-2.1875 -1.28829,-3.40452 -9.19866,-14.0625 -10.43721,-14.0625 -0.60991,0 -1.46188,-1.40625 -1.89325,-3.125 -0.43138,-1.71875 -1.18558,-3.125 -1.676,-3.125 -2.40039,0 -8.92108,-20.25644 -7.79525,-24.21585 0.17059,-0.59998 -0.60061,-0.74135 -1.71378,-0.31419 -1.30204,0.49964 -3.21517,-0.5106 -5.36362,-2.83229 -5.760819,-6.22533 -6.149446,-7.03672 -7.038269,-14.69488 -0.695854,-5.99551 -0.482451,-7.79764 1.076595,-9.09153 1.600448,-1.32825 1.673312,-2.08816 0.411825,-4.29502 -2.11989,-3.70855 -1.958426,-28.1387 0.194769,-29.46945 1.251731,-0.77362 1.118264,-2.95085 -0.645671,-10.53278 -1.754794,-7.54263 -3.09066,-10.398 -6.33648,-13.54396 -4.05934,-3.93447 -4.19098,-3.96639 -10.106735,-2.45023 -9.368595,2.40111 -23.008829,3.60079 -43.588222,3.83367 -23.5765671,0.2668 -24.6906229,0.0113 -26.5124254,-6.06884 -2.5545547,-8.52635 -1.1272877,-32.43154 2.3268359,-38.97201 0.5874221,-1.1123 1.7347409,-6.7373 2.5495971,-12.5 1.7927904,-12.67869 5.0297064,-23.28415 10.0740114,-33.00658 2.689553,-5.18386 4.145631,-10.34818 5.07387,-17.99566 0.716008,-5.89896 1.740096,-11.2879 2.27575,-11.9754 0.535654,-0.6875 1.38347,-2.58354 1.884035,-4.21341 1.754458,-5.71265 8.670171,-13.92377 15.913865,-18.89477 C 48.038771,112.25757 51.853535,110 52.495262,110 c 1.890862,0 4.034743,-5.04426 3.314484,-7.79853 -0.610732,-2.335444 3.145855,-7.041198 5.71571,-7.159884 0.49525,-0.02287 4.071486,-1.492047 7.947192,-3.264832 3.875705,-1.772785 8.952352,-3.31966 11.281438,-3.4375 2.329088,-0.117838 4.237226,-0.636129 4.240309,-1.151754 0.0031,-0.515625 2.288802,-0.9375 5.079376,-0.9375 2.790574,0 4.758548,-0.510043 4.373275,-1.133426 -0.385272,-0.623385 0.42528,-0.83903 1.801229,-0.479212 3.060065,0.800225 3.430765,-2.754706 0.694607,-6.661118 C 95.948968,76.557232 94.495731,72.635198 93.713469,69.260611 92.931205,65.886025 91.813066,62 91.228716,60.625 90.195023,58.192676 88.639104,36.929044 88.759136,26.875 88.872417,17.386378 100.61955,5.51731 111.31758,4.0824031 114.33535,3.677636 116.25,2.7568834 116.25,1.7104136 c 0,-1.91628573 8.13801,-2.46190651 9.27521,-0.621866 0.37003,0.5987013 2.474,1.4487947 4.67551,1.8890964 5.4177,1.0835404 14.43504,6.5061293 16.151,9.712421 1.12877,2.109124 1.07307,2.414344 -0.28951,1.5863 -0.92796,-0.56393 -0.11637,1.049533 1.80346,3.585471 2.78452,3.678021 3.72682,6.681185 4.6579,14.844918 0.64198,5.628766 1.82475,10.64049 2.62839,11.137162 2.81724,1.741151 0.37478,11.44834 -3.82479,15.200964 -3.22553,2.882266 -3.82717,4.329216 -3.82717,9.204374 l 0,5.784495 4.0625,-0.63639 c 4.16422,-0.652325 14.6875,1.461901 14.6875,2.950858 0,0.456339 2.8739,1.210942 6.38644,1.676897 3.51253,0.465955 8.71566,1.627897 11.5625,2.582092 2.84683,0.954196 11.78235,2.340555 19.8567,3.080798 13.13636,1.204318 16.86637,2.129663 26.7857,6.645015 1.49397,0.680073 5.97698,3.924815 9.96222,7.210538 6.4479,5.316113 8.12344,6.068023 15.21404,6.827353 8.36188,0.89549 15.83675,3.86782 25.2324,10.03352 7.35664,4.82763 12.16223,6.89672 14.20099,6.11438 0.90666,-0.34792 2.34222,0.20333 3.19014,1.225 0.84791,1.02167 2.36548,1.54145 3.3724,1.15507 1.00691,-0.38639 4.39806,0.27794 7.5359,1.4763 4.34987,1.66123 6.12431,3.18201 7.46963,6.40182 0.97048,2.32265 2.31944,4.223 2.99772,4.223 0.67827,0 1.23322,0.73446 1.23322,1.63215 0,0.89769 1.40625,3.53821 3.125,5.86785 1.7781,2.41007 3.125,5.93561 3.125,8.17975 0,5.22016 -5.31152,12.87477 -13.37405,19.27376 -3.57446,2.83696 -10.2462,9.0395 -14.82607,13.78341 -4.94729,5.1245 -9.75777,8.93955 -11.85208,9.39954 -1.93879,0.42583 -4.1953,1.58183 -5.01449,2.56889 -0.81918,0.98706 -2.28195,1.79465 -3.2506,1.79465 -0.96865,0 -2.08495,0.84375 -2.48067,1.875 -0.39574,1.03125 -1.20229,1.875 -1.79236,1.875 -1.63785,0 -11.45902,6.48232 -15.15068,10 -1.80376,1.71875 -3.47866,4.25 -3.72201,5.625 -0.26136,1.47686 -2.0042,3.01157 -4.25851,3.75 C 247.61783,221.98788 240,227.88879 240,229.74885 c 0,0.63812 1.38451,2.54475 3.0767,4.23694 4.34351,4.34352 10.6733,16.84636 10.6733,21.08232 0,4.01518 -2.19661,9.52401 -5,12.53939 -4.76595,5.12635 -5.64232,7.18652 -5.9206,13.91809 -0.16257,3.93281 0.32029,8.71406 1.07304,10.625 1.7183,4.36208 4.7579,31.04728 3.90706,34.30086 -0.36834,1.40857 0.419,3.5681 1.88534,5.17109 1.3848,1.51385 2.89941,4.01107 3.36579,5.54938 1.43167,4.72228 6.7077,13.42464 10.03297,16.54858 4.2695,4.01099 3.97556,5.98897 -1.81675,12.22536 -5.27849,5.68318 -5.30566,6.16718 -0.78906,14.05414 6.17934,10.79045 19.67891,23.44515 28.16692,26.40409 2.11492,0.73726 3.84529,1.84795 3.84529,2.4682 0,0.62023 0.72351,1.12771 1.6078,1.12771 0.88428,0 4.11865,2.23404 7.1875,4.96452 3.06884,2.73049 5.97871,4.98049 6.46639,5 0.84609,0.0339 7.43306,6.68555 16.26732,16.42715 2.25279,2.48418 6.32577,7.82793 9.05105,11.875 2.72528,4.04708 6.10028,8.82695 7.5,10.62194 1.39972,1.79499 3.38869,4.53196 4.41994,6.08216 1.03125,1.55022 2.83031,4.07087 3.99791,5.60145 1.16762,1.53059 4.08072,6.68392 6.47357,11.45184 2.39285,4.76791 5.79691,10.2295 7.56458,12.13684 1.76766,1.90735 3.21394,3.72868 3.21394,4.04741 0,1.61489 17.03676,23.04169 18.32079,23.04169 0.82275,0 1.68221,0.96746 1.90993,2.14991 0.27035,1.4038 1.71203,2.2176 4.15416,2.34495 3.8562,0.20109 13.11512,7.45948 13.11512,10.28139 0,0.81056 0.79687,1.47375 1.77084,1.47375 0.97395,0 1.95832,0.51228 2.1875,1.13839 0.56531,1.54451 13.97095,11.30334 21.66666,15.77256 3.4375,1.9963 6.9933,4.35175 7.90179,5.23434 0.90847,0.88258 2.18667,1.60471 2.84042,1.60471 1.94885,0 12.38279,10.17326 12.38279,12.07343 0,0.96527 0.84375,2.07881 1.875,2.47453 1.1534,0.44262 1.875,2.34068 1.875,4.93196 0,3.24598 -0.78868,4.70088 -3.4375,6.3413 -1.89063,1.17087 -4,2.73072 -4.6875,3.46632 -1.7517,1.87426 -10.16569,7.35042 -17.08721,11.12104 -8.32422,4.53474 -13.10498,4.09125 -18.70658,-1.73539 z M 65.802204,226.5625 c -0.355538,-1.89063 -1.0202,-6.8125 -1.477025,-10.9375 -0.723069,-6.52909 -1.438422,-8.07854 -5.525913,-11.96908 -2.582426,-2.458 -4.979199,-5.2705 -5.326162,-6.25 -0.346963,-0.97951 -0.874978,-1.49967 -1.173364,-1.15592 -1.630184,1.87801 -12.300139,24.66977 -12.299956,26.27356 2.58e-4,2.27176 14.443654,7.17721 21.662035,7.35713 4.565771,0.11375 4.756967,-0.0394 4.140385,-3.31819 z M 243.87045,195.38307 c 5.53611,-2.7546 19.66313,-17.61008 20.57225,-21.63307 0.38841,-1.71875 1.23929,-3.96875 1.89082,-5 0.65154,-1.03125 1.86127,-3.28125 2.68828,-5 0.82701,-1.71875 2.51043,-4.46649 3.74092,-6.10608 3.26703,-4.35317 2.82982,-6.39392 -1.36983,-6.39392 -1.98392,0 -5.21829,-0.84029 -7.1875,-1.8673 -1.96922,-1.02701 -4.47084,-1.87076 -5.55916,-1.875 -7.19009,-0.028 -39.73103,-13.75469 -43.15903,-18.20573 -0.7633,-0.99108 -1.8883,-1.7845 -2.5,-1.76313 -1.87219,0.0654 -11.7372,23.00001 -11.7372,27.2872 0,2.21386 1.1668,5.60337 2.59289,7.53226 1.65788,2.24242 3.00705,6.80545 3.74141,12.65397 1.18085,9.40433 3.52985,13.73773 7.4468,13.73773 1.179,0 6.29495,1.93209 11.36877,4.29351 10.7633,5.00942 11.8203,5.15096 17.47058,2.33956 z"
       id="path3418"
       inkscape:connector-curvature="0" />
  </g>
</svg>
