<?xml version="1.0" encoding="UTF-8" standalone="no"?>
<!-- Created with Inkscape (http://www.inkscape.org/) -->

<svg
   xmlns:dc="http://purl.org/dc/elements/1.1/"
   xmlns:cc="http://creativecommons.org/ns#"
   xmlns:rdf="http://www.w3.org/1999/02/22-rdf-syntax-ns#"
   xmlns:svg="http://www.w3.org/2000/svg"
   xmlns="http://www.w3.org/2000/svg"
   xmlns:sodipodi="http://sodipodi.sourceforge.net/DTD/sodipodi-0.dtd"
   xmlns:inkscape="http://www.inkscape.org/namespaces/inkscape"
   id="svg3406"
   version="1.1"
   inkscape:version="0.91 r13725"
   width="313.75159"
   height="723.96106"
   viewBox="0 0 313.75159 723.96106"
   sodipodi:docname="5845b7f7e2baa348389aced0 copie.svg">
  <title
     id="title3340">Silhouette Football 14</title>
  <metadata
     id="metadata3412">
    <rdf:RDF>
      <cc:Work
         rdf:about="">
        <dc:format>image/svg+xml</dc:format>
        <dc:type
           rdf:resource="http://purl.org/dc/dcmitype/StillImage" />
        <dc:title>Silhouette Football 14</dc:title>
        <cc:license
           rdf:resource="http://creativecommons.org/publicdomain/zero/1.0/" />
        <dc:date>2017-03-18</dc:date>
        <dc:creator>
          <cc:Agent>
            <dc:title>JLouis</dc:title>
          </cc:Agent>
        </dc:creator>
        <dc:rights>
          <cc:Agent>
            <dc:title>Domaine pubic</dc:title>
          </cc:Agent>
        </dc:rights>
        <dc:publisher>
          <cc:Agent>
            <dc:title>inkscape</dc:title>
          </cc:Agent>
        </dc:publisher>
        <dc:subject>
          <rdf:Bag>
            <rdf:li>silhouette</rdf:li>
            <rdf:li>soccer</rdf:li>
            <rdf:li>player</rdf:li>
            <rdf:li>sport</rdf:li>
            <rdf:li>football</rdf:li>
            <rdf:li>joueurs</rdf:li>
          </rdf:Bag>
        </dc:subject>
        <dc:description>Soccer player in silhouette - Joueur de football en silhouette</dc:description>
      </cc:Work>
      <cc:License
         rdf:about="http://creativecommons.org/publicdomain/zero/1.0/">
        <cc:permits
           rdf:resource="http://creativecommons.org/ns#Reproduction" />
        <cc:permits
           rdf:resource="http://creativecommons.org/ns#Distribution" />
        <cc:permits
           rdf:resource="http://creativecommons.org/ns#DerivativeWorks" />
      </cc:License>
    </rdf:RDF>
  </metadata>
  <defs
     id="defs3410" />
  <sodipodi:namedview
     pagecolor="#ffffff"
     bordercolor="#666666"
     borderopacity="1"
     objecttolerance="10"
     gridtolerance="10"
     guidetolerance="10"
     inkscape:pageopacity="0"
     inkscape:pageshadow="2"
     inkscape:window-width="1238"
     inkscape:window-height="756"
     id="namedview3408"
     showgrid="false"
     fit-margin-top="0"
     fit-margin-left="0"
     fit-margin-right="0"
     fit-margin-bottom="0"
     inkscape:zoom="0.73977087"
     inkscape:cx="-122.48341"
     inkscape:cy="354.58606"
     inkscape:window-x="0"
     inkscape:window-y="0"
     inkscape:window-maximized="1"
     inkscape:current-layer="svg3406" />
  <g
     id="g3416"
     transform="translate(-30,-12.5)">
    <path
       style="fill:#d5e4ed"
       d="m 214.34801,732.52109 c -3.72484,-3.72484 -3.74805,-3.72945 -21.22596,-4.2211 -9.62338,-0.2707 -20.45018,-1.17055 -24.05955,-1.99967 -5.64463,-1.29663 -6.5625,-1.92147 -6.5625,-4.46737 0,-4.58229 2.60981,-15.82755 4.55952,-19.64622 0.96552,-1.89107 2.28499,-6.23038 2.93217,-9.64292 0.64717,-3.41255 3.4513,-9.94872 6.23138,-14.52485 3.74588,-6.16582 5.852,-11.78219 8.13383,-21.69035 1.6935,-7.35357 4.0345,-15.58267 5.2022,-18.28687 1.40119,-3.2449 2.4368,-10.44224 3.04566,-21.16674 0.86825,-15.29342 1.29026,-17.24959 7.16905,-33.23065 5.39319,-14.66099 6.37069,-18.75916 7.15565,-30 0.50004,-7.16064 1.49843,-13.39742 2.21864,-13.85952 2.08132,-1.33539 -1.23879,-22.773 -5.37843,-34.72802 -3.08972,-8.9229 -4.25797,-10.82667 -7.93252,-12.92666 -3.73283,-2.1333 -4.41846,-3.28644 -5.12619,-8.62151 -0.44935,-3.38735 -3.3346,-12.17191 -6.41169,-19.52124 l -5.59468,-13.3624 0.69892,13.125 c 0.92265,17.32606 2.71669,31.17896 6.35646,49.0824 3.19953,15.73786 4.00807,36.5777 1.73642,44.75516 -1.20907,4.35233 -12.96557,16.1725 -19.60172,19.70788 -6.44572,3.43392 -25.60171,-0.86108 -30.26145,-6.78499 -1.30241,-1.65575 -3.29937,-3.01045 -4.4377,-3.01045 -6.22372,0 -19.6105,-11.45413 -26.34658,-22.5429 -6.29335,-10.35998 -7.672214,-11.18221 -8.686319,-5.17978 -0.975587,5.77445 -14.790266,30.91785 -17.902525,32.58348 -1.186457,0.63497 -4.521705,1.32522 -7.411661,1.53389 -6.645465,0.47981 -10.066926,-2.49279 -14.666808,-12.74269 -2.633222,-5.8676 -3.320516,-9.32353 -3.320516,-16.69658 0,-11.98872 1.57591,-17.69561 8.479048,-30.70542 5.577191,-10.5109 14.320586,-31.29566 15.847765,-37.67323 0.434387,-1.81402 2.783132,-5.0484 5.219431,-7.1875 C 88.387426,465.39472 89.657184,465 96.918495,465 103.07537,465 105,464.57627 105,463.22077 c 0,-0.97857 -1.67313,-8.71295 -3.71806,-17.1875 C 95.810348,423.35805 93.718256,409.98759 92.905531,392.5 92.242253,378.22805 91.8144,376.07499 87.964685,367.63646 c -4.888223,-10.71492 -5.162788,-13.93231 -1.671088,-19.582 l 2.543597,-4.11562 -6.723827,-5.40693 C 78.415264,335.55811 72.732829,329.65512 69.485735,325.41417 56.610687,308.59836 30,260.88691 30,254.6185 30,249.80305 33.85088,240 35.742502,240 c 0.987543,0 1.760032,-1.23215 1.763282,-2.8125 0.0031,-1.54688 1.813065,-4.74108 4.021963,-7.09821 2.208899,-2.35714 4.105537,-4.88839 4.21475,-5.625 0.444188,-2.9959 8.313222,-14.88294 11.787568,-17.8064 2.045964,-1.72157 3.719935,-4.22655 3.719935,-5.56664 0,-4.70533 16.667266,-33.89408 23.793402,-41.66848 3.805122,-4.15127 9.402449,-10.57325 12.438506,-14.27105 5.055032,-6.15683 7.526232,-7.71131 29.331592,-18.45068 13.09632,-6.45007 27.26574,-14.066 31.48759,-16.92429 6.77467,-4.5866 7.75286,-5.76929 8.32987,-10.071221 0.45252,-3.37373 -0.14418,-6.676268 -1.93823,-10.727434 -2.47199,-5.582021 -2.93602,-11.939166 -2.16079,-29.603095 0.0905,-2.0625 -0.23718,-10.31017 -0.72821,-18.328155 -0.83848,-13.691394 -0.72497,-14.849683 1.86602,-19.042004 5.42886,-8.784082 7.32334,-9.505656 24.93632,-9.49787 17.07444,0.0075 24.24727,1.327811 28.48889,5.243803 1.49599,1.381131 3.34875,2.12254 4.11727,1.647575 1.91874,-1.185854 4.76792,1.422292 7.58416,6.942568 1.48964,2.91993 3.75068,5.116682 6.11465,5.940765 5.2098,1.816145 5.96121,6.032205 3.13621,17.596978 -1.58476,6.48764 -2.2296,13.18331 -2.03526,21.133501 0.32431,13.268291 -1.5333,18.927659 -7.33834,22.356783 -3.02611,1.787568 -3.73301,3.322173 -5.00554,10.866516 -1.09962,6.51931 -1.11655,8.90673 -0.0656,9.25703 0.77887,0.25962 5.20881,3.41939 9.84434,7.02171 4.63551,3.60233 12.08445,8.97349 16.55319,11.93592 10.663,7.06874 18.42982,14.61908 19.91155,19.3566 4.33018,13.84475 4.51549,37.66194 0.48204,61.95533 l -1.97362,11.88705 5.33358,10.61295 C 283.20235,255.06362 298.7082,275 303.88263,275 c 3.15576,0 7.16047,4.64439 8.84086,10.253 1.2774,4.26361 2.38597,5.18134 11.53538,9.5495 5.5672,2.65792 11.28498,5.20164 12.70618,5.65271 5.52051,1.75214 7.91713,12.18574 6.00445,26.1402 -0.56404,4.11514 -1.43069,5.86437 -3.125,6.30744 -1.35089,0.35326 -2.3445,1.72221 -2.3445,3.23012 0,1.73439 -0.79806,2.61703 -2.36626,2.61703 -1.30145,0 -2.69004,0.84375 -3.08578,1.875 -1.41996,3.70036 -11.76406,1.52612 -16.00541,-3.3642 -3.1244,-3.60246 -2.87781,-5.81628 0.74924,-6.72661 1.69053,-0.4243 2.78182,-1.44086 2.4566,-2.2884 -0.63908,-1.66539 -7.52516,-4.49579 -10.93783,-4.49579 -1.17531,0 -3.80161,-1.89595 -5.83621,-4.21324 -2.63119,-2.99675 -5.17929,-4.4499 -8.8253,-5.03291 -4.51816,-0.72249 -5.35446,-1.40123 -7.05236,-5.72365 -1.41381,-3.59923 -2.83345,-5.1032 -5.33583,-5.65281 -1.87522,-0.41188 -4.94999,-2.35678 -6.83281,-4.32201 -1.88281,-1.96524 -5.32584,-3.93008 -7.65115,-4.36632 -2.98205,-0.55942 -5.80049,-2.61928 -9.56488,-6.99049 -2.93536,-3.40853 -5.99997,-6.19762 -6.81023,-6.19796 -1.557,-6.5e-4 -4.69523,-2.75278 -6.31172,-5.5352 -0.53078,-0.91363 -2.72477,-2.04053 -4.87552,-2.50421 -3.52705,-0.76039 -4.00108,-0.49956 -4.83483,2.66037 -0.50841,1.92689 -0.81582,7.43994 -0.68312,12.25124 0.23086,8.37049 0.53515,9.18047 7.05482,18.77848 8.61138,12.67732 9.17198,15.99774 5.0066,29.65385 -3.73958,12.2602 -4.01876,17.36679 -1.37513,25.1534 1.03558,3.05025 1.57248,6.35479 1.19311,7.34341 -0.37938,0.98864 0.17957,2.51901 1.24211,3.40084 1.06254,0.88182 1.93189,3.11985 1.93189,4.97338 0,5.87429 3.6241,15.86028 8.13691,22.42075 4.5817,6.66062 5.1385,9.20083 3.1584,14.40891 -0.8531,2.24381 -0.47674,7.63055 1.28956,18.45712 3.80523,23.32417 3.12067,40.26523 -2.17837,53.90915 -2.32013,5.97383 -2.46641,9.44078 -1.06728,25.29313 0.79384,8.99428 0.58105,12.71923 -1.04637,18.31737 C 255.91929,534.09755 255,540.27066 255,543.95064 c 0,3.67997 -0.54665,8.59695 -1.21479,10.9266 -2.04442,7.12846 -5.26689,26.57281 -5.71724,34.49776 -0.32328,5.689 -2.28865,12.02749 -8.1393,26.25 -4.24221,10.3125 -9.66048,22.61748 -12.04061,27.34439 l -4.3275,8.59437 4.78221,-1.09437 c 2.63023,-0.60191 10.12598,-1.06915 16.65723,-1.03831 21.64722,0.10225 33.32799,7.36261 42.78647,26.59465 3.71524,7.55423 4.07333,9.28495 3.92205,18.95625 -0.25668,16.41092 -7.07482,32.03042 -15.38821,35.25248 -3.38561,1.31216 -44.71146,5.97032 -53.21935,5.99875 -3.92231,0.0131 -5.84175,-0.80092 -8.75295,-3.71212 z M 97.92318,259.27907 96.875,238.44402 l -5.189723,4.21549 c -3.430885,2.78683 -5.462345,5.5923 -5.994141,8.27799 -0.44243,2.23437 -1.303525,4.0625 -1.913542,4.0625 -2.54147,0 -2.608047,5.12609 -0.1121,8.63132 1.421479,1.99628 2.584506,4.52714 2.584506,5.62414 0,1.097 0.84375,1.99454 1.875,1.99454 1.03125,0 1.875,0.85139 1.875,1.89196 0,1.74524 1.22742,4.63081 3.980573,9.35804 0.600605,1.03125 1.467928,3 1.927387,4.375 2.022156,6.05161 3.020325,-7.61708 2.01522,-27.59593 z m 140.98263,5.67798 c 0.54695,-0.36738 -0.10812,-1.35653 -1.45567,-2.1981 -2.27205,-1.41891 -2.44738,-1.18865 -2.41213,3.16796 0.0335,4.14657 0.20444,4.4046 1.45568,2.19809 0.77971,-1.375 1.86516,-2.80058 2.41212,-3.16795 z"
       id="path3430"
       inkscape:connector-curvature="0" />
    <path
       style="fill:#a1cbe7"
       d="m 214.26841,732.44149 c -3.80661,-3.80662 -3.81665,-3.8087 -19.97596,-4.15784 -8.8921,-0.19213 -19.74424,-1.09475 -24.11586,-2.00585 l -7.94843,-1.65654 0.83673,-6.30755 c 0.4602,-3.46915 1.98237,-9.43081 3.38261,-13.24812 1.40024,-3.81733 3.06139,-9.47184 3.69144,-12.56559 0.63005,-3.09375 3.57377,-9.84375 6.5416,-15 3.77856,-6.56479 6.06627,-12.5599 7.63192,-20 1.22973,-5.84375 3.35938,-13.4375 4.73254,-16.875 1.76395,-4.41574 2.78084,-11.0191 3.4649,-22.5 0.90469,-15.18365 1.38279,-17.39837 7.2857,-33.75 5.29615,-14.67085 6.4433,-19.41977 7.09582,-29.375 0.42809,-6.53125 1.39945,-13.1439 2.15858,-14.69476 3.53615,-7.22426 -5.45761,-44.23555 -11.50558,-47.34797 -4.55573,-2.3445 -5.51918,-3.92053 -7.08288,-11.58638 -1.26259,-6.18972 -5.6389,-17.93114 -10.52792,-28.24589 -0.7818,-1.64944 -0.94897,2.39075 -0.49136,11.875 0.85089,17.63494 2.40169,29.8159 6.30614,49.53205 3.2336,16.32855 3.89729,33.3038 1.65091,42.22499 -1.04942,4.16762 -3.00136,6.81706 -8.75119,11.87826 -12.72117,11.19765 -15.87133,11.95837 -30.28975,7.31461 -5.54608,-1.78624 -9.36418,-3.82292 -10.54495,-5.625 -1.01802,-1.5537 -2.77063,-2.83018 -3.89468,-2.83664 -6.42567,-0.0369 -22.54546,-13.67677 -27.31557,-23.11327 -1.04258,-2.0625 -3.06688,-5.03055 -4.49844,-6.59568 l -2.60284,-2.84566 -2.674073,7.84566 c -2.89956,8.50725 -13.177855,26.67146 -16.589688,29.31795 -1.249609,0.96929 -4.66716,1.51419 -8.363129,1.33342 -5.963106,-0.29165 -6.435701,-0.58355 -10.29551,-6.35902 -5.534494,-8.28131 -6.97715,-14.51 -6.270201,-27.07167 0.556248,-9.88391 1.096497,-11.61848 7.74558,-24.86856 C 71.294559,498.71165 78.75,480.75276 78.75,477.32455 c 0,-1.2987 1.924775,-4.46238 4.277279,-7.03041 4.167464,-4.54926 4.504356,-4.66914 13.121916,-4.66914 10.686685,0 10.486745,0.78334 5.203235,-20.38561 -4.999226,-20.02995 -7.528069,-36.01354 -8.684374,-54.88972 -0.885369,-14.45327 -1.356637,-16.71532 -4.948311,-23.75152 -4.640992,-9.09185 -4.824297,-11.27269 -1.495885,-17.79691 l 2.473861,-4.84916 -7.543275,-6.53485 C 72.96117,330.31926 63.306475,317.37018 52.324609,298.75 42.46999,282.04111 31.680764,261.25685 30.738647,257.167 29.691946,252.62314 33.350171,240 35.713698,240 36.696164,240 37.5,238.89457 37.5,237.5435 c 0,-1.35109 1.765757,-4.4676 3.923905,-6.92559 2.158149,-2.458 5.464769,-7.6807 7.348048,-11.606 1.883277,-3.9253 5.46127,-9.07539 7.951093,-11.44462 2.489825,-2.36924 4.526954,-5.11831 4.526954,-6.10905 0,-4.13725 18.345649,-35.89008 24.969784,-43.21794 3.797868,-4.20134 9.155216,-10.39483 11.905216,-13.76329 4.44349,-5.44282 7.56588,-7.3734 28.05318,-17.34523 20.6492,-10.05065 31.14406,-15.95247 37.93306,-21.33176 3.01013,-2.38511 3.16731,-11.094185 0.33025,-18.30002 -2.0438,-5.191044 -2.48568,-11.813769 -1.83485,-27.5 0.0999,-2.40625 -0.21733,-10.84375 -0.70482,-18.75 l -0.88635,-14.375 3.85684,-5.964476 c 2.12126,-3.280462 5.3044,-6.514837 7.07364,-7.1875 4.41567,-1.678834 29.37871,-1.54269 36.56302,0.199408 3.22632,0.782339 7.0442,2.48574 8.4842,3.785338 1.45332,1.311606 3.49458,2.0266 4.58798,1.607024 1.41112,-0.541498 3.21684,1.193558 6.36667,6.117548 2.88377,4.508055 5.38282,7.014392 7.26188,7.283044 4.75425,0.679725 5.65585,5.848548 2.85132,16.346549 -1.74947,6.548731 -2.33566,12.332903 -2.11293,20.849387 0.2569,9.82357 -0.12758,12.68656 -2.30874,17.192249 -1.64518,3.398485 -3.69448,5.676365 -5.51865,6.134203 -2.44056,0.612541 -3.11774,1.968922 -4.26119,8.535146 -0.74774,4.29377 -1.31854,8.60454 -1.26845,9.57947 0.0909,1.76973 18.14986,15.68055 31.15894,24.00176 8.745,5.5937 14.34291,11.58142 16.02961,17.14585 4.43259,14.62304 4.628,33.89954 0.60823,60 l -2.0214,13.125 5.9796,11.875 c 3.28877,6.53125 7.70476,14.40625 9.81331,17.5 4.96724,7.28815 17.03546,20 18.98735,20 3.13984,0 8.09105,5.31236 9.36675,10.04998 1.26113,4.68343 1.93971,5.21008 14.34888,11.13626 16.26767,7.76884 17.53147,9.63275 16.52158,24.36676 -0.57165,8.34023 -1.13148,10.34644 -3.28646,11.77729 -1.4286,0.94855 -2.59745,2.51744 -2.59745,3.48641 0,0.96896 -0.98438,2.13451 -2.1875,2.59009 -1.20313,0.45557 -2.98851,1.62064 -3.96754,2.58902 -2.83924,2.80839 -10.1381,0.98658 -14.22832,-3.55144 -2.79609,-3.10218 -3.20913,-4.253 -2.03445,-5.66841 0.81066,-0.97677 2.2488,-1.77596 3.19586,-1.77596 0.94707,0 1.72195,-0.54805 1.72195,-1.2179 0,-1.71605 -6.79918,-5.0321 -10.31771,-5.0321 -1.71043,0 -4.68368,-1.79709 -7.10296,-4.29315 -2.74994,-2.83722 -5.82015,-4.57345 -9.05322,-5.11968 -4.21114,-0.71146 -5.16058,-1.49748 -6.8208,-5.64676 -1.42508,-3.56164 -2.99387,-5.1718 -6.00818,-6.16661 -2.24373,-0.74049 -5.35785,-2.7071 -6.92029,-4.37024 -1.56244,-1.66314 -4.59828,-3.3806 -6.74631,-3.8166 -2.33595,-0.47414 -6.53055,-3.38876 -10.4373,-7.25235 -10.93795,-10.81711 -14.21977,-13.42242 -17.81307,-14.14107 -2.97762,-0.59553 -3.58081,-0.20429 -4.42632,2.87098 -0.5384,1.95827 -0.84541,7.62585 -0.68226,12.59465 0.28405,8.6504 0.58382,9.46322 7.05656,19.13358 3.71795,5.55466 7.12522,11.55494 7.57172,13.33395 0.50107,1.99636 -0.45365,7.61586 -2.49401,14.67995 -3.70052,12.81181 -4.10007,19.34936 -1.618,26.47369 0.92833,2.66456 1.45538,5.51348 1.17125,6.33093 -0.28414,0.81745 0.29526,2.7862 1.28755,4.375 0.9923,1.5888 2.15264,5.63844 2.57855,8.99919 0.69819,5.50918 3.12421,10.93246 10.22696,22.862 2.07299,3.48173 2.16937,4.51398 0.78012,8.35588 -1.34834,3.72877 -1.1812,6.86915 1.11916,21.02753 2.0879,12.85075 2.52511,19.35057 1.91832,28.51913 -0.82052,12.39809 -3.09258,23.74765 -5.74688,28.70725 -1.24627,2.32867 -1.23739,5.60955 0.0443,16.38726 1.45368,12.22393 1.39151,14.25528 -0.66937,21.86875 -1.24955,4.6162 -2.17566,11.33829 -2.05803,14.93796 0.11762,3.59969 -0.34462,8.01383 -1.02722,9.80919 -1.73871,4.57318 -5.36085,26.25521 -5.80705,34.76093 -0.39241,7.4803 -8.92105,30.24865 -19.1403,51.09758 -2.79742,5.70722 -4.82542,10.63754 -4.50668,10.95629 0.31875,0.31874 3.9813,-0.14236 8.139,-1.02469 10.21457,-2.16768 22.53213,-0.87975 32.76032,3.42543 9.73764,4.0987 16.86415,11.63547 22.76358,24.07405 3.38715,7.1416 3.832,9.33535 3.67541,18.125 -0.19456,10.92212 -3.8938,22.33902 -9.70805,29.96191 -3.70506,4.85758 -8.48095,6.00083 -36.68771,8.78225 -26.24393,2.58786 -26.53524,2.56976 -31.03268,-1.92767 z M 98.086159,260.9375 C 97.605528,248.73437 96.855145,238.75701 96.418641,238.76559 94.629119,238.80072 85,248.79632 85,250.61882 c 0,1.08303 -0.943445,3.40902 -2.096545,5.16887 -2.001407,3.05453 -1.958865,3.46368 0.9375,9.01655 1.668725,3.19925 3.650335,6.38021 4.403578,7.06878 0.753243,0.68859 2.111508,3.22073 3.018368,5.62698 0.906859,2.40625 2.399945,5.26304 3.317968,6.34843 0.918022,1.08538 1.704786,2.77288 1.748364,3.75 0.04358,0.97711 0.653336,0.37032 1.355017,-1.34843 0.820224,-2.00911 0.963739,-11.04778 0.401909,-25.3125 z m 139.843361,5.72447 c 2.21539,-2.63857 2.20645,-2.75124 -0.32582,-4.10647 -2.42031,-1.29531 -2.6037,-1.06755 -2.6037,3.23385 0,2.54503 0.14662,4.39294 0.32582,4.10649 0.1792,-0.28647 1.35087,-1.7417 2.6037,-3.23386 z"
       id="path3428"
       inkscape:connector-curvature="0" />
    <path
       style="fill:#82bce5"
       d="m 214.22045,732.39352 -3.85648,-3.85646 -16.11948,-0.31972 c -8.86571,-0.17584 -19.69628,-1.05689 -24.0679,-1.9579 l -7.94843,-1.63818 0.83673,-6.30755 c 0.4602,-3.46915 1.98237,-9.43081 3.38261,-13.24812 1.40024,-3.81733 3.06139,-9.47184 3.69144,-12.56559 0.63005,-3.09375 3.57377,-9.84375 6.5416,-15 3.77856,-6.56479 6.06627,-12.5599 7.63192,-20 1.22973,-5.84375 3.35938,-13.4375 4.73254,-16.875 1.76395,-4.41574 2.78084,-11.0191 3.4649,-22.5 0.90469,-15.18365 1.38279,-17.39837 7.2857,-33.75 5.29615,-14.67085 6.4433,-19.41977 7.09582,-29.375 0.42809,-6.53125 1.39945,-13.1439 2.15858,-14.69476 3.53615,-7.22426 -5.45761,-44.23555 -11.50558,-47.34796 -4.55573,-2.3445 -5.51918,-3.92054 -7.08288,-11.58639 -1.26259,-6.18971 -5.6389,-17.93114 -10.52792,-28.24589 -3.0883,-6.51564 1.6647,44.1423 5.69698,60.71893 2.75737,11.33552 3.83214,34.22445 1.97126,41.98143 -1.25762,5.2424 -2.69416,7.30004 -8.92654,12.78599 -12.75122,11.2241 -15.89211,11.98439 -30.31695,7.33856 -5.54608,-1.78623 -9.36418,-3.82292 -10.54495,-5.625 -1.01802,-1.5537 -2.77063,-2.83018 -3.89468,-2.83663 -6.42567,-0.0369 -22.54546,-13.67678 -27.31557,-23.11328 -1.04258,-2.0625 -3.06688,-5.03055 -4.49844,-6.59567 l -2.60284,-2.84567 -2.674073,7.84567 c -2.912728,8.54588 -13.202996,26.71081 -16.589688,29.285 -1.16222,0.88338 -4.781475,1.62405 -8.042789,1.64592 -5.516575,0.037 -6.186535,-0.31486 -9.617018,-5.0505 -5.865068,-8.09649 -7.960618,-16.0991 -7.335322,-28.01254 0.512722,-9.76863 1.037694,-11.35281 9.996552,-30.16613 C 75.825365,488.2512 78.75,481.10226 78.75,477.45635 c 0,-1.37119 1.907514,-4.57453 4.238919,-7.11853 4.115131,-4.49038 4.498229,-4.62673 13.118531,-4.66913 10.65511,-0.0524 10.49868,0.46171 5.64925,-18.56717 C 96.860321,427.88845 93.779145,408.56481 92.951724,391.88101 92.284163,378.42058 91.771961,375.8932 87.978755,367.34267 83.041568,356.21343 82.94781,355.22283 86.22386,348.80124 l 2.473861,-4.84916 -7.539598,-6.53168 C 77.011344,333.82799 71.136809,327.41093 68.1036,323.16026 54.907935,304.6682 32.993842,265.84806 31.151911,257.7015 29.87979,252.07511 32.991624,240 35.713698,240 36.696164,240 37.5,238.89457 37.5,237.5435 c 0,-1.35109 1.765757,-4.4676 3.923905,-6.92559 2.158149,-2.458 5.464769,-7.6807 7.348048,-11.606 1.883277,-3.9253 5.46127,-9.07539 7.951093,-11.44462 2.489825,-2.36924 4.526954,-5.11831 4.526954,-6.10905 0,-0.99074 4.078125,-9.4268 9.0625,-18.74681 6.10806,-11.42112 11.507554,-19.62075 16.5625,-25.15168 4.125,-4.51342 9.409473,-10.63505 11.743274,-13.60361 3.635116,-4.62383 7.576476,-7.02426 27.500006,-16.74856 12.7912,-6.24315 27.00762,-13.81442 31.59206,-16.82504 7.34431,-4.82304 8.43259,-6.04943 9.15322,-10.31484 0.55379,-3.277845 0.20623,-6.02378 -1.07637,-8.504069 -3.2723,-6.327915 -4.97735,-19.500001 -3.39694,-26.242332 0.97941,-4.178354 1.01926,-8.176188 0.13403,-13.446299 -0.69289,-4.125 -1.26305,-11.467999 -1.26704,-16.317774 -0.006,-7.651631 0.48731,-9.597608 3.73234,-14.714476 2.05677,-3.243186 5.18713,-6.447062 6.95637,-7.119726 4.41568,-1.678834 29.37871,-1.54269 36.56303,0.199409 3.22631,0.782338 7.04419,2.48574 8.4842,3.785337 1.45331,1.311606 3.49457,2.0266 4.58797,1.607024 1.40993,-0.541038 3.20696,1.178139 6.32256,6.048594 2.81417,4.399243 5.4937,7.090827 7.58049,7.61458 4.60791,1.156511 5.33313,5.740983 2.57711,16.291148 -1.52237,5.827705 -2.33443,13.418977 -2.37486,22.200612 -0.0529,11.487773 -0.42297,13.835975 -2.6595,16.875 -1.42894,1.94165 -3.78225,4.069466 -5.22959,4.72848 -1.99312,0.907525 -2.95488,3.055098 -3.96445,8.852392 -1.83655,10.54628 -1.72635,11.53021 1.47959,13.21072 1.54688,0.81085 6.1875,4.13353 10.3125,7.38373 4.125,3.2502 11.4375,8.46233 16.25,11.5825 10.60076,6.87299 16.13884,12.56544 17.89849,18.39745 4.382,14.52319 4.5816,34.15654 0.61,60 l -2.01705,13.125 5.9796,11.875 c 3.28877,6.53125 7.70476,14.40625 9.81331,17.5 4.96724,7.28815 17.03546,20 18.98735,20 3.16668,0 8.09598,5.33066 9.39694,10.16208 1.30365,4.84136 1.84022,5.25511 14.45292,11.14468 11.78297,5.50213 13.2979,6.59145 15.07865,10.84245 2.8842,6.88512 1.62233,22.77835 -2.00007,25.19075 -1.41633,0.94324 -2.57514,2.50777 -2.57514,3.47674 0,0.96896 -0.98437,2.13451 -2.1875,2.59009 -1.20312,0.45557 -2.97717,1.60928 -3.94232,2.5638 -2.73694,2.70677 -10.14045,0.82432 -14.25354,-3.62419 -2.79734,-3.02545 -3.20965,-4.1544 -2.03445,-5.57044 0.81066,-0.97677 2.2488,-1.77596 3.19586,-1.77596 0.94707,0 1.72195,-0.54805 1.72195,-1.2179 0,-1.71605 -6.79918,-5.0321 -10.31771,-5.0321 -1.71043,0 -4.68368,-1.79709 -7.10296,-4.29315 -2.74994,-2.83722 -5.82015,-4.57345 -9.05322,-5.11968 -4.21114,-0.71146 -5.16058,-1.49748 -6.8208,-5.64676 -1.42508,-3.56164 -2.99387,-5.1718 -6.00818,-6.16661 -2.24373,-0.74049 -5.35785,-2.7071 -6.92029,-4.37024 -1.56244,-1.66314 -4.59828,-3.3806 -6.74631,-3.8166 -2.33595,-0.47414 -6.53055,-3.38876 -10.4373,-7.25235 -10.93795,-10.81711 -14.21977,-13.42242 -17.81307,-14.14107 -2.97762,-0.59553 -3.58081,-0.20429 -4.42632,2.87098 -0.5384,1.95827 -0.84541,7.62585 -0.68226,12.59465 0.28405,8.6504 0.58382,9.46322 7.05656,19.13358 3.71795,5.55466 7.12522,11.55494 7.57172,13.33395 0.50107,1.99636 -0.45365,7.61586 -2.49401,14.67995 -3.70052,12.81181 -4.10007,19.34936 -1.618,26.47369 0.92833,2.66456 1.45538,5.51348 1.17125,6.33093 -0.28414,0.81745 0.29526,2.7862 1.28755,4.375 0.9923,1.5888 2.15264,5.63844 2.57855,8.99919 0.69819,5.50918 3.12421,10.93246 10.22696,22.862 2.06439,3.46726 2.16589,4.5236 0.79812,8.30611 -1.3224,3.65702 -1.15338,6.94017 1.08253,21.02754 3.59225,22.6329 2.01135,46.39896 -3.80993,57.27614 -1.2464,2.32894 -1.23688,5.61387 0.0476,16.41495 1.50275,12.63649 1.43858,14.12925 -0.99975,23.25307 -1.46021,5.46393 -2.31624,11.5323 -1.94736,13.80489 0.36202,2.23034 -0.21541,7.57409 -1.28319,11.875 -2.60286,10.48408 -5.66629,29.22158 -5.71926,34.982 -0.0474,5.14726 -9.78609,30.30921 -18.398,47.5348 -3.0101,6.02083 -5.47291,11.29801 -5.47291,11.72709 0,0.42906 2.39062,0.31304 5.3125,-0.25784 2.92187,-0.57089 10.10828,-1.04271 15.9698,-1.0485 19.8524,-0.0196 33.16025,8.3958 42.22675,26.70273 4.26442,8.61063 4.59977,10.08612 4.40356,19.375 -0.235,11.12477 -3.80729,22.10285 -9.71099,29.843 -3.86317,5.06487 -7.58304,5.95568 -37.42574,8.96256 -25.53746,2.57309 -25.76473,2.55822 -30.30543,-1.98248 z M 98.135725,261.72466 C 97.637,249.0886 96.975196,238.75 96.665047,238.75 94.767924,238.75 85,248.42885 85,250.30869 c 0,1.2536 -0.943445,3.71915 -2.096545,5.479 -2.001407,3.05453 -1.958865,3.46368 0.9375,9.01655 1.668725,3.19925 3.650335,6.38021 4.403578,7.06878 0.753243,0.68859 2.111508,3.22073 3.018368,5.62698 0.906859,2.40625 2.399945,5.26304 3.317968,6.34843 0.918022,1.08538 1.686236,2.77288 1.707142,3.75 0.0259,1.21041 0.470859,1.03153 1.396248,-0.56127 0.935922,-1.61095 1.076296,-9.48131 0.451466,-25.3125 z m 140.256085,4.31231 c 1.60993,-1.85147 1.52064,-2.24586 -0.78811,-3.48147 -2.45531,-1.31405 -2.59808,-1.0882 -2.50501,3.96302 0.0542,2.94607 0.40892,4.51273 0.78811,3.48148 0.37917,-1.03125 1.50644,-2.81461 2.50501,-3.96303 z"
       id="path3426"
       inkscape:connector-curvature="0" />
    <path
       style="fill:#6fb6e7"
       d="m 213.96855,732.10049 c -4.0172,-4.1447 -4.03385,-4.14894 -14.30771,-3.64268 -9.24872,0.45575 -35.30222,-2.43252 -36.96794,-4.09824 -0.98166,-0.98166 2.40665,-16.83001 4.8071,-22.48457 1.16742,-2.75 2.52052,-7.25 3.00689,-10 0.48636,-2.75 3.3077,-9.21875 6.26963,-14.375 3.7406,-6.51178 6.07457,-12.61999 7.64203,-20 1.24116,-5.84375 3.56725,-14.15346 5.16906,-18.46604 2.1179,-5.70205 2.91436,-10.47593 2.91963,-17.5 0.01,-14.00798 1.59397,-21.72916 7.92988,-38.66677 4.75302,-12.70608 5.76698,-17.02078 6.44162,-27.41098 0.44037,-6.78216 1.41961,-13.60011 2.17608,-15.15097 3.42768,-7.02723 -5.44983,-44.22403 -11.27185,-47.22904 -4.75751,-2.45557 -6.53297,-4.6393 -6.53297,-8.03523 0,-4.42722 -9.67509,-31.2862 -12.17213,-33.79097 -1.05811,-1.06139 0.95928,28.64431 2.88628,42.5 1.00396,7.21875 2.67528,16.5 3.71404,20.625 2.80711,11.14724 3.78786,33.05456 1.84279,41.16256 -1.38028,5.75363 -2.64654,7.61711 -8.94069,13.15745 -12.64625,11.13169 -15.81961,11.89348 -30.22191,7.2549 -5.54609,-1.78624 -9.36419,-3.82292 -10.54495,-5.625 -1.01803,-1.5537 -2.77064,-2.83018 -3.89469,-2.83664 -6.41113,-0.0368 -22.46368,-13.60506 -27.34522,-23.11327 -1.05889,-2.0625 -3.19455,-5.27133 -4.74592,-7.13074 l -2.820671,-3.38074 -0.865694,4.61455 c -1.383956,7.37713 -13.649736,30.34888 -17.952792,33.62258 -1.134894,0.86341 -4.731789,1.58772 -7.993103,1.6096 -5.542706,0.0371 -6.177021,-0.30172 -9.720242,-5.193 -5.522535,-7.62364 -7.884825,-16.98824 -7.212992,-28.59376 0.518025,-8.94858 1.2643,-11.13091 10.081413,-29.48121 5.237085,-10.89951 10.761732,-23.75478 12.276994,-28.56728 1.61605,-5.1326 4.235153,-10.29783 6.335268,-12.49397 3.306715,-3.45794 4.247253,-3.74444 12.310625,-3.75 8.477934,-0.006 8.730324,-0.0964 8.728624,-3.13103 -9.7e-4,-1.71875 -1.63171,-9.59375 -3.62387,-17.5 -4.796755,-19.03679 -7.653638,-37.42879 -8.543306,-55 -0.654119,-12.91904 -1.150699,-15.25766 -4.902845,-23.08974 -4.895111,-10.21785 -5.015843,-11.61168 -1.587808,-18.33118 1.422962,-2.78924 2.407337,-5.18157 2.1875,-5.31627 -0.219835,-0.13471 -3.857897,-3.17986 -8.084582,-6.767 C 69.860917,327.51739 55.134007,305.51114 38.449669,273.75 31.067692,259.6973 29.39204,254.13912 31.193383,249.68071 c 0.623478,-1.54313 1.464494,-4.35259 1.868922,-6.24321 C 33.466734,241.54687 34.630664,240 35.648815,240 36.666966,240 37.5,238.89457 37.5,237.5435 c 0,-1.35109 1.765757,-4.4676 3.923905,-6.92559 2.158149,-2.458 5.464769,-7.6807 7.348048,-11.606 1.883277,-3.9253 5.46127,-9.07539 7.951093,-11.44462 2.489825,-2.36924 4.526954,-5.11831 4.526954,-6.10905 0,-4.39815 18.128074,-35.44684 25.4607,-43.60758 4.215365,-4.69143 9.573773,-10.95134 11.907574,-13.9109 3.625866,-4.59806 7.627176,-7.03264 27.500006,-16.73218 12.7912,-6.24315 27.00762,-13.81442 31.59206,-16.82504 7.34431,-4.82304 8.43259,-6.04943 9.15322,-10.31484 0.55379,-3.277845 0.20623,-6.02378 -1.07637,-8.504069 -3.2723,-6.327915 -4.97735,-19.500001 -3.39694,-26.242332 0.97941,-4.178354 1.01926,-8.176188 0.13403,-13.446299 -0.69289,-4.125 -1.26305,-11.467999 -1.26704,-16.317774 -0.006,-7.651631 0.48731,-9.597608 3.73234,-14.714476 2.05677,-3.243186 5.18713,-6.447062 6.95637,-7.119726 4.42038,-1.680623 29.38534,-1.541919 36.56303,0.203144 3.22631,0.784391 6.91373,2.331266 8.19427,3.4375 1.28054,1.106232 3.49003,2.011332 4.90999,2.011332 1.7394,0 3.65447,1.835246 5.86966,5.625 1.80836,3.09375 4.94261,6.41496 6.96501,7.380468 2.0224,0.965507 4.09035,2.371757 4.59545,3.125 1.50379,2.242576 1.0869,7.574722 -1.04765,13.399873 -1.37729,3.758614 -2.0616,10.231278 -2.1875,20.691012 -0.15977,13.274138 -0.51557,15.67276 -2.78126,18.75 -1.42894,1.940756 -3.76387,4.059932 -5.18876,4.70928 -1.84705,0.84173 -2.98505,3.144158 -3.96445,8.020977 -2.19468,10.92811 -1.96453,11.72748 4.74258,16.47189 41.32254,29.2303 39.92057,27.85105 42.79763,42.10404 2.24281,11.11096 1.76969,37.46656 -0.95244,53.05475 -2.10476,12.05296 -2.103,12.09849 0.72659,18.75 5.11016,12.01247 14.29159,26.37234 22.40081,35.03514 4.38015,4.67916 8.70815,8.50757 9.61779,8.50757 2.96732,0 7.90674,5.52603 8.93847,10 0.93689,4.06268 1.97194,4.84404 14.49884,10.94513 11.65304,5.67548 13.73612,7.15935 15.29795,10.89735 3.25375,7.7873 1.86434,24.29997 -2.1326,25.34518 -1.27015,0.33215 -2.30936,1.68097 -2.30936,2.99737 0,1.31638 -0.98438,2.76618 -2.1875,3.22176 -1.20313,0.45557 -2.94593,1.57804 -3.87288,2.49436 -4.34398,4.29413 -20.16813,-4.53356 -16.35743,-9.12519 0.81066,-0.97677 2.2488,-1.77596 3.19586,-1.77596 0.94707,0 1.72195,-0.54805 1.72195,-1.2179 0,-1.68859 -6.77575,-5.0321 -10.19773,-5.0321 -1.55202,0 -4.81788,-1.94906 -7.25746,-4.33125 -2.68848,-2.62523 -6.38905,-4.73711 -9.39502,-5.36166 -4.19403,-0.87139 -5.14321,-1.67125 -6.1503,-5.18278 -0.911,-3.17646 -2.38757,-4.66917 -6.28269,-6.35135 -2.80049,-1.20945 -6.1534,-3.38589 -7.45091,-4.83652 -1.29752,-1.45065 -4.26253,-2.99463 -6.58893,-3.43107 -3.05894,-0.57386 -5.82164,-2.65676 -9.98024,-7.52445 C 253.534,283.02891 250.21781,280 249.32741,280 c -0.89039,0 -2.65019,-1.39842 -3.91065,-3.10761 -1.26047,-1.70919 -4.04502,-3.45204 -6.18789,-3.87298 -3.49161,-0.6859 -3.99776,-0.3957 -4.87503,2.79511 -0.5384,1.95827 -0.84542,7.62586 -0.68226,12.59465 0.28404,8.6504 0.58382,9.46322 7.05656,19.13358 3.71795,5.55466 7.12862,11.5685 7.57929,13.36409 0.50633,2.01738 -0.29457,6.88536 -2.09628,12.74142 -3.7205,12.09266 -4.39551,20.09306 -2.3126,27.40958 0.91084,3.19943 1.50965,6.50707 1.3307,7.3503 -0.17895,0.84322 0.47305,2.81197 1.44888,4.375 0.97583,1.56302 2.07988,5.65927 2.45345,9.10278 0.43472,4.00734 2.27517,8.95659 5.11312,13.75 7.69159,12.99142 7.62373,12.79274 5.95069,17.41944 -1.25258,3.46393 -1.0573,7.04786 1.13742,20.87575 3.59225,22.6329 2.01135,46.39896 -3.80994,57.27614 -1.24626,2.32867 -1.23738,5.60955 0.0443,16.38726 1.46325,12.30436 1.39995,14.21685 -0.72827,22.00308 -1.28195,4.69007 -2.38156,11.62116 -2.44358,15.40241 -0.062,3.78125 -1.08442,11.65625 -2.27198,17.5 -1.18756,5.84375 -2.71364,13.33979 -3.39129,16.65786 -0.67763,3.31808 -1.23207,8.41304 -1.23207,11.32215 0,5.97998 -6.57351,23.62613 -17.00185,45.64029 -3.71143,7.83492 -6.74809,14.51836 -6.74809,14.85209 0,0.33373 2.39062,0.1397 5.3125,-0.43118 2.92187,-0.57089 10.09375,-1.04088 15.9375,-1.04445 19.73916,-0.0125 33.25691,8.52662 42.25905,26.69352 4.0805,8.2347 4.60169,10.34292 4.49295,18.17431 -0.14716,10.59896 -3.97844,23.07117 -9.3171,30.33064 -3.45126,4.69298 -4.39585,5.1942 -12.15104,6.44753 -9.68143,1.56465 -43.4986,5.10724 -48.7531,5.10724 -2.36843,0 -4.87165,-1.37356 -7.56221,-4.14951 z M 98.1777,262.00326 C 97.681194,249.55771 97.075174,239.17145 96.830989,238.92267 95.787881,237.85994 85,248.00554 85,250.04928 c 0,1.23647 -0.984375,3.97043 -2.1875,6.07548 -1.798859,3.14737 -1.908288,4.22025 -0.615928,6.0388 0.864365,1.21629 2.263755,3.61769 3.109755,5.33644 0.846,1.71875 2.161332,3.6875 2.92296,4.375 0.761629,0.6875 2.126754,3.21875 3.033614,5.625 0.906859,2.40625 2.399945,5.26304 3.317968,6.34843 0.918022,1.08538 1.686236,2.77288 1.707142,3.75 0.02558,1.19553 0.488438,1.00087 1.41522,-0.59517 0.958438,-1.65056 1.102711,-9.25236 0.474469,-25 z m 139.70063,5.22821 c 2.03097,-3.24845 2.01481,-3.45071 -0.37833,-4.73147 -2.31562,-1.23929 -2.5,-0.95061 -2.5,3.91435 0,2.88878 0.17025,5.01794 0.37833,4.73149 0.20807,-0.28647 1.33307,-2.04793 2.5,-3.91437 z"
       id="path3424"
       inkscape:connector-curvature="0" />
    <path
       style="fill:#52abe8"
       d="m 214.14537,732.31845 -3.93156,-3.93156 -15.4194,-0.2315 c -8.48067,-0.12733 -19.21629,-0.98662 -23.85691,-1.90951 -9.84306,-1.95754 -9.88523,-2.07059 -5.83605,-15.64793 1.43079,-4.79762 3.60469,-12.43401 4.83088,-16.96975 1.2262,-4.53575 4.50368,-12.1295 7.28331,-16.875 3.19468,-5.45414 5.80252,-12.07699 7.08899,-18.0032 1.11932,-5.15625 3.37551,-13.59375 5.01373,-18.75 2.10791,-6.63457 3.1475,-13.3943 3.55644,-23.125 0.58034,-13.80982 3.49834,-25.29047 10.69551,-42.0808 1.51016,-3.52306 2.73933,-10.28102 3.2789,-18.02746 0.47474,-6.81545 1.49388,-14.22816 2.26475,-16.47268 3.00279,-8.74303 -5.91837,-46.57412 -11.22731,-47.61061 -4.1234,-0.80501 -6.28954,-3.94287 -7.02838,-10.18122 -0.64742,-5.46643 -4.91378,-17.11734 -10.29973,-28.12723 -1.68544,-3.44536 -1.7777,-2.53145 -1.13572,11.25 0.84709,18.18448 2.44798,31.13901 5.79269,46.875 3.38071,15.90543 4.35978,36.31608 2.10861,43.95881 -2.39203,8.12097 -16.23532,20.53728 -24.23508,21.73693 -6.56805,0.98494 -20.88394,-3.33394 -24.87442,-7.50421 -1.42428,-1.48848 -5.17682,-3.67342 -8.33895,-4.85544 -7.55635,-2.82461 -14.76105,-9.12678 -20.58716,-18.00823 -2.59874,-3.96157 -5.97522,-8.72418 -7.50328,-10.5836 l -2.778301,-3.38073 -0.865694,4.61455 c -1.3784,7.3475 -11.190303,25.7961 -17.263573,32.45942 -1.983208,2.17589 -3.932333,2.8125 -8.611081,2.8125 -5.948215,0 -6.118404,-0.11062 -10.352492,-6.72957 -5.579962,-8.72289 -7.376442,-16.18889 -6.643497,-27.60974 0.536434,-8.35876 1.497233,-11.1203 10.093883,-29.0119 5.22556,-10.87559 10.740776,-23.71129 12.256037,-28.52379 1.58142,-5.02262 4.241164,-10.30589 6.243735,-12.40244 3.186913,-3.33648 4.251735,-3.66088 12.308939,-3.75 l 8.820224,-0.0976 -0.0201,-3.75 c -0.0111,-2.0625 -1.42651,-9.09375 -3.14541,-15.625 -4.731901,-17.97968 -8.097955,-38.94251 -8.93184,-55.625 -0.646855,-12.94084 -1.218998,-15.94379 -4.16778,-21.875 -5.148835,-10.35643 -5.586579,-13.90715 -2.468111,-20.01985 1.465351,-2.87233 2.48441,-5.33968 2.264573,-5.48299 C 82.736469,339.47363 72.210634,328.74285 67.100342,321.4056 52.56593,300.53747 31.641697,263.00816 31.121661,256.875 30.594827,250.66164 32.68313,242.40681 35.175602,240.85024 36.454021,240.05186 37.5,238.41056 37.5,237.20291 c 0,-1.20764 1.830305,-4.3067 4.067345,-6.88681 2.237039,-2.5801 5.684751,-7.8856 7.661581,-11.79 1.97683,-3.9044 5.490275,-8.93661 7.807655,-11.18271 2.31738,-2.24609 4.213419,-4.86318 4.213419,-5.81574 0,-0.95258 4.029729,-9.29123 8.954952,-18.53034 6.364485,-11.939 11.347297,-19.42282 17.225014,-25.87074 4.548534,-4.98977 9.835769,-11.12507 11.749413,-13.63398 2.716301,-3.56127 7.779561,-6.66155 23.087481,-14.13672 26.03119,-12.71154 28.42428,-13.98585 36.64623,-19.51396 8.86674,-5.96165 10.07372,-10.133591 6.0288,-20.838458 -2.56775,-6.79552 -2.90353,-10.932883 -2.30307,-28.378452 0.0946,-2.75 -0.23188,-11.46875 -0.72562,-19.375 l -0.89773,-14.375 3.85684,-5.964476 c 2.12126,-3.280462 5.3044,-6.514837 7.07364,-7.1875 4.42037,-1.680623 29.38534,-1.541919 36.56302,0.203143 3.22632,0.784392 6.91374,2.331267 8.19428,3.4375 1.28054,1.106233 3.49002,2.011333 4.90999,2.011333 1.74263,0 3.64323,1.828182 5.84777,5.625 1.97754,3.405835 4.86315,6.336665 7.31429,7.428882 5.29294,2.35852 6.04226,5.888975 3.27677,15.438567 -1.55493,5.369376 -2.27432,12.250758 -2.3368,22.352913 -0.0788,12.727978 -0.42267,15.046958 -2.68832,18.125 -1.42894,1.941302 -3.78873,4.071622 -5.24399,4.734045 -2.92725,1.332467 -3.56481,3.123173 -4.77351,13.407283 -0.7515,6.39413 -0.5805,7.13733 1.95432,8.49392 1.52784,0.81768 7.36414,4.98349 12.96957,9.25735 5.60541,4.27388 13.12925,9.6174 16.71962,11.8745 8.29684,5.21584 13.65903,11.31834 15.20885,17.30863 4.20653,16.25877 4.21073,35.59515 0.0136,62.96612 l -1.45859,9.51221 5.19635,10.98592 c 2.85799,6.04226 7.24377,13.85551 9.74617,17.36278 5.769,8.0856 17.95758,20.75188 19.96923,20.75188 2.86269,0 7.80377,5.6083 8.81032,10 0.92927,4.0545 1.9636,4.84252 14.11937,10.75707 10.69348,5.20305 13.52041,7.16592 15.30221,10.625 3.66639,7.11774 2.47317,24.70089 -1.7512,25.80559 -1.27015,0.33215 -2.30936,1.71598 -2.30936,3.07515 0,1.41999 -1.06349,2.74935 -2.5,3.125 -1.375,0.35958 -2.5,1.09048 -2.5,1.62424 0,1.91935 -4.10838,2.48781 -8.81684,1.21995 -5.81629,-1.56616 -10.65973,-6.97539 -8.53651,-9.53371 0.77527,-0.93407 2.1844,-1.69829 3.13146,-1.69829 0.94707,0 1.72195,-0.54805 1.72195,-1.2179 0,-1.68859 -6.77575,-5.0321 -10.19773,-5.0321 -1.55202,0 -4.81788,-1.94906 -7.25746,-4.33125 -2.68848,-2.62523 -6.38905,-4.73711 -9.39502,-5.36166 -4.19993,-0.87262 -5.14264,-1.66926 -6.15583,-5.20205 -0.887,-3.09279 -2.35018,-4.64569 -5.65769,-6.00462 -2.45369,-1.00813 -5.86752,-3.11903 -7.58627,-4.69091 -1.71875,-1.57187 -5.21246,-3.52469 -7.76381,-4.3396 -2.9666,-0.94754 -6.50074,-3.70552 -9.8039,-7.65079 -2.8408,-3.39301 -5.8312,-6.16912 -6.64533,-6.16912 -0.81413,0 -2.96101,-1.6875 -4.77082,-3.75 -4.04713,-4.6122 -8.58348,-4.93378 -10.5243,-0.74606 -0.82501,1.78012 -1.13544,6.84458 -0.76927,12.55026 0.58114,9.05542 0.97142,10.09995 7.31469,19.57687 3.68543,5.50609 7.03602,11.34673 7.44574,12.97922 0.41664,1.65998 -0.68256,7.93015 -2.49402,14.22665 -1.78144,6.19217 -3.20287,13.6839 -3.15873,16.64827 0.094,6.30891 2.51869,18.05855 4.46575,21.63979 0.74756,1.375 1.68059,5.3125 2.07339,8.75 0.70112,6.13572 4.93054,15.55874 9.71134,21.63654 2.74599,3.49097 3.02417,6.29321 1.05398,10.61732 -1.04378,2.29084 -0.74942,6.81156 1.25,19.19706 1.4384,8.91032 2.61529,19.61998 2.61529,23.79924 0,9.29739 -3.15915,26.95676 -5.87401,32.83516 -1.76438,3.82035 -1.81789,5.89913 -0.45048,17.5 1.43678,12.18935 1.3614,13.88728 -1.01747,22.91802 -1.45971,5.54147 -2.25153,11.34172 -1.83356,13.43151 0.4046,2.023 -0.17322,7.47775 -1.28402,12.12166 -3.39165,14.17938 -5.79046,28.39948 -5.79046,34.32575 0,5.91539 -10.21026,32.794 -19.35624,50.95549 -2.50482,4.9739 -4.23982,9.35785 -3.85557,9.7421 0.38425,0.38425 4.58384,-0.0345 9.33241,-0.93044 26.69439,-5.03686 49.36025,8.84499 57.12314,34.98546 3.22049,10.84457 -0.98099,30.16264 -8.78544,40.39482 -3.86135,5.06248 -6.77506,5.74168 -38.48525,8.97118 -24.85364,2.53119 -24.73041,2.53984 -29.32767,-2.05742 z M 98.1777,262.00326 c -0.496506,-12.44555 -1.102526,-22.83181 -1.346711,-23.08059 -0.244184,-0.24877 -3.00605,1.64712 -6.13748,4.21308 C 86.995159,246.16627 85,248.78984 85,250.62252 c 0,1.55175 -0.84375,3.52162 -1.875,4.37748 -1.03125,0.85586 -1.875,2.82461 -1.875,4.375 0,1.55039 0.84375,3.51914 1.875,4.375 1.03125,0.85586 1.875,2.30907 1.875,3.22936 0,0.92029 1.027276,2.67954 2.282837,3.90944 1.25556,1.22991 3.0357,4.20495 3.955868,6.6112 0.920167,2.40625 2.424141,5.26304 3.342164,6.34843 0.918022,1.08538 1.686236,2.77288 1.707142,3.75 0.02558,1.19553 0.488438,1.00087 1.41522,-0.59517 0.958438,-1.65056 1.102711,-9.25236 0.474469,-25 z m 139.70063,5.22821 c 2.03097,-3.24845 2.01481,-3.45071 -0.37833,-4.73147 -2.31562,-1.23929 -2.5,-0.95061 -2.5,3.91435 0,2.88878 0.17025,5.01794 0.37833,4.73149 0.20807,-0.28647 1.33307,-2.04793 2.5,-3.91437 z"
       id="path3422"
       inkscape:connector-curvature="0" />
    <path
       style="fill:#289ced"
       d="m 214.18097,732.43554 -3.94403,-4.02553 -15.43097,-0.2714 c -8.48703,-0.14927 -19.27581,-1.0226 -23.97506,-1.94071 l -8.54407,-1.66931 0.83068,-5.70179 c 0.45689,-3.13599 2.14627,-9.6393 3.75418,-14.4518 1.60791,-4.8125 3.30972,-10.71875 3.78181,-13.125 0.47209,-2.40625 3.22768,-8.35299 6.12353,-13.21497 3.69412,-6.20227 5.93966,-11.98345 7.52566,-19.375 1.24326,-5.79427 3.57956,-14.21302 5.19176,-18.70834 2.2248,-6.20343 3.05893,-11.62627 3.46088,-22.5 0.49243,-13.32161 0.9464,-15.46669 6.47105,-30.57669 4.66996,-12.77244 6.29951,-19.3263 7.61456,-30.625 0.92021,-7.90625 2.00201,-16.625 2.404,-19.375 1.62517,-11.11781 -6.73086,-43.29832 -11.47485,-44.19155 -4.1744,-0.78597 -6.3663,-3.88645 -7.09455,-10.03534 -0.61766,-5.21515 -9.647,-29.41491 -11.69305,-31.33885 -0.93735,-0.88141 0.5721,26.30628 2.1828,39.31574 0.68095,5.5 2.39374,15.34375 3.80617,21.875 3.2747,15.14245 4.26254,36.08084 2.07545,43.99145 -1.33857,4.8416 -3.14615,7.18324 -10.34688,13.40401 -11.03419,9.53254 -14.89753,10.33442 -28.12415,5.83751 -5.14203,-1.74823 -10.20453,-4.22296 -11.25,-5.49941 -1.04549,-1.27645 -4.60972,-3.31806 -7.9205,-4.53693 -6.77198,-2.4931 -17.98275,-12.66053 -21.47581,-19.47714 -1.22444,-2.38948 -3.81173,-6.16483 -5.74953,-8.38968 l -3.523264,-4.04517 -0.823277,4.67017 c -0.99817,5.6623 -10.790634,24.77105 -15.822472,30.87554 -3.169714,3.84541 -4.362064,4.41965 -9.177042,4.41965 -6.567113,0 -8.973705,-2.00878 -13.801189,-11.51981 -4.062566,-8.004 -5.267728,-20.16202 -2.964206,-29.90372 0.871548,-3.68581 5.131985,-13.73272 9.46764,-22.32647 4.335655,-8.59375 9.409706,-20.40625 11.27567,-26.25 2.098751,-6.57277 4.727911,-12.02822 6.893711,-14.3043 3.21029,-3.37373 4.231569,-3.68516 12.297332,-3.75 l 8.796287,-0.0707 3.8e-4,-3.52348 c 2.1e-4,-1.93791 -1.45911,-9.25041 -3.24292,-16.25 C 96.892457,426.76456 93.78752,407.38469 92.909564,390.63101 92.211361,377.3075 91.653783,374.55115 87.936596,366.0475 85.633969,360.77987 83.75,355.83559 83.75,355.0602 c 0,-0.77539 1.164241,-3.6919 2.587201,-6.48113 1.422961,-2.78923 2.407337,-5.1886 2.1875,-5.33191 C 76.42871,335.36152 61.752724,315.57979 43.038245,281.93602 31.220976,260.69165 29.939246,256.85924 31.835524,248.43956 c 0.770851,-3.42267 2.278854,-6.86454 3.351116,-7.6486 1.072264,-0.78406 2.374724,-2.82965 2.894356,-4.54576 0.519634,-1.71611 2.460379,-4.8077 4.312766,-6.8702 1.852389,-2.0625 4.960438,-6.84375 6.906776,-10.625 1.946337,-3.78125 5.431195,-8.86746 7.744128,-11.3027 2.312934,-2.43524 4.205334,-5.16419 4.205334,-6.06434 0,-4.22305 21.579529,-41.18827 25.401589,-43.51231 0.900572,-0.54761 4.975506,-5.03301 9.055408,-9.96758 7.944683,-9.60893 5.824173,-8.31402 45.543003,-27.8112 5.84375,-2.86858 13.71875,-7.34999 17.5,-9.95868 5.82364,-4.01774 7.04805,-5.54952 8.00664,-10.01652 0.86842,-4.046887 0.67197,-6.237346 -0.84463,-9.417694 -3.53384,-7.410536 -5.20291,-18.964416 -3.54094,-24.511576 1.12355,-3.75009 1.13258,-7.488262 0.0379,-15.714039 -2.086,-15.675355 -1.19071,-24.114467 3.23587,-30.502045 1.99374,-2.876962 4.95088,-5.734947 6.57143,-6.351078 4.23024,-1.608331 27.65601,-1.381293 35.50084,0.344067 3.66182,0.805368 7.70557,2.352243 8.98611,3.4375 1.28054,1.085258 3.49002,1.973195 4.90999,1.973195 1.74263,0 3.64323,1.828183 5.84777,5.625 1.97754,3.405835 4.86315,6.336665 7.31429,7.428883 5.28945,2.356967 6.04087,5.883565 3.28952,15.438566 -1.52413,5.293109 -2.26825,12.344379 -2.3423,22.195927 -0.11762,15.654288 -1.53708,19.902744 -7.56748,22.650382 -3.24382,1.477978 -3.95048,3.372301 -5.06905,13.588472 l -0.74699,6.82277 12.26803,9.04282 c 6.74741,4.97355 15.08052,10.79599 18.51802,12.93876 13.5394,8.43977 16.0565,12.3338 18.73595,28.98506 2.00779,12.47727 1.26728,31.41978 -2.04306,52.26162 l -1.50545,9.47826 4.87891,10.39679 c 7.8814,16.79499 23.96021,37.3537 30.85844,39.45626 4.44586,1.3551 7.08496,4.30494 7.9429,8.87813 0.90277,4.81219 4.56249,7.86595 13.78167,11.49982 11.96325,4.71547 14.6488,6.81144 16.54313,12.91132 2.47639,7.97415 0.97345,22.30337 -2.43274,23.19411 -1.31161,0.343 -2.38475,1.68302 -2.38475,2.97784 0,1.29481 -0.47644,2.35421 -1.05874,2.35421 -0.5823,0 -2.3796,1.14557 -3.99398,2.54572 -2.17028,1.88227 -3.93043,2.34589 -6.75377,1.77894 -8.3138,-1.66949 -13.99955,-9.3569 -8.26638,-11.17653 C 318.84221,330.199 320,329.32139 320,328.69786 c 0,-1.62031 -6.85819,-4.94786 -10.19773,-4.94786 -1.55202,0 -4.81788,-1.94906 -7.25746,-4.33125 -2.66533,-2.60263 -6.3913,-4.73758 -9.33582,-5.34936 -3.92888,-0.8163 -5.13755,-1.75415 -6.09745,-4.73125 -1.66114,-5.15197 -2.99038,-6.55798 -7.04094,-7.44763 -1.92865,-0.42361 -4.80627,-2.15359 -6.39471,-3.8444 -1.58844,-1.69081 -5.03221,-3.65156 -7.65284,-4.35722 -3.41646,-0.91995 -5.91555,-2.84969 -8.83141,-6.81938 -2.23665,-3.045 -5.19164,-5.90086 -6.56664,-6.34637 -1.375,-0.4455 -4.01516,-2.43297 -5.86704,-4.41658 -1.85187,-1.98361 -4.66437,-3.60217 -6.25,-3.59681 -4.3316,0.0146 -5.7459,4.46167 -5.02395,15.79694 0.58891,9.24622 0.98451,10.35117 6.78948,18.96337 9.07312,13.46085 9.26568,14.42661 5.45737,27.37118 -4.41595,15.00997 -3.99805,27.66016 1.26435,38.27256 0.96514,1.94634 1.75793,5.04009 1.76176,6.875 0.0125,5.85771 2.37324,12.13827 7.60729,20.23637 4.91115,7.5985 5.04364,8.07129 3.65333,13.03702 -1.18769,4.242 -0.98536,7.96593 1.14488,21.07235 1.42314,8.75587 2.58753,19.30627 2.58753,23.44531 0,8.41393 -2.85199,24.01756 -5.8739,32.13696 -1.7389,4.67215 -1.7933,6.94434 -0.43395,18.125 1.43815,11.82873 1.36165,13.51143 -1.02456,22.53653 -1.45453,5.50129 -2.26075,11.34332 -1.84933,13.40045 0.40118,2.00591 -0.14493,7.1794 -1.21358,11.49666 -3.08533,12.46444 -5.85468,29.06354 -5.85468,35.09211 0,5.72555 -10.55053,33.35594 -19.59744,51.32304 -2.37216,4.71109 -3.98779,8.89084 -3.59027,9.28835 0.3975,0.3975 4.40831,-0.01 8.9129,-0.90521 10.23481,-2.03435 20.93963,-0.94121 31.0623,3.172 9.16885,3.72564 15.79146,9.91385 21.27473,19.87926 7.60355,13.81883 8.31066,23.36183 2.87125,38.75 -4.03341,11.41064 -7.93025,16.64314 -13.51458,18.14684 -5.25614,1.41534 -29.66398,4.39661 -46.16889,5.63926 l -10.625,0.79996 -3.94402,-4.02552 z M 98.1777,262.00326 c -0.496506,-12.44555 -1.102526,-22.83181 -1.346711,-23.08059 -0.244184,-0.24877 -3.00605,1.64712 -6.13748,4.21308 C 86.995159,246.16627 85,248.78984 85,250.62252 c 0,1.55175 -0.84375,3.52162 -1.875,4.37748 -2.129916,1.76767 -2.516373,6.95606 -0.606061,8.1367 0.697917,0.43134 2.075465,2.71454 3.061217,5.07377 0.985753,2.35924 2.38348,4.28953 3.10606,4.28953 0.722582,0 1.313784,0.90147 1.313784,2.00328 0,1.10179 1.536497,4.73663 3.41444,8.07741 5.071597,9.02215 5.815849,5.80696 4.76326,-20.57743 z m 140.2522,0.80924 c -2.27373,-2.87431 -3.42995,-1.60775 -3.42333,3.75 l 0.006,5.3125 2.32638,-3.75 c 1.60087,-2.58054 1.94091,-4.23727 1.09036,-5.3125 z"
       id="path3420"
       inkscape:connector-curvature="0" />
    <path
       style="fill:#0095fd"
       d="m 215.30652,732.29178 -4.06848,-4.13067 -14.68151,-0.089 c -8.07484,-0.049 -19.06325,-0.84101 -24.4187,-1.76007 l -9.73717,-1.67101 0.82061,-5.75799 c 0.45134,-3.16689 1.9341,-8.85174 3.29503,-12.63299 1.36092,-3.78125 3.01883,-9.40625 3.68423,-12.5 1.19527,-5.55738 5.65783,-15.18096 9.85387,-21.25 1.18831,-1.71875 3.13038,-7.90625 4.3157,-13.75 1.18531,-5.84375 3.56275,-14.28125 5.28318,-18.75 2.56637,-6.66608 3.1893,-10.70617 3.4692,-22.5 0.32676,-13.76915 0.60975,-15.11256 6.71432,-31.875 5.54251,-15.21906 6.48265,-19.18373 7.21301,-30.41803 0.48084,-7.39632 1.4913,-13.56952 2.36398,-14.44218 2.2992,-2.29921 -1.04666,-25.41731 -5.4091,-37.37392 -3.02659,-8.29528 -4.18555,-10.05058 -7.84063,-11.875 -3.80837,-1.90093 -4.37518,-2.84133 -5.05757,-8.39087 -0.42269,-3.4375 -3.23519,-12.15625 -6.25,-19.375 -5.05034,-12.09264 -5.51553,-12.78087 -5.91425,-8.75 -0.77341,7.81893 2.36687,39.00165 5.4759,54.375 4.19601,20.74826 5.14627,38.53784 2.51732,47.12601 -1.6827,5.497 -3.34905,7.74518 -9.79407,13.21388 -11.13233,9.44592 -14.4382,10.17256 -27.60447,6.06753 -7.75641,-2.41832 -10.84122,-3.98428 -11.41597,-5.79518 -0.43316,-1.36479 -2.29696,-2.79319 -4.14176,-3.17424 -8.89339,-1.83694 -21.30362,-11.74518 -25.90924,-20.68575 -2.77517,-5.38726 -8.242148,-12.62172 -8.980264,-11.8836 -0.308931,0.30892 -1.102402,2.99611 -1.76327,5.97152 -1.489165,6.70463 -13.95405,29.03204 -17.655191,31.62442 -1.50012,1.05067 -4.79406,1.91036 -7.319867,1.91036 -12.226045,0 -21.058548,-24.59854 -15.515477,-43.21062 1.009734,-3.39041 4.578564,-11.50813 7.930733,-18.03938 3.35217,-6.53125 7.098107,-14.53553 8.324306,-17.78728 1.257972,-3.33599 2.788498,-5.56676 3.512402,-5.11936 0.729548,0.45089 0.904962,0.18131 0.406664,-0.62495 -0.904622,-1.46371 1.698246,-10.34456 4.776551,-16.29735 2.619296,-5.06515 7.457858,-7.07516 16.481555,-6.8467 l 7.874158,0.19938 -0.72404,-3.94938 c -0.39822,-2.17215 -2.32168,-10.69936 -4.27437,-18.94936 -4.837206,-20.43695 -7.19588,-35.84301 -8.11819,-53.02529 -0.628327,-11.7055 -1.378055,-15.79 -3.918829,-21.34971 -5.029925,-11.00648 -5.461001,-14.3148 -2.628992,-20.17639 l 2.476136,-5.12501 -4.789483,-3.86308 c -2.634215,-2.1247 -6.718165,-5.85375 -9.075445,-8.2868 -7.59421,-7.83831 -27.342103,-39.68246 -39.053055,-62.97438 -4.760968,-9.4691 -5.036701,-10.59632 -4.319171,-17.65708 0.546729,-5.38001 1.485573,-8.13724 3.274825,-9.61762 1.3796,-1.14145 2.508364,-2.64525 2.508364,-3.34177 0,-0.69651 1.947897,-3.81826 4.328661,-6.93723 2.380763,-3.11898 5.813959,-8.64643 7.629323,-12.28325 1.815364,-3.63681 5.128965,-8.58114 7.363559,-10.98739 2.234593,-2.40625 5.03154,-6.90625 6.215435,-10 1.183895,-3.09375 3.797396,-8.2055 5.807778,-11.35944 C 70.85514,182.98662 72.5,179.82443 72.5,179.11345 c 0,-1.78697 12.223376,-20.35975 13.412264,-20.37923 0.529505,-0.009 4.337736,-4.26256 8.462736,-9.45308 l 7.5,-9.4373 25,-12.42645 c 31.75197,-15.78256 38.34989,-20.17237 39.92901,-26.56608 0.84919,-3.438265 0.71998,-5.88606 -0.4619,-8.750003 -3.68957,-8.94072 -5.39985,-19.99171 -3.95907,-25.58169 1.0107,-3.921392 1.00366,-8.548983 -0.0263,-17.282206 -1.8477,-15.666856 -1.10889,-22.398894 3.16735,-28.860712 C 169.91931,13.735069 173.6016,12.5 189.008,12.5 c 14.13779,0 22.89302,1.738023 26.86946,5.333922 1.6661,1.50666 3.75437,2.227053 5.29094,1.825229 2.03979,-0.533416 3.28268,0.636886 6.32664,5.957165 2.51522,4.396163 4.84694,6.886731 6.93906,7.411823 5.19851,1.304742 6.38465,5.840785 3.71191,14.19521 -1.64825,5.152098 -2.32645,11.36996 -2.42566,22.238958 -0.14944,16.370432 -1.49507,20.485663 -7.60959,23.271622 -2.29905,1.047515 -3.29205,2.873477 -4.21767,7.755581 -2.09972,11.07476 -2.32206,13.26049 -1.34893,13.26049 0.52111,0 5.08374,3.19651 10.13916,7.10336 5.05543,3.90685 13.69168,10.02374 19.19168,13.59309 15.68687,10.18036 16.9511,12.11077 19.90931,30.40097 1.89425,11.7118 1.15665,31.11047 -1.94235,51.08339 l -1.59903,10.30581 4.94103,10.14404 c 2.71758,5.57921 6.90979,13.08839 9.31604,16.68705 6.33536,9.47481 17.62491,21.449 21.25,22.53866 4.70584,1.4145 7.3652,4.27894 8.22434,8.85853 1.00936,5.38039 2.81743,6.8366 15.52566,12.50437 5.84375,2.60628 11.2787,5.226 12.07767,5.82162 4.82248,3.59503 5.07402,27.60772 0.30505,29.12133 -1.3105,0.41594 -2.38272,1.78237 -2.38272,3.0365 0,1.38979 -1.22035,2.58655 -3.125,3.06458 -1.71875,0.43139 -3.125,1.33611 -3.125,2.01051 0,0.6744 -2.17414,1.22619 -4.83142,1.22619 -8.35861,0 -15.51879,-8.53018 -8.91858,-10.625 1.375,-0.43641 2.5,-1.28616 2.5,-1.88835 0,-1.99201 -5.49674,-4.98665 -9.15314,-4.98665 -2.445,0 -4.9999,-1.40304 -7.97807,-4.38121 -2.8193,-2.8193 -6.03672,-4.64594 -9.02496,-5.12378 -3.92262,-0.62725 -5.01842,-1.54021 -7.05629,-5.87889 -1.70009,-3.6195 -3.51995,-5.4747 -6.16254,-6.28216 -2.0625,-0.63022 -5.20904,-2.50302 -6.99231,-4.16177 -1.78328,-1.65877 -5.27899,-3.57828 -7.76825,-4.26559 -3.16823,-0.87479 -5.72299,-2.91653 -8.5163,-6.80615 -2.19469,-3.05605 -5.16773,-5.91215 -6.60674,-6.34689 -1.43902,-0.43474 -4.13156,-2.41339 -5.98344,-4.397 -4.10613,-4.39824 -8.83826,-4.75174 -10.62986,-0.79406 -0.70026,1.54687 -1.09586,7.23869 -0.87914,12.64846 0.37835,9.44374 0.63668,10.19143 6.4783,18.75 9.8795,14.47446 9.92223,14.71884 5.2949,30.28431 l -3.97667,13.3768 2.06824,9.50147 c 1.13753,5.2258 2.82322,11.18896 3.74598,13.25146 0.92277,2.0625 1.99632,6.42367 2.38565,9.6915 0.75788,6.36092 4.18502,14.02315 9.24445,20.66832 2.91714,3.83143 3.0204,4.43918 1.52444,8.97202 -1.3845,4.19506 -1.21655,7.31603 1.22402,22.74638 3.23597,20.45909 2.95447,31.23106 -1.20331,46.04678 -1.44701,5.15625 -2.97118,10.71921 -3.38705,12.36214 -0.41587,1.64292 -0.0424,8.39292 0.83003,15 1.48636,11.25714 1.41521,12.62113 -1.13102,21.68183 -1.78146,6.33932 -2.43858,11.1539 -1.90821,13.98103 0.44493,2.37162 0.1963,6.17684 -0.55249,8.45602 -2.11731,6.44473 -6.34612,31.03763 -6.36723,37.02907 -0.0194,5.4901 -8.17025,27.13638 -18.97417,50.38961 -2.84601,6.12547 -4.92455,11.38724 -4.61898,11.69281 0.30557,0.30556 3.90664,-0.32642 8.00237,-1.40441 14.63959,-3.85314 34.70052,0.87392 44.57388,10.50319 5.29224,5.16138 11.74689,15.52053 13.6179,21.85551 2.2581,7.64562 1.49388,20.97971 -1.66654,29.0782 -4.73782,12.14052 -8.06456,16.67479 -13.25395,18.06484 -4.59086,1.22972 -28.9291,4.21165 -46.4495,5.691 -9.37419,0.79152 -9.37535,0.79123 -13.44348,-3.33906 z M 98.75,278.24747 C 98.75,263.69259 97.192032,238.75 96.282902,238.75 94.090059,238.75 85,247.98495 85,250.21274 c 0,1.38487 -1.112618,3.9324 -2.472484,5.66118 -2.065826,2.62628 -2.22002,3.55654 -0.9375,5.65604 1.853815,3.03472 3.761284,6.42785 10.199569,18.14373 2.703023,4.91874 5.374898,8.65867 5.9375,8.31096 0.562604,-0.3477 1.022915,-4.72944 1.022915,-9.73718 z m 138.95488,-16.13148 c -1.8901,-2.16544 -2.01278,-2.14821 -2.96124,0.41572 -0.5442,1.47111 -0.63905,4.07086 -0.21078,5.77723 l 0.77868,3.10248 2.18256,-3.51821 c 1.99237,-3.21164 2.01075,-3.71506 0.21078,-5.77722 z"
       id="path3418"
       inkscape:connector-curvature="0" />
  </g>
</svg>
